<svg width="402" height="499" fill="none" xmlns="http://www.w3.org/2000/svg"><path d="M6.752 217H0v6.756h6.752V217zM20.072 217H13.32v6.756h6.752V217zM33.385 217h-6.752v6.756h6.752V217zM46.705 217h-6.752v6.756h6.752V217zM60.022 216.999H53.27v6.756h6.752v-6.756zM73.334 217h-6.752v6.756h6.752V217zM86.842 217H80.09v6.756h6.752V217zM100.158 216.999h-6.752v6.756h6.752v-6.756zM113.471 217h-6.752v6.756h6.752V217zM126.787 216.999h-6.752v6.756h6.752v-6.756zM140.115 216.999h-6.752v6.756h6.752v-6.756zM153.424 217h-6.752v6.756h6.752V217zM166.74 216.999h-6.752v6.756h6.752v-6.756zM180.057 217h-6.752v6.756h6.752V217zM193.369 216.999h-6.752v6.756h6.752v-6.756zM206.694 216.999h-6.753v6.756h6.753v-6.756zM220.002 216.999h-6.752v6.756h6.752v-6.756zM6.752 229.011H0v6.755h6.752v-6.755zM20.072 229.011H13.32v6.755h6.752v-6.755zM33.385 229.011h-6.752v6.755h6.752v-6.755zM46.705 229.011h-6.752v6.755h6.752v-6.755zM60.022 229.01H53.27v6.755h6.752v-6.755zM73.334 229.011h-6.752v6.755h6.752v-6.755zM86.842 229.011H80.09v6.755h6.752v-6.755zM100.158 229.01h-6.752v6.755h6.752v-6.755zM113.471 229.011h-6.752v6.755h6.752v-6.755zM126.787 229.01h-6.752v6.755h6.752v-6.755zM140.115 229.01h-6.752v6.755h6.752v-6.755zM153.424 229.011h-6.752v6.755h6.752v-6.755zM166.74 229.01h-6.752v6.755h6.752v-6.755zM180.057 229.011h-6.752v6.755h6.752v-6.755zM193.369 229.01h-6.752v6.755h6.752v-6.755zM206.694 229.01h-6.753v6.755h6.753v-6.755zM220.002 229.01h-6.752v6.755h6.752v-6.755zM6.752 241.02H0v6.568h6.752v-6.568zM20.072 241.02H13.32v6.568h6.752v-6.568zM33.385 241.02h-6.752v6.568h6.752v-6.568zM46.705 241.02h-6.752v6.568h6.752v-6.568zM60.022 241.021H53.27v6.568h6.752v-6.568zM73.334 241.02h-6.752v6.568h6.752v-6.568zM86.842 241.02H80.09v6.568h6.752v-6.568zM100.158 241.021h-6.752v6.568h6.752v-6.568zM113.471 241.02h-6.752v6.568h6.752v-6.568zM126.787 241.021h-6.752v6.568h6.752v-6.568zM140.112 241.021h-6.753v6.568h6.753v-6.568zM153.424 241.02h-6.752v6.568h6.752v-6.568zM166.74 241.021h-6.752v6.568h6.752v-6.568zM180.057 241.02h-6.752v6.568h6.752v-6.568zM193.369 241.021h-6.752v6.568h6.752v-6.568zM206.694 241.021h-6.753v6.568h6.753v-6.568zM220.002 241.021h-6.752v6.568h6.752v-6.568zM6.752 253.03H0v6.756h6.752v-6.756zM20.072 253.03H13.32v6.756h6.752v-6.756zM33.385 253.03h-6.752v6.756h6.752v-6.756zM46.705 253.03h-6.752v6.756h6.752v-6.756zM60.022 253.031H53.27v6.756h6.752v-6.756zM73.334 253.03h-6.752v6.756h6.752v-6.756zM86.842 253.03H80.09v6.756h6.752v-6.756zM100.158 253.031h-6.752v6.756h6.752v-6.756zM113.471 253.03h-6.752v6.756h6.752v-6.756zM126.787 253.031h-6.752v6.756h6.752v-6.756zM140.112 253.031h-6.753v6.756h6.753v-6.756zM153.424 253.03h-6.752v6.756h6.752v-6.756zM166.74 253.031h-6.752v6.756h6.752v-6.756zM180.057 253.03h-6.752v6.756h6.752v-6.756zM193.369 253.031h-6.752v6.756h6.752v-6.756zM206.694 253.031h-6.753v6.756h6.753v-6.756zM220.002 253.031h-6.752v6.756h6.752v-6.756zM6.752 265.04H0v6.756h6.752v-6.756zM20.072 265.041H13.32v6.756h6.752v-6.756zM33.385 265.041h-6.752v6.756h6.752v-6.756zM46.705 265.041h-6.752v6.756h6.752v-6.756zM60.022 265.04H53.27v6.756h6.752v-6.756zM73.334 265.041h-6.752v6.756h6.752v-6.756zM86.842 265.041H80.09v6.756h6.752v-6.756zM100.158 265.04h-6.752v6.756h6.752v-6.756zM113.471 265.041h-6.752v6.756h6.752v-6.756zM126.787 265.04h-6.752v6.756h6.752v-6.756zM140.115 265.04h-6.752v6.756h6.752v-6.756zM153.424 265.041h-6.752v6.756h6.752v-6.756zM166.74 265.04h-6.752v6.756h6.752v-6.756zM180.057 265.041h-6.752v6.756h6.752v-6.756zM193.369 265.04h-6.752v6.756h6.752v-6.756zM206.694 265.04h-6.753v6.756h6.753v-6.756zM220.002 265.04h-6.752v6.756h6.752v-6.756zM6.752 277.051H0v6.756h6.752v-6.756zM20.072 277.052H13.32v6.756h6.752v-6.756zM33.385 277.052h-6.752v6.756h6.752v-6.756zM46.705 277.052h-6.752v6.756h6.752v-6.756zM60.022 277.051H53.27v6.756h6.752v-6.756zM73.334 277.052h-6.752v6.756h6.752v-6.756zM86.842 277.052H80.09v6.756h6.752v-6.756zM100.158 277.051h-6.752v6.756h6.752v-6.756zM113.471 277.052h-6.752v6.756h6.752v-6.756zM126.787 277.051h-6.752v6.756h6.752v-6.756zM140.115 277.051h-6.752v6.756h6.752v-6.756zM153.424 277.052h-6.752v6.756h6.752v-6.756zM166.74 277.051h-6.752v6.756h6.752v-6.756zM180.057 277.052h-6.752v6.756h6.752v-6.756zM193.369 277.051h-6.752v6.756h6.752v-6.756zM206.694 277.051h-6.753v6.756h6.753v-6.756zM220.002 277.051h-6.752v6.756h6.752v-6.756zM6.752 289.062H0v6.756h6.752v-6.756zM20.072 289.062H13.32v6.756h6.752v-6.756zM33.385 289.062h-6.752v6.756h6.752v-6.756zM46.705 289.062h-6.752v6.756h6.752v-6.756zM60.022 289.062H53.27v6.755h6.752v-6.755zM73.334 289.062h-6.752v6.756h6.752v-6.756zM86.842 289.062H80.09v6.756h6.752v-6.756zM100.158 289.062h-6.752v6.755h6.752v-6.755zM113.471 289.062h-6.752v6.756h6.752v-6.756zM126.787 289.062h-6.752v6.755h6.752v-6.755zM140.112 289.062h-6.753v6.755h6.753v-6.755zM153.424 289.062h-6.752v6.756h6.752v-6.756zM166.74 289.062h-6.752v6.755h6.752v-6.755zM180.057 289.062h-6.752v6.756h6.752v-6.756zM193.369 289.062h-6.752v6.755h6.752v-6.755zM206.694 289.062h-6.753v6.755h6.753v-6.755zM220.002 289.062h-6.752v6.755h6.752v-6.755zM6.752 301.071H0v6.756h6.752v-6.756zM20.072 301.071H13.32v6.756h6.752v-6.756zM33.385 301.071h-6.752v6.756h6.752v-6.756zM46.705 301.071h-6.752v6.756h6.752v-6.756zM60.022 301.072H53.27v6.756h6.752v-6.756zM73.334 301.071h-6.752v6.756h6.752v-6.756zM86.842 301.071H80.09v6.756h6.752v-6.756zM100.158 301.072h-6.752v6.756h6.752v-6.756zM113.471 301.071h-6.752v6.756h6.752v-6.756zM126.787 301.072h-6.752v6.756h6.752v-6.756zM140.112 301.072h-6.753v6.756h6.753v-6.756zM153.424 301.071h-6.752v6.756h6.752v-6.756zM166.74 301.072h-6.752v6.756h6.752v-6.756zM180.057 301.071h-6.752v6.756h6.752v-6.756zM193.369 301.072h-6.752v6.756h6.752v-6.756zM206.694 301.072h-6.753v6.756h6.753v-6.756zM220.002 301.072h-6.752v6.756h6.752v-6.756zM6.752 312.894H0v6.755h6.752v-6.755zM20.072 312.894H13.32v6.755h6.752v-6.755zM33.385 312.894h-6.752v6.755h6.752v-6.755zM46.705 312.894h-6.752v6.755h6.752v-6.755zM60.022 312.894H53.27v6.755h6.752v-6.755zM73.334 312.894h-6.752v6.755h6.752v-6.755zM86.842 312.894H80.09v6.755h6.752v-6.755zM100.158 312.894h-6.752v6.755h6.752v-6.755zM113.471 312.894h-6.752v6.755h6.752v-6.755zM126.787 312.894h-6.752v6.755h6.752v-6.755zM140.112 312.894h-6.753v6.755h6.753v-6.755zM153.424 312.894h-6.752v6.755h6.752v-6.755zM166.74 312.894h-6.752v6.755h6.752v-6.755zM180.057 312.894h-6.752v6.755h6.752v-6.755zM193.369 312.894h-6.752v6.755h6.752v-6.755zM206.694 312.894h-6.753v6.755h6.753v-6.755zM220.002 312.894h-6.752v6.755h6.752v-6.755zM6.752 325.093H0v6.568h6.752v-6.568zM20.072 325.093H13.32v6.568h6.752v-6.568zM33.385 325.093h-6.752v6.568h6.752v-6.568zM46.705 325.093h-6.752v6.568h6.752v-6.568zM60.022 325.094H53.27v6.568h6.752v-6.568zM73.334 325.093h-6.752v6.568h6.752v-6.568zM86.842 325.093H80.09v6.568h6.752v-6.568zM100.158 325.094h-6.752v6.568h6.752v-6.568zM113.471 325.093h-6.752v6.568h6.752v-6.568zM126.787 325.094h-6.752v6.568h6.752v-6.568zM140.112 325.094h-6.753v6.568h6.753v-6.568zM153.424 325.093h-6.752v6.568h6.752v-6.568zM166.74 325.094h-6.752v6.568h6.752v-6.568zM180.057 325.093h-6.752v6.568h6.752v-6.568zM193.369 325.094h-6.752v6.568h6.752v-6.568zM206.694 325.094h-6.753v6.568h6.753v-6.568zM220.002 325.094h-6.752v6.568h6.752v-6.568zM6.752 336.914H0v6.756h6.752v-6.756zM20.072 336.913H13.32v6.756h6.752v-6.756zM33.385 336.913h-6.752v6.756h6.752v-6.756zM46.705 336.913h-6.752v6.756h6.752v-6.756zM60.022 336.913H53.27v6.756h6.752v-6.756zM73.334 336.913h-6.752v6.756h6.752v-6.756zM86.842 336.913H80.09v6.756h6.752v-6.756zM100.158 336.913h-6.752v6.756h6.752v-6.756zM113.471 336.913h-6.752v6.756h6.752v-6.756zM126.787 336.913h-6.752v6.756h6.752v-6.756zM140.112 336.913h-6.753v6.756h6.753v-6.756zM153.424 336.913h-6.752v6.756h6.752v-6.756zM166.74 336.913h-6.752v6.756h6.752v-6.756zM180.057 336.913h-6.752v6.756h6.752v-6.756zM193.369 336.913h-6.752v6.756h6.752v-6.756zM206.694 336.913h-6.753v6.756h6.753v-6.756zM220.002 336.913h-6.752v6.756h6.752v-6.756zM6.752 348.924H0v6.756h6.752v-6.756zM20.072 348.924H13.32v6.756h6.752v-6.756zM33.385 348.924h-6.752v6.756h6.752v-6.756zM46.705 348.924h-6.752v6.756h6.752v-6.756zM60.022 348.924H53.27v6.756h6.752v-6.756zM73.334 348.924h-6.752v6.756h6.752v-6.756zM86.842 348.924H80.09v6.756h6.752v-6.756zM100.158 348.924h-6.752v6.756h6.752v-6.756zM113.471 348.924h-6.752v6.756h6.752v-6.756zM126.787 348.924h-6.752v6.756h6.752v-6.756zM140.115 348.924h-6.752v6.756h6.752v-6.756zM153.424 348.924h-6.752v6.756h6.752v-6.756zM166.74 348.924h-6.752v6.756h6.752v-6.756zM180.057 348.924h-6.752v6.756h6.752v-6.756zM193.369 348.924h-6.752v6.756h6.752v-6.756zM206.694 348.924h-6.753v6.756h6.753v-6.756zM220.002 348.924h-6.752v6.756h6.752v-6.756z" fill="#F93B3B"/><path d="M401.637 238.341c0 94.768-76.9 171.708-171.617 171.708-94.718 0-171.618-76.94-171.618-171.708 0-94.769 76.9-171.71 171.618-171.71 94.717 0 171.617 76.754 171.617 171.71z" fill="#000"/><mask id="a" mask-type="alpha" maskUnits="userSpaceOnUse" x="57" y="66" width="345" height="345"><path d="M401.996 238.908c0 94.98-77.071 172.092-172 172.092s-172-77.112-172-172.092c0-94.979 77.071-172.092 172-172.092s172 76.924 172 172.092z" fill="#000"/></mask><g mask="url(#a)" fill="#FCFCFD"><path d="M435.587 94.218c-9.941 0-12.191-6.005-13.879-10.884-.938-2.628-1.876-5.255-3.939-7.132-3.189-3.19-8.253-5.066-12.942-4.69-2.813.187-6.564 1.313-9.378 5.066-1.125 1.501-3.188 1.876-4.876.75-1.501-1.126-1.876-3.19-.751-4.879 3.376-4.691 8.441-7.506 14.255-7.881 6.752-.563 13.692 2.064 18.381 6.568 3.188 3.19 4.501 6.755 5.439 9.758 1.688 4.504 2.438 6.38 7.502 6.38a3.363 3.363 0 013.376 3.378c.188 2.065-1.312 3.566-3.188 3.566z"/><path d="M405.955 140.194c-1.125 0-2.25-.563-2.813-1.502-1.125-1.501-.563-3.753.938-4.691 3.751-2.44 1.313-7.506-4.877-18.578-.938-1.502-1.688-3.003-2.626-4.692-8.065-14.637 3.751-27.398 11.254-32.09 1.5-.938 3.751-.563 4.689 1.126.938 1.69.563 3.754-1.126 4.692-.562.375-15.755 10.321-8.815 22.894.938 1.502 1.688 3.003 2.626 4.504 6.002 10.509 12.004 21.393 2.626 27.774-.75.375-1.313.563-1.876.563zM384.761 106.79c-.376 0-.938 0-1.313-.375-1.688-.751-2.439-2.815-1.688-4.504 1.125-2.44.937-3.19.937-3.19-.937-1.69-1.688-3.378-.375-6.38.751-1.69 2.626-2.628 4.502-1.877 1.688.75 2.626 2.627 1.875 4.504-.187.375-.187.563-.187.563 1.313 1.876 1.688 4.316-.375 9.383-.751 1.126-2.064 1.876-3.376 1.876zM332.618 94.219c-9.94 0-12.191-6.005-13.879-10.884-.938-2.628-1.876-5.255-3.939-7.131-3.189-3.19-8.253-5.067-12.942-4.692-2.813.188-6.564 1.314-9.378 5.067-1.125 1.501-3.188 1.876-4.876.75-1.501-1.125-1.876-3.19-.75-4.879 3.376-4.691 8.44-7.506 14.254-7.881 6.565-.563 13.692 2.064 18.381 6.568 3.189 3.19 4.501 6.755 5.627 9.758 1.688 4.504 2.438 6.38 7.502 6.38a3.363 3.363 0 013.376 3.378c.188 2.065-1.5 3.566-3.376 3.566z"/><path d="M302.983 140.194c-1.126 0-2.251-.563-2.814-1.502-1.125-1.501-.562-3.753.938-4.691 3.751-2.44 1.313-7.506-4.877-18.578-.937-1.502-1.688-3.003-2.625-4.692-8.065-14.637 3.751-27.398 11.253-32.09 1.688-.938 3.751-.563 4.689 1.126.938 1.69.563 3.754-1.125 4.692-.563.375-15.755 10.321-8.815 22.894.937 1.502 1.688 3.003 2.625 4.504 6.002 10.509 12.004 21.393 2.626 27.586-.562.563-1.313.751-1.875.751z"/><path d="M322.862 116.738c-.938 0-1.875 0-3.001-.188-10.878-1.501-12.941-16.89-12.566-19.892.187-1.877 1.875-3.19 3.751-3.002 1.875.187 3.188 1.876 3.001 3.753-.188 1.876 1.688 11.447 6.752 12.198 6.565.938 8.44-2.815 8.628-3.754.375-1.876 2.063-3.002 3.938-2.814 1.876.375 3.189 2.064 2.814 3.94-.563 4.129-4.877 9.759-13.317 9.759zM346.493 114.861c-1.313 0-2.438-.751-3.001-1.877-3.563-7.131-.938-12.197 1.688-17.827.751-1.69 1.688-3.566 2.439-5.63 1.688-4.129 1.313-7.694-1.126-10.697-3.188-3.94-8.252-5.442-9.565-5.067-1.688.939-3.564.188-4.502-1.5-.938-1.69 0-3.754 1.501-4.692 3.751-2.064 11.066.75 15.38 4.691 3.376 3.003 8.627 9.57 4.501 19.892-.938 2.252-1.876 4.316-2.813 6.005-2.626 5.255-3.564 7.882-1.688 11.823.937 1.689.187 3.753-1.501 4.691-.375 0-.938.188-1.313.188zM360.938 124.244c-1.313 0-2.626-.751-3.188-2.064-.75-1.689.187-3.753 1.875-4.504 8.065-3.378 12.192-6.193 11.629-12.573-.187-1.689-1.313-17.453 4.502-23.458 1.688-1.689 3.751-2.44 5.814-2.252 1.875.188 3.188 1.877 3.001 3.754-.188 1.876-1.876 3.377-3.751 3.002-2.439 2.44-3.752 10.51-3.001 18.203 1.125 12.386-9.941 17.077-15.755 19.517-.188.375-.563.375-1.126.375zM359.816 107.167c-.563 0-1.126-.187-1.688-.563-1.688-.938-2.063-3.002-1.126-4.691.188-.563.563-1.314.751-2.44 1.313-4.128 2.25-7.319 5.251-7.882 1.876-.375 3.752.751 4.127 2.628.187 1.313-.375 2.627-1.313 3.378-.375.75-.938 2.627-1.313 3.753-.563 1.876-.938 3.002-1.501 3.753-.938 1.314-2.063 2.064-3.188 2.064zM371.067 132.689c-1.313 0-2.626-.751-3.188-2.065-.751-1.689.187-3.753 1.875-4.504 2.626-1.125 4.127-2.814 5.815-5.066 2.25-2.815 5.064-6.381 11.066-8.07 1.875-.563 3.751.563 4.314 2.44.562 1.876-.563 3.753-2.439 4.316-3.939 1.126-5.439 3.19-7.502 5.817-2.063 2.628-4.314 5.443-8.628 7.319-.375-.375-.75-.187-1.313-.187zM368.623 79.956l-6.002-3.19c2.813-5.442 7.69-14.638 20.632-12.949 1.875.188 3.188 2.065 3.001 3.941-.188 1.877-2.064 3.19-3.939 3.003-7.69-1.126-10.316 3.002-13.692 9.195zM281.975 106.791c-.375 0-.937 0-1.313-.375-1.688-.751-2.438-2.815-1.688-4.504 1.126-2.44.938-3.19.938-3.19-.938-1.69-1.688-3.378-.375-6.38.75-1.69 2.626-2.628 4.502-1.877 1.688.75 2.625 2.627 1.875 4.504-.187.375-.187.563-.187.563 1.312 1.876 1.688 4.316-.376 9.383-.75 1.125-2.063 1.876-3.376 1.876zM268.286 132.689c-1.313 0-2.626-.751-3.189-2.065-.75-1.689.188-3.753 1.876-4.504 2.626-1.125 4.126-2.814 5.814-5.066 2.251-2.815 5.064-6.381 11.066-8.07 1.876-.563 3.752.563 4.314 2.44.563 1.876-.562 3.753-2.438 4.316-3.751 1.126-5.439 3.19-7.502 5.817-2.064 2.628-4.314 5.443-8.628 7.319-.563-.375-.938-.187-1.313-.187zM435.587 341.364c-9.941 0-12.191-6.005-13.879-10.884-.938-2.627-1.876-5.254-3.939-7.131-3.189-3.19-8.253-5.067-12.942-4.692-2.813.188-6.564 1.314-9.378 5.067-1.125 1.502-3.188 1.877-4.876.751-1.501-1.126-1.876-3.19-.751-4.879 3.376-4.692 8.441-7.507 14.255-7.882 6.752-.563 13.692 2.064 18.381 6.568 3.188 3.19 4.501 6.756 5.439 9.758 1.688 4.504 2.438 6.381 7.502 6.381a3.362 3.362 0 013.376 3.378c.188 1.876-1.312 3.565-3.188 3.565z"/><path d="M405.955 387.341c-1.125 0-2.25-.563-2.813-1.501-1.125-1.501-.563-3.753.938-4.692 3.751-2.439 1.313-7.506-4.877-18.578-.938-1.501-1.688-3.003-2.626-4.692-8.065-14.637 3.751-27.398 11.254-31.902 1.5-.938 3.751-.563 4.689 1.126.938 1.689.563 3.753-1.126 4.692-.562.375-15.755 10.321-8.815 22.894.938 1.502 1.688 3.003 2.626 4.504 6.002 10.509 12.004 21.393 2.626 27.774-.75.187-1.313.375-1.876.375zM384.761 353.938c-.376 0-.938 0-1.313-.376-1.688-.75-2.439-2.815-1.688-4.504 1.125-2.439.937-3.19.937-3.19-.937-1.689-1.688-3.378-.375-6.38.751-1.689 2.626-2.627 4.502-1.877 1.688.751 2.626 2.627 1.875 4.504-.187.375-.187.563-.187.563 1.313 1.877 1.688 4.316-.375 9.383-.751 1.126-2.064 1.877-3.376 1.877zM332.618 341.363c-9.94 0-12.191-6.005-13.879-10.884-.938-2.627-1.876-5.254-3.939-7.131-3.189-3.19-8.253-5.067-12.942-4.691-2.813.187-6.564 1.313-9.378 5.066-1.125 1.502-3.188 1.877-4.876.751-1.501-1.126-1.876-3.19-.75-4.879 3.376-4.692 8.44-7.507 14.254-7.882 6.565-.563 13.692 2.064 18.381 6.568 3.189 3.19 4.501 6.756 5.627 9.759 1.688 4.503 2.438 6.38 7.502 6.38a3.362 3.362 0 013.376 3.378c.188 1.876-1.5 3.565-3.376 3.565z"/><path d="M302.983 387.341c-1.126 0-2.251-.563-2.814-1.501-1.125-1.501-.562-3.753.938-4.692 3.751-2.439 1.313-7.506-4.877-18.578-.937-1.501-1.688-3.003-2.625-4.692-8.065-14.637 3.751-27.398 11.253-31.902 1.688-.938 3.751-.563 4.689 1.126.938 1.689.563 3.753-1.125 4.692-.563.375-15.755 10.321-8.815 22.894.937 1.502 1.688 3.003 2.625 4.504 6.002 10.509 12.004 21.393 2.626 27.586-.562.375-1.313.563-1.875.563z"/><path d="M322.862 363.695c-.938 0-1.875 0-3.001-.188-10.878-1.501-12.941-16.889-12.566-19.892.187-1.876 2.063-3.19 3.751-3.002 1.875.187 3.188 1.876 3.001 3.753-.188 1.876 1.688 11.447 6.752 12.198 6.565.938 8.44-2.815 8.628-3.754.375-1.876 2.063-3.002 3.938-2.814 1.876.375 3.189 2.064 2.814 3.94-.563 4.317-4.877 9.759-13.317 9.759zM346.493 361.818c-1.313 0-2.438-.751-3.001-1.877-3.563-7.131-.938-12.198 1.688-17.827.751-1.689 1.688-3.566 2.439-5.63 1.688-4.129 1.313-7.694-1.126-10.697-3.188-3.941-8.44-5.442-9.565-5.066-1.688.938-3.564.187-4.502-1.502-.938-1.689 0-3.753 1.501-4.691 3.751-2.064 11.066.75 15.38 4.691 3.376 3.003 8.627 9.571 4.501 19.892-.938 2.252-1.876 4.316-2.813 6.005-2.626 5.255-3.564 7.882-1.688 11.823.937 1.689.187 3.753-1.501 4.691-.375.188-.938.188-1.313.188zM360.938 371.389c-1.313 0-2.626-.751-3.188-2.065-.75-1.689.187-3.753 1.875-4.504 8.065-3.377 12.192-6.192 11.629-12.573-.187-1.689-1.313-17.452 4.502-23.457 1.688-1.689 3.751-2.44 5.814-2.252 1.875.188 3.188 1.877 3.001 3.753-.188 1.877-1.876 3.378-3.751 3.003-2.439 2.439-3.752 10.509-3.001 18.203 1.125 12.385-9.941 17.077-15.755 19.516-.188.188-.563.376-1.126.376zM359.816 354.125c-.563 0-1.126-.187-1.688-.563-1.688-.938-2.063-3.002-1.126-4.691.188-.563.563-1.314.751-2.44 1.313-4.128 2.25-7.319 5.251-7.882 1.876-.375 3.752.751 4.127 2.628.187 1.313-.375 2.627-1.313 3.378-.375.75-.938 2.627-1.313 3.753-.563 1.876-.938 3.002-1.501 3.753-.938 1.501-2.063 2.064-3.188 2.064zM371.067 379.647c-1.313 0-2.626-.751-3.188-2.065-.751-1.689.187-3.753 1.875-4.504 2.626-1.125 4.127-2.814 5.815-5.066 2.25-2.815 5.064-6.381 11.066-8.07 1.875-.563 3.751.563 4.314 2.44.562 1.877-.563 3.753-2.439 4.316-3.939 1.126-5.439 3.19-7.502 5.818-2.063 2.627-4.314 5.442-8.628 7.318-.375-.187-.75-.187-1.313-.187zM368.623 327.102l-6.002-3.191c2.813-5.442 7.69-14.637 20.632-12.948 1.875.187 3.188 2.064 3.001 3.941-.188 1.876-1.876 3.19-3.939 3.002-7.69-1.126-10.316 3.003-13.692 9.196zM281.975 353.937c-.375 0-.937 0-1.313-.376-1.688-.75-2.438-2.815-1.688-4.504 1.126-2.439.938-3.19.938-3.19-.938-1.689-1.688-3.378-.375-6.38.75-1.689 2.626-2.627 4.502-1.877 1.688.751 2.625 2.627 1.875 4.504-.187.375-.187.563-.187.563 1.312 1.877 1.688 4.316-.376 9.383-.75 1.126-2.063 1.877-3.376 1.877zM356.065 313.028c-.75 0-1.5 0-2.251-.188-12.191-1.314-18.568-11.072-19.318-12.949-.75-1.689.187-3.753 1.875-4.503 1.688-.751 3.752.187 4.502 1.876.563 1.314 5.439 7.882 13.879 8.82 8.44.939 16.318-6.38 16.318-6.568a3.35 3.35 0 014.877.188c1.312 1.313 1.312 3.565 0 4.879-.751.375-9.191 8.445-19.882 8.445zM322.305 312.089c-4.502 0-9.003-3.378-9.941-4.128-1.5-1.126-1.688-3.378-.562-4.879 1.125-1.502 3.376-1.689 4.876-.563 1.501 1.126 4.314 2.815 5.814 2.627 2.251-2.627-.187-5.63-.187-5.818-1.125-1.501-.938-3.565.375-4.879 1.501-1.126 3.564-.938 4.877.376 2.063 2.439 4.876 8.632.937 13.886-1.313 1.689-3.001 2.815-5.064 3.003-.562.375-.75.375-1.125.375zM268.286 379.647c-1.313 0-2.626-.751-3.189-2.065-.75-1.689.188-3.753 1.876-4.504 2.626-1.125 4.126-2.814 5.814-5.066 2.251-2.815 5.064-6.381 11.066-8.07 1.876-.563 3.752.563 4.314 2.44.563 1.877-.562 3.753-2.438 4.316-3.751 1.126-5.439 3.19-7.502 5.818-2.064 2.627-4.314 5.442-8.628 7.318-.563-.187-.938-.187-1.313-.187zM384.192 217.697c-9.94 0-12.191-6.005-13.879-10.884-.938-2.627-1.876-5.254-3.939-7.131-3.188-3.19-8.252-5.067-12.941-4.691-2.814.187-6.565 1.313-9.378 5.066-1.126 1.502-3.189 1.877-4.877.751-1.5-1.126-1.876-3.19-.75-4.879 3.376-4.692 8.44-7.507 14.254-7.882 6.752-.563 13.692 2.064 18.381 6.568 3.189 3.19 4.502 6.756 5.439 9.759 1.688 4.503 2.439 6.38 7.503 6.38a3.363 3.363 0 013.376 3.378c.187 2.064-1.313 3.565-3.189 3.565z"/><path d="M354.373 263.862c-1.125 0-2.25-.563-2.813-1.502-1.125-1.501-.563-3.753.938-4.691 3.751-2.44 1.313-7.506-4.877-18.578-.75-1.502-1.688-3.003-2.626-4.692-8.065-14.637 3.751-27.398 11.254-32.09 1.5-.938 3.751-.563 4.689 1.126.938 1.689.563 3.753-1.125 4.692-.563.375-15.756 10.321-8.816 22.894.938 1.502 1.688 3.003 2.626 4.504 6.002 10.509 12.004 21.393 2.626 27.774-.563.375-1.125.563-1.876.563z"/><path d="M374.444 240.216c-.938 0-1.875 0-3.001-.187-10.878-1.502-12.941-16.89-12.566-19.892.187-1.877 1.875-3.191 3.751-3.003 1.875.188 3.188 1.877 3.001 3.753-.188 1.877 1.688 11.447 6.752 12.198 6.565.938 8.44-2.815 8.628-3.753.375-1.877 2.063-3.003 3.939-2.815 1.875.375 3.188 2.064 2.813 3.941-.75 4.128-4.877 9.758-13.317 9.758zM397.888 238.34c-1.313 0-2.438-.751-3.001-1.877-3.564-7.131-.938-12.198 1.688-17.828.75-1.689 1.688-3.565 2.438-5.63 1.688-4.128 1.313-7.694-1.125-10.696-3.189-3.941-8.44-5.255-9.566-5.067-1.688.938-3.563.188-4.501-1.501-.938-1.689 0-3.753 1.5-4.692 3.752-2.064 11.066.751 15.38 4.692 3.376 3.002 8.628 9.57 4.502 19.892-.938 2.252-1.876 4.316-2.814 6.005-2.626 5.254-3.563 7.882-1.688 11.822.75 1.689.188 3.754-1.5 4.692-.375 0-.751.188-1.313.188zM388.698 287.318c-.75 0-1.313-.188-2.063-.563-5.252-3.753-7.127-10.321-8.815-21.768-1.126-8.07-4.877-10.697-7.315-12.386-.75-.563-1.313-.938-1.876-1.501-1.313-1.314-1.313-3.566 0-4.879 1.313-1.314 3.564-1.314 4.877 0 .187.187.562.375.938.75 2.813 1.877 8.44 6.005 10.128 17.077 1.5 10.885 3.001 15.013 6.002 17.077 1.5 1.126 1.875 3.191.75 4.692-.563.938-1.501 1.501-2.626 1.501zM425.268 269.492c-.562 0-1.125-.187-1.688-.563-3.938-2.251-6.189-2.627-12.004-3.565-1.688-.188-3.751-.563-6.001-.938-6.002-.939-11.067-5.067-14.255-11.26-.938-1.877-3.001-6.568-1.688-9.383.938-1.689 2.813-2.439 4.689-1.501 1.5.75 2.251 2.439 1.876 3.941.187 1.876 3.376 10.321 10.69 11.447 2.251.375 4.127.751 5.815.938 6.189.938 9.378 1.314 14.442 4.316 1.688.939 2.063 3.003 1.125 4.692-.75 1.313-1.875 1.876-3.001 1.876zM413.829 298.766c-1.5 0-2.813-.938-3.376-2.44 0 0-1.688-6.005-4.314-11.447-2.251-4.504-5.814-6.756-9.941-9.195l-.937-.563c-1.688-.938-2.064-3.19-1.126-4.692.938-1.689 3.189-2.064 4.689-1.126l.938.563c4.314 2.628 9.378 5.818 12.379 12.011 3.001 6.005 4.689 12.385 4.877 12.573.562 1.876-.563 3.753-2.439 4.128-.187 0-.375.188-.75.188zM347.061 287.883h-.75c-1.876-.376-3.001-2.252-2.626-4.129.75-3.378 4.502-4.691 9.191-6.38 2.25-.751 4.876-1.689 7.127-2.815 4.876-2.628 3.188-9.759 3.188-9.759-.562-1.876.563-3.753 2.439-4.128 1.875-.563 3.751.563 4.126 2.439 1.125 4.317 1.313 13.512-6.565 17.64-2.625 1.314-5.626 2.44-8.065 3.191-1.688.563-4.126 1.501-4.876 1.876-.75 1.126-1.876 2.065-3.189 2.065zM332.991 260.86c-.562 0-1.313 0-1.875-.188-1.876-.375-3.001-2.252-2.626-3.941.375-1.877 2.063-3.19 4.126-2.627 3.001.563 7.503-4.692 8.253-6.193.938-1.689 2.813-2.44 4.689-1.501 1.688.938 2.438 2.815 1.5 4.691-1.313 1.877-6.752 9.759-14.067 9.759zM333.37 230.458c-.375 0-.938 0-1.313-.375-1.688-.751-2.438-2.815-1.688-4.504 1.125-2.44.938-3.19.938-3.19-.938-1.689-1.688-3.378-.375-6.381.75-1.689 2.625-2.627 4.501-1.876 1.688.75 2.626 2.627 1.876 4.504-.188.375-.188.563-.188.563 1.313 1.876 1.688 4.316-.375 9.383-.75 1.125-2.063 1.876-3.376 1.876zM407.456 189.549c-.75 0-1.501 0-2.251-.188-12.191-1.313-18.568-11.072-19.319-12.948-.75-1.689.188-3.753 1.876-4.504 1.688-.751 3.751.188 4.501 1.877.563 1.313 5.44 7.881 13.692 8.82 8.441.938 16.318-6.381 16.318-6.568 1.313-1.314 3.564-1.314 4.877.187 1.313 1.314 1.313 3.566 0 4.879-.375.376-9.003 8.445-19.694 8.445z"/><path d="M389.447 301.956c-3.188 0-6.377-.75-9.378-3.19-7.877-6.193-9.565-10.321-9.565-15.576 0-1.876 1.5-3.378 3.376-3.378a3.363 3.363 0 013.376 3.378c0 2.628 0 5.067 6.752 10.134 5.439 4.129 13.692-.751 13.88-.751 1.688-.938 3.751-.375 4.689 1.126.937 1.689.375 3.754-1.126 4.692-.375.375-5.814 3.565-12.004 3.565zM373.692 188.61c-4.502 0-9.003-3.378-9.941-4.129-1.5-1.126-1.688-3.378-.563-4.879 1.126-1.501 3.376-1.689 4.877-.563 1.5 1.126 4.314 2.815 5.814 2.627 2.251-2.627-.187-5.629-.187-5.817-1.126-1.501-.938-3.566.375-4.879 1.5-1.126 3.563-.939 4.876.375 2.063 2.44 4.877 8.632.938 13.887-1.313 1.689-3.001 2.815-5.064 3.002-.375.376-.75.376-1.125.376zM294.919 238.339c-1.313 0-2.438-.751-3.001-1.877-3.564-7.131-.938-12.198 1.688-17.828.75-1.689 1.688-3.565 2.438-5.63 1.688-4.128 1.313-7.694-1.125-10.696-3.189-3.941-8.44-5.255-9.566-5.067-1.688.938-3.563.188-4.501-1.501-.938-1.689 0-3.753 1.501-4.692 3.751-2.064 11.066.751 15.379 4.692 3.376 3.002 8.628 9.57 4.502 19.892-.938 2.252-1.876 4.316-2.814 6.005-2.625 5.254-3.563 7.882-1.688 11.822.938 1.689.188 3.754-1.5 4.692-.188 0-.75.188-1.313.188zM285.733 287.318c-.75 0-1.313-.188-2.063-.563-5.252-3.753-7.127-10.321-8.815-21.768-1.126-8.07-4.877-10.697-7.315-12.386-.75-.563-1.313-.938-1.876-1.501-1.313-1.314-1.313-3.566 0-4.879 1.313-1.314 3.564-1.314 4.877 0 .188.187.563.375.938.75 2.813 1.877 8.44 6.005 10.128 17.077 1.688 10.885 3.001 15.013 6.002 17.077 1.5 1.126 1.876 3.191.75 4.692-.375.938-1.5 1.501-2.626 1.501zM322.303 269.491c-.562 0-1.125-.188-1.688-.563-3.938-2.252-6.189-2.628-12.003-3.566-1.688-.188-3.752-.563-6.002-.938-6.002-.939-11.066-5.067-14.255-11.26-.938-1.877-3.001-6.568-1.688-9.383.938-1.689 2.813-2.439 4.689-1.501 1.501.75 2.251 2.439 1.876 3.941.187 1.876 3.376 10.321 10.691 11.447 2.25.375 4.126.751 5.814.938 6.189.939 9.378 1.314 14.442 4.316 1.688.939 2.063 3.003 1.125 4.692-.562 1.314-1.688 1.877-3.001 1.877zM309.548 247.722c-1.313 0-2.626-.751-3.189-2.065-.75-1.689.188-3.753 1.876-4.503 8.065-3.378 12.191-6.193 11.628-12.574-.187-1.689-1.312-17.452 4.502-23.457 1.688-1.689 3.751-2.44 5.814-2.252 1.876.188 3.189 1.877 3.001 3.753-.187 1.877-1.875 3.378-3.751 3.003-2.438 2.439-3.751 10.509-3.001 18.203 1.125 12.385-9.941 17.077-15.755 19.516-.188.376-.75.376-1.125.376zM308.425 230.645c-.563 0-1.125-.188-1.688-.563-1.688-.939-2.063-3.003-1.125-4.692.187-.563.562-1.313.75-2.439 1.313-4.129 2.251-7.319 5.252-7.882 1.875-.375 3.751.751 3.938 2.627.188 1.314-.375 2.627-1.312 3.378-.376.751-.938 2.627-1.313 3.753-.563 1.877-.938 3.003-1.501 3.753-.75 1.502-1.875 2.065-3.001 2.065zM311.052 298.765c-1.501 0-2.814-.938-3.376-2.44 0 0-1.688-6.005-4.314-11.447-2.251-4.504-5.815-6.756-9.941-9.195l-.938-.563c-1.688-.938-2.063-3.19-1.125-4.692.938-1.689 3.188-2.064 4.689-1.126l.938.563c4.314 2.628 9.19 5.818 12.379 12.011 3.001 6.005 4.689 12.385 4.876 12.573.563 1.876-.563 3.753-2.438 4.128-.188 0-.563.188-.75.188zM319.68 256.167c-1.312 0-2.625-.751-3.188-2.064-.75-1.689.187-3.753 1.876-4.504 2.625-1.126 4.126-2.815 5.814-5.067 2.251-2.815 5.064-6.38 11.066-8.069 1.876-.563 3.751.563 4.314 2.439.562 1.877-.563 3.754-2.438 4.317-3.752 1.126-5.44 3.19-7.503 5.817-2.063 2.627-4.314 5.442-8.628 7.319-.375-.376-.937-.188-1.313-.188zM329.247 290.134c-.188 0-.563 0-.751-.188-3.938-.938-9.378-4.129-11.816-7.694-1.125-1.502-.563-3.753.938-4.692 1.5-1.126 3.751-.563 4.689.939 1.125 1.688 5.064 4.128 7.69 4.879 1.875.375 3.001 2.252 2.438 4.128-.188 1.502-1.688 2.628-3.188 2.628zM317.24 203.622l-6.002-3.19c2.814-5.442 7.69-14.638 20.632-12.949 1.875.188 3.188 2.065 3.001 3.941-.188 1.877-1.876 3.19-3.939 3.003-7.69-1.126-10.503 2.815-13.692 9.195zM304.675 189.547c-.751 0-1.501 0-2.251-.188-12.192-1.313-18.569-11.071-19.319-12.948-.75-1.689.188-3.753 1.876-4.504 1.688-.751 3.751.188 4.501 1.877.563 1.313 5.439 7.881 13.88 8.82 8.627.938 16.317-6.381 16.317-6.568 1.313-1.314 3.564-1.314 4.877.187 1.313 1.314 1.313 3.566 0 4.879-.75.376-9.19 8.445-19.881 8.445z"/><path d="M286.479 301.955c-3.189 0-6.377-.75-9.378-3.19-7.878-6.193-9.566-10.321-9.566-15.576a3.363 3.363 0 013.376-3.377 3.362 3.362 0 013.376 3.377c0 2.628 0 5.067 6.752 10.134 5.44 4.129 13.692-.751 13.88-.751 1.688-.938 3.751-.375 4.689 1.126.938 1.689.563 3.754-1.125 4.692-.188.375-5.627 3.565-12.004 3.565zM339.183 282.439c-.938 0-1.688-.376-2.438-.938-1.688-1.502-6.94-7.132-4.689-12.011 2.063-4.691 8.815-4.691 13.504-4.128 1.876.187 3.189 1.876 3.189 3.753-.188 1.877-1.876 3.19-3.752 3.19-5.626-.563-6.939.376-6.939.376.187.187 1.688 2.439 3.376 3.94 1.313 1.314 1.5 3.566.187 4.88-.75.562-1.688.938-2.438.938zM405.955 140.193c-1.125 0-2.25-.563-2.813-1.501-1.125-1.502-.563-3.754.938-4.692 3.751-2.44 1.313-7.506-4.877-18.578-.938-1.502-1.688-3.003-2.626-4.692-8.065-14.637 3.751-27.398 11.254-32.09 1.5-.938 3.751-.563 4.689 1.126.938 1.69.563 3.753-1.126 4.692-.562.375-15.755 10.321-8.815 22.894.938 1.502 1.688 3.003 2.626 4.504 6.002 10.509 12.004 21.393 2.626 27.774-.75.375-1.313.563-1.876.563zM398.452 164.214h-.75c-1.876-.376-3.001-2.252-2.626-4.129.75-3.378 4.501-4.692 9.19-6.38 2.251-.751 4.877-1.689 7.128-2.815 4.876-2.628 3.188-9.759 3.188-9.759-.563-1.876.563-3.753 2.438-4.128 1.876-.563 3.751.563 4.127 2.439 1.125 4.317 1.313 13.512-6.565 17.64-2.626 1.314-5.627 2.44-8.065 3.191-1.688.563-4.126 1.501-4.877 1.876-.562 1.314-1.875 2.065-3.188 2.065z"/><path d="M384.573 137.191c-.562 0-1.313 0-1.875-.188-1.876-.375-3.001-2.252-2.626-3.941.375-1.877 2.251-3.002 3.939-2.627 3.001.563 7.502-4.692 8.252-6.193.938-1.689 2.814-2.44 4.689-1.501 1.688.938 2.439 3.002 1.501 4.691-1.126 1.877-6.752 9.759-13.88 9.759zM302.987 140.193c-1.126 0-2.251-.563-2.814-1.501-1.125-1.502-.563-3.754.938-4.692 3.751-2.44 1.313-7.506-4.877-18.578-.937-1.502-1.688-3.003-2.625-4.692-8.066-14.637 3.751-27.398 11.253-32.09 1.688-.938 3.751-.563 4.689 1.126.938 1.69.563 3.753-1.125 4.692-.563.375-15.755 10.321-8.816 22.894.938 1.502 1.688 3.003 2.626 4.504 6.002 10.509 12.004 21.393 2.626 27.586-.563.563-1.313.751-1.875.751z"/><path d="M322.866 116.736c-.938 0-1.876 0-3.001-.188-10.878-1.501-12.942-16.89-12.566-19.892.187-1.877 2.063-3.19 3.751-3.002 1.875.187 3.188 1.876 3.001 3.753-.188 1.876 1.688 11.447 6.752 12.198 6.564.938 8.44-2.815 8.628-3.754.375-1.876 2.063-3.002 3.938-2.814 1.876.375 3.189 2.064 2.814 3.94-.563 4.129-4.877 9.759-13.317 9.759zM337.308 163.65c-.751 0-1.313-.188-2.064-.563-5.251-3.753-7.127-10.321-8.815-21.768-1.125-8.07-4.877-10.697-7.315-12.386-.75-.563-1.313-.938-1.875-1.501-1.313-1.314-1.313-3.566 0-4.879 1.313-1.314 3.563-1.314 4.876 0 .188.187.563.375.938.75 2.813 1.877 8.44 6.005 10.128 17.077 1.501 10.885 3.001 15.013 6.002 17.077 1.501 1.126 1.876 3.191.75 4.692-.562 1.126-1.688 1.501-2.625 1.501zM373.878 146.011c-.563 0-1.126-.188-1.688-.563-3.939-2.252-6.19-2.627-12.004-3.566-1.688-.187-3.751-.562-6.002-.938-6.002-.938-11.066-5.067-14.255-11.259-.937-1.877-3.001-6.568-1.688-9.383.751-1.689 2.814-2.44 4.689-1.502 1.501.751 2.251 2.44 1.876 3.941.187 1.877 3.376 10.321 10.691 11.447 2.25.376 4.126.751 5.814.939 6.19.938 9.378 1.313 14.442 4.316 1.688.938 2.063 3.002 1.126 4.691-.751 1.314-1.876 1.877-3.001 1.877zM360.942 124.242c-1.313 0-2.626-.751-3.188-2.064-.751-1.689.187-3.753 1.875-4.504 8.065-3.378 12.192-6.193 11.629-12.573-.188-1.689-1.313-17.453 4.501-23.458 1.688-1.689 3.752-2.44 5.815-2.252 1.875.188 3.188 1.877 3.001 3.754-.188 1.876-1.876 3.377-3.751 3.002-2.439 2.44-3.752 10.51-3.001 18.203 1.125 12.386-9.941 17.077-15.755 19.517-.188.375-.563.375-1.126.375zM362.438 175.097c-1.5 0-2.813-.938-3.376-2.44 0 0-1.688-6.005-4.314-11.447-2.25-4.504-5.814-6.756-9.94-9.195l-.938-.563c-1.688-.938-2.063-3.19-1.125-4.692.937-1.688 3.188-2.064 4.689-1.125l.937.562c4.314 2.628 9.378 5.818 12.379 12.011 3.001 6.005 4.689 12.385 4.877 12.573.563 1.876-.563 3.753-2.438 4.128-.188.188-.563.188-.751.188zM371.071 132.686c-1.313 0-2.626-.751-3.188-2.065-.751-1.689.187-3.753 1.875-4.503 2.626-1.126 4.126-2.815 5.815-5.067 2.25-2.815 5.064-6.381 11.066-8.07 1.875-.563 3.751.563 4.313 2.44.563 1.877-.562 3.753-2.438 4.316-3.939 1.126-5.439 3.19-7.502 5.818-2.063 2.627-4.314 5.442-8.628 7.318-.375-.375-.75-.187-1.313-.187zM295.483 164.214h-.75c-1.876-.376-3.001-2.252-2.626-4.129.75-3.378 4.501-4.692 9.19-6.38 2.251-.751 4.877-1.689 7.128-2.815 4.876-2.628 3.188-9.759 3.188-9.759-.562-1.876.563-3.753 2.439-4.128 1.875-.563 3.751.563 4.126 2.439 1.125 4.317 1.313 13.512-6.565 17.64-2.626 1.314-5.627 2.44-8.065 3.191-1.688.563-4.126 1.501-4.876 1.876-.563 1.314-1.876 2.065-3.189 2.065zM380.633 166.653c-.187 0-.562 0-.75-.188-3.939-.938-9.378-4.128-11.816-7.694-1.126-1.501-.563-3.753.938-4.691 1.5-1.126 3.751-.563 4.689.938 1.125 1.689 5.064 4.129 7.69 4.879 1.875.376 3 2.252 2.438 4.129-.188 1.501-1.501 2.627-3.189 2.627zM281.605 137.191c-.563 0-1.313 0-1.876-.188-1.876-.375-3.001-2.252-2.626-3.941.375-1.877 2.063-3.002 4.126-2.627 3.001.563 7.503-4.692 8.253-6.193.938-1.689 2.813-2.44 4.689-1.501 1.688.938 2.438 3.002 1.501 4.691-1.313 1.877-6.94 9.759-14.067 9.759z"/><path d="M337.873 178.476c-3.188 0-6.377-.751-9.378-3.19-7.877-6.193-9.565-10.322-9.565-15.576 0-1.877 1.5-3.378 3.376-3.378a3.363 3.363 0 013.376 3.378c0 2.627 0 5.067 6.752 10.134 5.439 4.128 13.692-.751 13.879-.751 1.688-.938 3.752-.375 4.689 1.126.938 1.689.375 3.753-1.125 4.691-.188.376-5.627 3.566-12.004 3.566zM390.578 158.959c-.938 0-1.688-.375-2.439-.938-1.688-1.501-6.939-7.131-4.689-12.01 2.063-4.692 8.816-4.692 13.692-4.129 1.876.188 3.189 1.877 3.189 3.754-.188 1.876-1.876 3.19-3.751 3.19-5.627-.563-6.94.375-6.94.375.187.188 1.688 2.44 3.376 3.941 1.313 1.314 1.5 3.565.187 4.879-.75.563-1.688.938-2.625.938zM268.286 132.686c-1.313 0-2.626-.751-3.189-2.065-.75-1.689.188-3.753 1.876-4.503 2.626-1.126 4.126-2.815 5.814-5.067 2.251-2.815 5.064-6.381 11.066-8.07 1.876-.563 3.752.563 4.314 2.44.563 1.877-.562 3.753-2.438 4.316-3.751 1.126-5.439 3.19-7.502 5.818-2.064 2.627-4.314 5.442-8.628 7.318-.563-.375-.938-.187-1.313-.187zM287.601 158.958c-.938 0-1.688-.375-2.438-.938-1.688-1.501-6.94-7.131-4.689-12.01 2.063-4.692 8.815-4.692 13.504-4.129 1.876.188 3.189 1.877 3.189 3.754-.188 1.876-1.876 3.19-3.752 3.19-5.626-.563-6.939.375-6.939.375.187.188 1.688 2.44 3.376 3.941 1.313 1.314 1.313 3.565.187 4.879-.562.563-1.5.938-2.438.938zM405.955 387.341c-1.125 0-2.25-.563-2.813-1.501-1.125-1.501-.563-3.753.938-4.692 3.751-2.439 1.313-7.506-4.877-18.578-.938-1.501-1.688-3.003-2.626-4.691-8.065-14.638 3.751-27.399 11.254-31.903 1.5-.938 3.751-.563 4.689 1.126.938 1.689.563 3.753-1.126 4.692-.562.375-15.755 10.321-8.815 22.894.938 1.502 1.688 3.003 2.626 4.504 6.002 10.509 12.004 21.393 2.626 27.774-.75.187-1.313.375-1.876.375zM398.452 411.363h-.75c-1.876-.375-3.001-2.252-2.626-4.129.75-3.377 4.501-4.691 9.19-6.38 2.251-.751 4.877-1.689 7.128-2.815 4.876-2.627 3.188-9.758 3.188-9.758-.563-1.877.563-3.753 2.438-4.129 1.876-.563 3.751.563 4.127 2.44 1.125 4.316 1.313 13.511-6.565 17.64-2.626 1.313-5.627 2.439-8.065 3.19-1.688.563-4.126 1.501-4.877 1.877-.562 1.313-1.875 2.064-3.188 2.064z"/><path d="M384.573 384.339c-.562 0-1.313 0-1.875-.188-1.876-.375-3.001-2.252-2.626-3.94.375-1.877 2.251-3.003 3.939-2.628 3.001.563 7.502-4.691 8.252-6.193.938-1.688 2.814-2.439 4.689-1.501 1.688.939 2.439 3.003 1.501 4.692-1.126 1.876-6.752 9.758-13.88 9.758zM302.987 387.341c-1.126 0-2.251-.563-2.814-1.501-1.125-1.501-.563-3.753.938-4.692 3.751-2.439 1.313-7.506-4.877-18.578-.937-1.501-1.688-3.003-2.625-4.691-8.066-14.638 3.751-27.399 11.253-31.903 1.688-.938 3.751-.563 4.689 1.126.938 1.689.563 3.753-1.125 4.692-.563.375-15.755 10.321-8.816 22.894.938 1.502 1.688 3.003 2.626 4.504 6.002 10.509 12.004 21.393 2.626 27.586a3.621 3.621 0 01-1.875.563z"/><path d="M322.866 363.697c-.938 0-1.876 0-3.001-.188-10.878-1.501-12.942-16.889-12.566-19.892.187-1.877 2.063-3.19 3.751-3.002 1.875.187 3.188 1.876 3.001 3.753-.188 1.876 1.688 11.447 6.752 12.198 6.564.938 8.44-2.815 8.628-3.754.375-1.876 2.063-3.002 3.938-2.814 1.876.375 3.189 2.064 2.814 3.94-.563 4.317-4.877 9.759-13.317 9.759zM337.308 410.8c-.751 0-1.313-.188-2.064-.563-5.251-3.754-7.127-10.322-8.815-21.769-1.125-8.069-4.877-10.697-7.315-12.386-.75-.563-1.313-.938-1.875-1.501-1.313-1.313-1.313-3.565 0-4.879 1.313-1.314 3.563-1.314 4.876 0 .188.188.563.375.938.751 2.813 1.876 8.44 6.005 10.128 17.077 1.501 10.884 3.001 15.013 6.002 17.077 1.501 1.126 1.876 3.19.75 4.691-.562.939-1.688 1.502-2.625 1.502zM373.878 392.972c-.563 0-1.126-.188-1.688-.563-3.939-2.252-6.19-2.627-12.004-3.566-1.688-.187-3.751-.563-6.002-.938-6.002-.938-11.066-5.067-14.255-11.259-.937-1.877-3.001-6.569-1.688-9.383.751-1.689 2.814-2.44 4.689-1.502 1.501.751 2.251 2.44 1.876 3.941.187 1.877 3.376 10.321 10.691 11.447 2.25.376 4.126.751 5.814.939 6.19.938 9.378 1.313 14.442 4.316 1.688.938 2.063 3.002 1.126 4.691-.751 1.314-1.876 1.877-3.001 1.877zM360.942 371.391c-1.313 0-2.626-.751-3.188-2.065-.751-1.689.187-3.753 1.875-4.504 8.065-3.377 12.192-6.192 11.629-12.573-.188-1.689-1.313-17.452 4.501-23.457 1.688-1.689 3.752-2.44 5.815-2.252 1.875.188 3.188 1.876 3.001 3.753-.188 1.877-1.876 3.378-3.751 3.003-2.439 2.439-3.752 10.509-3.001 18.203 1.125 12.385-9.941 17.077-15.755 19.516-.188.188-.563.376-1.126.376zM362.438 422.246c-1.5 0-2.813-.938-3.376-2.439 0 0-1.688-6.005-4.314-11.447-2.25-4.504-5.814-6.756-9.94-9.196l-.938-.563c-1.688-.938-2.063-3.19-1.125-4.691.937-1.689 3.188-2.064 4.689-1.126l.937.563c4.314 2.627 9.378 5.817 12.379 12.01 3.001 6.005 4.689 12.386 4.877 12.573.563 1.877-.563 3.753-2.438 4.129-.188.187-.563.187-.751.187zM371.071 379.647c-1.313 0-2.626-.751-3.188-2.065-.751-1.689.187-3.753 1.875-4.504 2.626-1.125 4.126-2.814 5.815-5.066 2.25-2.815 5.064-6.381 11.066-8.07 1.875-.563 3.751.563 4.313 2.44.563 1.877-.562 3.753-2.438 4.316-3.939 1.126-5.439 3.19-7.502 5.818-2.063 2.627-4.314 5.442-8.628 7.318-.375-.187-.75-.187-1.313-.187zM295.483 411.362h-.75c-1.876-.375-3.001-2.252-2.626-4.129.75-3.377 4.501-4.691 9.19-6.38 2.251-.751 4.877-1.689 7.128-2.815 4.876-2.627 3.188-9.758 3.188-9.758-.562-1.877.563-3.753 2.439-4.129 1.875-.563 3.751.563 4.126 2.44 1.125 4.316 1.313 13.511-6.565 17.64-2.626 1.314-5.627 2.439-8.065 3.19-1.688.563-4.126 1.501-4.876 1.877-.563 1.313-1.876 2.064-3.189 2.064zM380.633 413.613c-.187 0-.562 0-.75-.188-3.939-.938-9.378-4.128-11.816-7.694-1.126-1.501-.563-3.753.938-4.691 1.5-1.126 3.751-.563 4.689.938 1.125 1.689 5.064 4.128 7.69 4.879 1.875.375 3 2.252 2.438 4.129-.188 1.689-1.501 2.627-3.189 2.627zM281.605 384.339c-.563 0-1.313 0-1.876-.188-1.876-.375-3.001-2.252-2.626-3.94.375-1.877 2.063-3.003 4.126-2.628 3.001.563 7.503-4.691 8.253-6.193.938-1.688 2.813-2.439 4.689-1.501 1.688.939 2.438 3.003 1.501 4.692-1.313 1.876-6.94 9.758-14.067 9.758z"/><path d="M337.873 425.624c-3.188 0-6.377-.75-9.378-3.19-7.877-6.193-9.565-10.321-9.565-15.576 0-1.876 1.5-3.378 3.376-3.378a3.364 3.364 0 013.376 3.378c0 2.628 0 5.067 6.752 10.134 5.439 4.128 13.692-.751 13.879-.751 1.688-.938 3.752-.375 4.689 1.126.938 1.689.375 3.753-1.125 4.692-.188.187-5.627 3.565-12.004 3.565zM390.578 405.92c-.938 0-1.688-.375-2.439-.938-1.688-1.501-6.939-7.131-4.689-12.01 2.063-4.692 8.816-4.692 13.692-4.129 1.876.188 3.189 1.877 3.189 3.753-.188 1.877-1.876 3.191-3.751 3.191-5.627-.563-6.94.375-6.94.375.187.188 1.688 2.44 3.376 3.941 1.313 1.313 1.5 3.565.187 4.879-.75.751-1.688.938-2.625.938zM268.286 379.647c-1.313 0-2.626-.751-3.189-2.065-.75-1.689.188-3.753 1.876-4.504 2.626-1.125 4.126-2.814 5.814-5.066 2.251-2.815 5.064-6.381 11.066-8.07 1.876-.563 3.752.563 4.314 2.44.563 1.877-.562 3.753-2.438 4.316-3.751 1.126-5.439 3.19-7.502 5.818-2.064 2.627-4.314 5.442-8.628 7.318-.563-.187-.938-.187-1.313-.187zM287.601 405.918c-.938 0-1.688-.375-2.438-.938-1.688-1.501-6.94-7.131-4.689-12.01 2.063-4.692 8.815-4.692 13.504-4.129 1.876.188 3.189 1.877 3.189 3.753-.188 1.877-1.876 3.191-3.752 3.191-5.626-.563-6.939.375-6.939.375.187.188 1.688 2.44 3.376 3.941 1.313 1.314 1.313 3.565.187 4.879-.562.751-1.5.938-2.438.938zM332.614 94.218c-9.94 0-12.191-6.005-13.879-10.884-.938-2.628-1.876-5.255-3.939-7.132-3.188-3.19-8.253-5.066-12.942-4.69-2.813.187-6.564 1.313-9.378 5.066-1.125 1.501-3.188 1.876-4.876.75-1.501-1.126-1.876-3.19-.75-4.879 3.376-4.691 8.44-7.506 14.254-7.881 6.565-.563 13.692 2.064 18.381 6.568 3.189 3.19 4.502 6.755 5.627 9.758 1.688 4.504 2.438 6.38 7.502 6.38a3.363 3.363 0 013.376 3.378c.188 2.065-1.5 3.566-3.376 3.566zM281.971 106.792c-.375 0-.937 0-1.312-.375-1.689-.751-2.439-2.815-1.688-4.504 1.125-2.44.937-3.19.937-3.19-.937-1.69-1.688-3.378-.375-6.38.75-1.69 2.626-2.628 4.502-1.877 1.688.75 2.625 2.627 1.875 4.504-.187.375-.187.563-.187.563 1.313 1.876 1.688 4.316-.375 9.383-.751 1.125-2.064 1.876-3.377 1.876zM229.833 94.218c-9.941 0-12.191-6.005-13.879-10.884-.938-2.628-1.876-5.255-3.939-7.132-3.189-3.19-8.253-5.066-12.942-4.69-2.813.187-6.564 1.313-9.378 5.066-1.125 1.501-3.188 1.876-4.876.75-1.501-1.126-1.876-3.19-.751-4.879 3.376-4.691 8.441-7.506 14.443-7.881 6.752-.563 13.691 2.064 18.38 6.568 3.189 3.19 4.502 6.755 5.627 9.758 1.688 4.504 2.438 6.38 7.503 6.38a3.363 3.363 0 013.376 3.378c-.188 2.065-1.688 3.566-3.564 3.566z"/><path d="M200.01 140.194c-1.125 0-2.251-.563-2.813-1.502-1.126-1.501-.563-3.753.937-4.691 3.752-2.44 1.313-7.506-4.876-18.578-.938-1.502-1.688-3.003-2.626-4.692-8.065-14.637 3.751-27.398 11.254-32.09 1.688-.938 3.751-.563 4.689 1.126.937 1.69.562 3.754-1.126 4.692-.562.375-15.755 10.321-8.815 22.894.938 1.502 1.688 3.003 2.626 4.504 6.002 10.509 12.004 21.393 2.626 27.586-.563.563-1.126.751-1.876.751z"/><path d="M220.081 116.737c-.938 0-1.876 0-3.001-.188-10.879-1.501-12.942-16.89-12.567-19.892.188-1.876 1.876-3.19 3.752-3.002 1.875.187 3.188 1.876 3.001 3.753-.188 1.876 1.688 11.447 6.752 12.198 6.564.938 8.44-2.815 8.627-3.754.376-1.876 2.064-3.002 3.939-2.814 1.876.375 3.189 2.064 2.814 3.94-.751 4.129-4.877 9.759-13.317 9.759zM243.521 114.861c-1.313 0-2.439-.751-3.001-1.877-3.564-7.131-.938-12.197 1.688-17.827.75-1.69 1.688-3.566 2.438-5.63 1.688-4.129 1.125-7.694-1.125-10.697-3.189-3.94-8.253-5.442-9.566-5.067-1.688.939-3.564.188-4.501-1.5-.938-1.69 0-3.754 1.5-4.692 3.751-2.064 11.066.75 15.38 4.691 3.376 3.003 8.628 9.57 4.501 19.892-.937 2.252-1.875 4.316-2.813 6.005-2.626 5.255-3.564 7.882-1.688 11.823.938 1.689.188 3.753-1.5 4.691-.376 0-.751.188-1.313.188zM258.153 124.243c-1.313 0-2.626-.751-3.188-2.064-.751-1.689.187-3.753 1.875-4.504 8.253-3.378 12.192-6.193 11.629-12.573-.188-1.689-1.501-17.453 4.501-23.458 1.688-1.689 3.751-2.44 5.815-2.252 1.875.188 3.188 1.877 3.001 3.754-.188 1.876-1.876 3.377-3.752 3.002-2.438 2.44-3.751 10.51-3.001 18.203 1.126 12.386-9.94 17.077-15.755 19.517-.375.375-.75.375-1.125.375zM257.023 107.167c-.563 0-1.126-.187-1.688-.563-1.688-.938-2.063-3.002-1.126-4.691.188-.563.563-1.314.751-2.44 1.313-4.128 2.25-7.319 5.251-7.882 1.876-.375 3.752.751 4.127 2.628.187 1.313-.375 2.627-1.313 3.378-.375.75-.938 2.627-1.313 3.753-.563 1.876-.938 3.002-1.501 3.753-.937 1.314-2.063 2.064-3.188 2.064zM268.282 132.69c-1.313 0-2.626-.751-3.189-2.065-.75-1.689.188-3.753 1.876-4.504 2.626-1.126 4.126-2.814 5.814-5.066 2.251-2.815 5.065-6.381 11.067-8.07 1.875-.563 3.751.563 4.313 2.44.563 1.876-.562 3.753-2.438 4.316-3.751 1.126-5.439 3.19-7.502 5.817-2.063 2.628-4.314 5.443-8.628 7.319-.563-.375-.938-.187-1.313-.187zM265.654 79.957l-6.002-3.19c2.814-5.442 7.69-14.638 20.632-12.949 1.876.188 3.188 2.064 3.001 3.941-.188 1.877-2.063 3.19-3.939 3.003-7.502-1.126-10.316 3.002-13.692 9.195zM179.003 106.791c-.375 0-.938 0-1.313-.375-1.688-.751-2.438-2.815-1.688-4.504 1.125-2.44.938-3.19.938-3.19-.938-1.69-1.689-3.378-.376-6.38.751-1.69 2.626-2.628 4.502-1.877 1.688.75 2.626 2.627 1.875 4.504-.187.375-.187.563-.187.563 1.313 1.876 1.688 4.316-.375 9.383-.75 1.125-2.063 1.876-3.376 1.876zM126.864 94.218c-9.94 0-12.191-6.005-13.879-10.884-.938-2.628-1.876-5.255-3.939-7.132-3.188-3.19-8.253-5.066-12.942-4.69-2.813.187-6.564 1.313-9.378 5.066-1.125 1.501-3.188 1.876-4.876.75-1.5-1.126-1.876-3.19-.75-4.879 3.376-4.691 8.44-7.506 14.254-7.881 6.752-.563 13.692 2.064 18.381 6.568 3.189 3.19 4.502 6.755 5.439 9.758 1.688 4.504 2.439 6.38 7.503 6.38a3.363 3.363 0 013.376 3.378c.187 2.065-1.313 3.566-3.189 3.566z"/><path d="M97.22 140.194c-1.124 0-2.25-.563-2.813-1.502-1.125-1.501-.562-3.753.938-4.691 3.752-2.44 1.313-7.506-4.876-18.578-.938-1.502-1.688-3.003-2.626-4.692-8.065-14.637 3.751-27.398 11.254-32.09 1.5-.938 3.751-.563 4.689 1.126.937 1.69.562 3.754-1.126 4.692-.563.375-15.755 10.321-8.815 22.894.938 1.502 1.688 3.003 2.626 4.504 6.002 10.509 12.004 21.393 2.626 27.586-.563.563-1.313.751-1.876.751z"/><path d="M117.104 116.738c-.937 0-1.875 0-3.001-.188-10.878-1.501-12.941-16.89-12.566-19.892.187-1.877 1.875-3.19 3.751-3.002 1.876.187 3.189 1.876 3.001 3.753-.188 1.876 1.688 11.447 6.752 12.198 6.565.938 8.44-2.815 8.628-3.754.375-1.876 2.063-3.002 3.939-2.814 1.875.375 3.188 2.064 2.813 3.94-.563 4.129-4.877 9.759-13.317 9.759zM140.552 114.861c-1.313 0-2.438-.751-3.001-1.877-3.564-7.131-.938-12.197 1.688-17.827.75-1.69 1.688-3.566 2.438-5.63 1.688-4.129 1.126-7.694-1.125-10.697-3.189-3.94-8.253-5.442-9.566-5.067-1.688.939-3.563.188-4.501-1.5-.938-1.69 0-3.754 1.5-4.692 3.752-2.064 11.066.75 15.38 4.691 3.376 3.003 8.628 9.57 4.502 19.892-.938 2.252-1.876 4.316-2.814 6.005-2.626 5.255-3.563 7.882-1.688 11.823.938 1.689.188 3.753-1.5 4.691-.188 0-.75.188-1.313.188zM155.179 124.244c-1.313 0-2.626-.751-3.188-2.064-.751-1.689 0-3.753 1.875-4.504 8.065-3.378 12.192-6.193 11.629-12.573-.188-1.689-1.313-17.453 4.501-23.458 1.688-1.689 3.752-2.44 5.815-2.252 1.875.188 3.188 1.877 3.001 3.754-.188 1.876-1.876 3.377-3.751 3.002-2.439 2.44-3.752 10.51-3.001 18.203 1.125 12.386-9.941 17.077-15.755 19.517-.188.375-.751.375-1.126.375zM154.054 107.167c-.563 0-1.125-.187-1.688-.563-1.688-.938-2.063-3.002-1.125-4.691.187-.563.562-1.314.75-2.44 1.313-4.128 2.251-7.319 5.252-7.882 1.875-.375 3.751.751 4.126 2.628.187 1.313-.375 2.627-1.313 3.378-.375.75-.938 2.627-1.313 3.753-.563 1.876-.938 3.002-1.5 3.753-.938 1.314-2.064 2.064-3.189 2.064zM165.309 132.689c-1.313 0-2.625-.751-3.188-2.065-.75-1.689.187-3.753 1.875-4.504 2.814-1.125 4.127-2.814 5.815-5.066 2.251-2.815 5.064-6.381 11.066-8.07 1.875-.563 3.751.563 4.314 2.44.562 1.876-.563 3.753-2.439 4.316-3.751 1.126-5.439 3.19-7.502 5.817-2.063 2.628-4.314 5.443-8.628 7.319-.375-.375-.938-.187-1.313-.187zM162.869 79.957l-6.002-3.19c2.814-5.442 7.69-14.638 20.632-12.949 1.875.188 3.188 2.064 3.001 3.941-.188 1.877-2.063 3.19-3.939 3.003-7.69-1.126-10.503 3.002-13.692 9.195zM76.218 106.791c-.376 0-.938 0-1.313-.375-1.688-.751-2.439-2.815-1.688-4.504 1.125-2.44.937-3.19.937-3.19-.937-1.69-1.688-3.378-.375-6.38.75-1.69 2.626-2.628 4.502-1.877 1.688.75 2.626 2.627 1.875 4.504-.187.375-.187.563-.187.563 1.313 1.876 1.688 4.316-.375 9.383-.938 1.125-2.063 1.876-3.376 1.876zM62.528 132.689c-1.313 0-2.626-.751-3.188-2.065-.75-1.689.187-3.753 1.875-4.504 2.626-1.125 4.126-2.814 5.814-5.066 2.251-2.815 5.065-6.381 11.067-8.07 1.875-.563 3.75.563 4.313 2.44.563 1.876-.562 3.753-2.438 4.316-3.939 1.126-5.439 3.19-7.502 5.817-2.063 2.628-4.314 5.443-8.628 7.319-.563-.375-.938-.187-1.313-.187zM332.614 341.364c-9.94 0-12.191-6.005-13.879-10.884-.938-2.627-1.876-5.254-3.939-7.131-3.188-3.19-8.253-5.067-12.942-4.692-2.813.188-6.564 1.314-9.378 5.067-1.125 1.502-3.188 1.877-4.876.751-1.501-1.126-1.876-3.19-.75-4.879 3.376-4.692 8.44-7.507 14.254-7.882 6.565-.563 13.692 2.064 18.381 6.568 3.189 3.19 4.502 6.756 5.627 9.758 1.688 4.504 2.438 6.381 7.502 6.381a3.362 3.362 0 013.376 3.378c.188 1.876-1.5 3.565-3.376 3.565zM281.971 353.939c-.375 0-.937 0-1.312-.376-1.689-.75-2.439-2.815-1.688-4.504 1.125-2.439.937-3.19.937-3.19-.937-1.689-1.688-3.378-.375-6.38.75-1.689 2.626-2.627 4.502-1.877 1.688.751 2.625 2.627 1.875 4.504-.187.375-.187.563-.187.563 1.313 1.877 1.688 4.316-.375 9.383-.751 1.126-2.064 1.877-3.377 1.877zM229.833 341.364c-9.941 0-12.191-6.005-13.879-10.884-.938-2.627-1.876-5.254-3.939-7.131-3.189-3.19-8.253-5.067-12.942-4.692-2.813.188-6.564 1.314-9.378 5.067-1.125 1.502-3.188 1.877-4.876.751-1.501-1.126-1.876-3.19-.751-4.879 3.376-4.692 8.441-7.507 14.443-7.882 6.752-.563 13.691 2.064 18.38 6.568 3.189 3.19 4.502 6.756 5.627 9.758 1.688 4.504 2.438 6.381 7.503 6.381a3.363 3.363 0 013.376 3.378c-.188 1.876-1.688 3.565-3.564 3.565z"/><path d="M200.01 387.341c-1.125 0-2.251-.563-2.813-1.501-1.126-1.501-.563-3.753.937-4.692 3.752-2.439 1.313-7.506-4.876-18.578-.938-1.501-1.688-3.003-2.626-4.692-8.065-14.637 3.751-27.398 11.254-31.902 1.688-.938 3.751-.563 4.689 1.126.937 1.689.562 3.753-1.126 4.692-.562.375-15.755 10.321-8.815 22.894.938 1.502 1.688 3.003 2.626 4.504 6.002 10.509 12.004 21.393 2.626 27.586-.563.375-1.126.563-1.876.563z"/><path d="M220.081 363.696c-.938 0-1.876 0-3.001-.188-10.879-1.501-12.942-16.889-12.567-19.892.188-1.876 2.064-3.19 3.752-3.002 1.875.187 3.188 1.876 3.001 3.753-.188 1.876 1.688 11.447 6.752 12.198 6.564.938 8.44-2.815 8.627-3.754.376-1.876 2.064-3.002 3.939-2.814 1.876.375 3.189 2.064 2.814 3.94-.751 4.317-4.877 9.759-13.317 9.759zM243.521 361.818c-1.313 0-2.439-.751-3.001-1.877-3.564-7.131-.938-12.198 1.688-17.827.75-1.689 1.688-3.566 2.438-5.63 1.688-4.129 1.125-7.694-1.125-10.697-3.189-3.941-8.253-5.442-9.566-5.066-1.688.938-3.564.187-4.501-1.502-.938-1.689 0-3.753 1.5-4.691 3.751-2.064 11.066.75 15.38 4.691 3.376 3.003 8.628 9.571 4.501 19.892-.937 2.252-1.875 4.316-2.813 6.005-2.626 5.255-3.564 7.882-1.688 11.823.938 1.689.188 3.753-1.5 4.691-.376.188-.751.188-1.313.188zM258.153 371.39c-1.313 0-2.626-.751-3.188-2.065-.751-1.689.187-3.753 1.875-4.504 8.253-3.377 12.192-6.192 11.629-12.573-.188-1.689-1.501-17.452 4.501-23.457 1.688-1.689 3.751-2.44 5.815-2.252 1.875.188 3.188 1.876 3.001 3.753-.188 1.877-1.876 3.378-3.752 3.003-2.438 2.439-3.751 10.509-3.001 18.203 1.126 12.385-9.94 17.077-15.755 19.516-.375.188-.75.376-1.125.376zM257.023 354.125c-.563 0-1.126-.187-1.688-.563-1.688-.938-2.063-3.002-1.126-4.691.188-.563.563-1.314.751-2.44 1.313-4.128 2.25-7.319 5.251-7.882 1.876-.375 3.564.751 3.939 2.628.188 1.313-.375 2.627-1.313 3.378-.375.75-.938 2.627-1.313 3.753-.562 1.876-.938 3.002-1.5 3.753-.75 1.501-1.876 2.064-3.001 2.064zM268.282 379.648c-1.313 0-2.626-.751-3.189-2.065-.75-1.689.188-3.753 1.876-4.504 2.626-1.125 4.126-2.814 5.814-5.066 2.251-2.815 5.065-6.381 11.067-8.07 1.875-.563 3.751.563 4.313 2.44.563 1.876-.562 3.753-2.438 4.316-3.751 1.126-5.439 3.19-7.502 5.818-2.063 2.627-4.314 5.442-8.628 7.318-.563-.187-.938-.187-1.313-.187zM265.65 327.102l-6.002-3.191c2.814-5.442 7.69-14.637 20.632-12.948 1.876.187 3.189 2.064 3.001 3.941-.188 1.876-1.876 3.19-3.939 3.002-7.502-1.126-10.316 3.003-13.692 9.196zM179.003 353.937c-.375 0-.938 0-1.313-.376-1.688-.75-2.438-2.815-1.688-4.504 1.125-2.439.938-3.19.938-3.19-.938-1.689-1.689-3.378-.376-6.38.751-1.689 2.626-2.627 4.502-1.877 1.688.751 2.626 2.627 1.875 4.504-.187.375-.187.563-.187.563 1.313 1.877 1.688 4.316-.375 9.383-.75 1.126-2.063 1.877-3.376 1.877zM253.093 313.028c-.751 0-1.501 0-2.251-.188-12.379-1.314-18.569-11.072-19.319-12.949-.75-1.689.188-3.753 1.876-4.503 1.688-.751 3.751.187 4.501 1.876.563 1.314 5.439 7.882 13.88 8.82 8.44.939 16.317-6.38 16.317-6.568a3.35 3.35 0 014.877.188c1.313 1.313 1.313 3.565 0 4.879-.563.375-9.19 8.445-19.881 8.445zM219.332 312.089c-4.501 0-9.003-3.378-9.94-4.128-1.501-1.126-1.688-3.378-.563-4.879 1.125-1.502 3.376-1.689 4.876-.563 1.501 1.126 4.314 2.815 5.815 2.627 2.251-2.627-.188-5.63-.188-5.818-1.125-1.501-.938-3.565.375-4.879 1.501-1.126 3.564-.938 4.877.376 2.063 2.439 4.876 8.632.938 13.886-1.313 1.689-3.001 2.815-5.064 3.003-.375.375-.751.375-1.126.375zM126.864 341.364c-9.94 0-12.191-6.005-13.879-10.884-.938-2.627-1.876-5.254-3.939-7.131-3.188-3.19-8.253-5.067-12.942-4.692-2.813.188-6.564 1.314-9.378 5.067-1.125 1.502-3.188 1.877-4.876.751-1.5-1.126-1.876-3.19-.75-4.879 3.376-4.692 8.44-7.507 14.254-7.882 6.752-.563 13.692 2.064 18.381 6.568 3.189 3.19 4.502 6.756 5.439 9.758 1.688 4.504 2.439 6.381 7.503 6.381a3.363 3.363 0 013.376 3.378c.187 1.876-1.313 3.565-3.189 3.565z"/><path d="M97.22 387.341c-1.124 0-2.25-.563-2.813-1.501-1.125-1.501-.562-3.753.938-4.692 3.752-2.439 1.313-7.506-4.876-18.578-.938-1.501-1.688-3.003-2.626-4.692-8.065-14.637 3.751-27.398 11.254-31.902 1.5-.938 3.751-.563 4.689 1.126.937 1.689.562 3.753-1.126 4.692-.563.375-15.755 10.321-8.815 22.894.938 1.502 1.688 3.003 2.626 4.504 6.002 10.509 12.004 21.393 2.626 27.586-.563.375-1.313.563-1.876.563z"/><path d="M117.104 363.695c-.937 0-1.875 0-3.001-.188-10.878-1.501-12.941-16.889-12.566-19.892.187-1.876 2.063-3.19 3.751-3.002 1.876.187 3.189 1.876 3.001 3.753-.188 1.876 1.688 11.447 6.752 12.198 6.565.938 8.44-2.815 8.628-3.754.375-1.876 2.063-3.002 3.939-2.814 1.875.375 3.188 2.064 2.813 3.94-.563 4.317-4.877 9.759-13.317 9.759zM140.552 361.818c-1.313 0-2.438-.751-3.001-1.877-3.564-7.131-.938-12.198 1.688-17.827.75-1.689 1.688-3.566 2.438-5.63 1.688-4.129 1.126-7.694-1.125-10.697-3.189-3.941-8.253-5.442-9.566-5.066-1.688.938-3.563.187-4.501-1.502-.938-1.689 0-3.753 1.5-4.691 3.752-2.064 11.066.75 15.38 4.691 3.376 3.003 8.628 9.571 4.502 19.892-.938 2.252-1.876 4.316-2.814 6.005-2.626 5.255-3.563 7.882-1.688 11.823.938 1.689.188 3.753-1.5 4.691-.188.188-.75.188-1.313.188zM155.179 371.389c-1.313 0-2.626-.751-3.188-2.065-.751-1.689 0-3.753 1.875-4.504 8.065-3.377 12.192-6.192 11.629-12.573-.188-1.689-1.313-17.452 4.501-23.457 1.688-1.689 3.752-2.44 5.815-2.252 1.875.188 3.188 1.877 3.001 3.753-.188 1.877-1.876 3.378-3.751 3.003-2.439 2.439-3.752 10.509-3.001 18.203 1.125 12.385-9.941 17.077-15.755 19.516-.188.188-.751.376-1.126.376zM154.054 354.125c-.563 0-1.125-.187-1.688-.563-1.688-.938-2.063-3.002-1.125-4.691.187-.563.562-1.314.75-2.44 1.313-4.128 2.251-7.319 5.252-7.882 1.875-.375 3.751.751 3.938 2.628.188 1.313-.375 2.627-1.313 3.378-.375.75-.937 2.627-1.312 3.753-.563 1.876-.938 3.002-1.501 3.753-.75 1.501-1.876 2.064-3.001 2.064zM165.309 379.647c-1.313 0-2.625-.751-3.188-2.065-.75-1.689.187-3.753 1.875-4.504 2.814-1.125 4.127-2.814 5.815-5.066 2.251-2.815 5.064-6.381 11.066-8.07 1.875-.563 3.751.563 4.314 2.44.562 1.877-.563 3.753-2.439 4.316-3.751 1.126-5.439 3.19-7.502 5.818-2.063 2.627-4.314 5.442-8.628 7.318-.375-.187-.938-.187-1.313-.187zM162.865 327.102l-6.002-3.191c2.814-5.442 7.69-14.637 20.632-12.948 1.875.187 3.188 2.064 3.001 3.941-.188 1.876-1.876 3.19-3.939 3.002-7.69-1.126-10.503 3.003-13.692 9.196zM76.218 353.937c-.376 0-.938 0-1.313-.376-1.688-.75-2.439-2.815-1.688-4.504 1.125-2.439.937-3.19.937-3.19-.937-1.689-1.688-3.378-.375-6.38.75-1.689 2.626-2.627 4.502-1.877 1.688.751 2.626 2.627 1.875 4.504-.187.375-.187.563-.187.563 1.313 1.877 1.688 4.316-.375 9.383-.938 1.126-2.063 1.877-3.376 1.877zM150.304 313.028c-.751 0-1.501 0-2.251-.188-12.379-1.314-18.569-11.072-19.319-12.949-.75-1.689.188-3.753 1.876-4.503 1.688-.751 3.751.187 4.501 1.876.563 1.314 5.439 7.882 13.88 8.82 8.44.939 16.317-6.38 16.317-6.568a3.35 3.35 0 014.877.188c1.313 1.313 1.313 3.565 0 4.879-.75.375-9.191 8.445-19.881 8.445zM116.543 312.089c-4.501 0-9.003-3.378-9.94-4.128-1.501-1.126-1.689-3.378-.563-4.879 1.125-1.502 3.376-1.689 4.876-.563 1.501 1.126 4.314 2.815 5.815 2.627 2.25-2.627-.188-5.63-.188-5.818-1.125-1.501-.938-3.565.375-4.879 1.501-1.126 3.564-.938 4.877.376 2.063 2.439 4.876 8.632.938 13.886-1.313 1.689-3.001 2.815-5.064 3.003-.563.375-.938.375-1.126.375zM62.528 379.647c-1.313 0-2.626-.751-3.188-2.065-.75-1.689.187-3.753 1.875-4.504 2.626-1.125 4.126-2.814 5.814-5.066 2.251-2.815 5.065-6.381 11.067-8.07 1.875-.563 3.75.563 4.313 2.44.563 1.877-.562 3.753-2.438 4.316-3.939 1.126-5.439 3.19-7.502 5.818-2.063 2.627-4.314 5.442-8.628 7.318-.563-.187-.938-.187-1.313-.187zM281.224 217.697c-9.941 0-12.192-6.005-13.88-10.884-.938-2.627-1.875-5.254-3.939-7.131-3.188-3.19-8.252-5.067-12.941-4.691-2.814.187-6.565 1.313-9.378 5.066-1.126 1.502-3.189 1.877-4.877.751-1.5-1.126-1.875-3.19-.75-4.879 3.376-4.692 8.44-7.507 14.255-7.882 6.752-.563 13.691 2.064 18.38 6.568 3.189 3.19 4.502 6.756 5.627 9.759 1.688 4.503 2.439 6.38 7.503 6.38a3.363 3.363 0 013.376 3.378c0 2.064-1.501 3.565-3.376 3.565z"/><path d="M251.592 263.862c-1.125 0-2.251-.563-2.813-1.502-1.126-1.501-.563-3.753.937-4.691 3.752-2.44 1.313-7.506-4.876-18.578-.938-1.502-1.688-3.003-2.626-4.692-8.065-14.637 3.751-27.398 11.254-32.09 1.5-.938 3.751-.563 4.689 1.126.937 1.689.562 3.753-1.126 4.692-.562.375-15.755 10.321-8.815 22.894.938 1.502 1.688 3.003 2.626 4.504 6.002 10.509 12.004 21.393 2.626 27.586-.563.563-1.313.751-1.876.751z"/><path d="M271.472 240.216c-.938 0-1.876 0-3.001-.187-10.879-1.502-12.942-16.89-12.567-19.892.188-1.877 2.063-3.191 3.751-3.003 1.876.188 3.189 1.877 3.001 3.753-.187 1.877 1.688 11.447 6.752 12.198 6.565.938 8.441-2.815 8.628-3.753.375-1.877 2.063-3.003 3.939-2.815 1.875.375 3.188 2.064 2.813 3.941-.562 4.128-4.876 9.758-13.316 9.758zM294.911 238.34c-1.313 0-2.438-.751-3.001-1.877-3.563-7.131-.938-12.198 1.688-17.828.751-1.689 1.688-3.565 2.439-5.63 1.688-4.128 1.312-7.694-1.126-10.696-3.188-3.941-8.44-5.255-9.565-5.067-1.688.938-3.564.188-4.502-1.501-.938-1.689 0-3.753 1.501-4.692 3.751-2.064 11.066.751 15.38 4.692 3.376 3.002 8.627 9.57 4.501 19.892-.938 2.252-1.876 4.316-2.813 6.005-2.626 5.254-3.564 7.882-1.688 11.822.937 1.689.187 3.754-1.501 4.692-.187 0-.75.188-1.313.188zM285.726 287.318c-.751 0-1.313-.188-2.064-.563-5.251-3.753-7.127-10.321-8.815-21.768-1.125-8.07-4.877-10.697-7.315-12.386-.75-.563-1.313-.938-1.875-1.501-1.313-1.314-1.313-3.566 0-4.879 1.312-1.314 3.563-1.314 4.876 0 .188.187.563.375.938.75 2.813 1.877 8.44 6.005 10.128 17.077 1.688 10.885 3.001 15.013 6.002 17.077 1.501 1.126 1.876 3.191.75 4.692-.375.938-1.5 1.501-2.625 1.501zM322.3 269.491c-.563 0-1.126-.187-1.689-.562-3.938-2.252-6.189-2.628-12.003-3.566-1.688-.188-3.752-.563-6.002-.938-6.002-.939-11.066-5.067-14.255-11.26-.938-1.877-3.001-6.568-1.688-9.383.938-1.689 2.814-2.439 4.689-1.501 1.501.75 2.251 2.439 1.876 3.941.187 1.876 3.376 10.321 10.691 11.447 2.25.375 4.126.751 5.814.938 6.189.939 9.378 1.314 14.442 4.316 1.688.939 2.063 3.003 1.125 4.692-.562 1.314-1.688 1.876-3 1.876zM244.089 287.883h-.751c-1.875-.376-3.001-2.252-2.626-4.129.751-3.378 4.502-4.691 9.191-6.38 2.251-.751 4.876-1.689 7.127-2.815 4.877-2.628 3.189-9.759 3.189-9.759-.563-1.876.562-3.753 2.438-4.128 1.876-.563 3.751.563 4.126 2.439 1.126 4.317 1.313 13.512-6.564 17.64-2.626 1.314-5.627 2.44-8.065 3.191-1.688.563-4.127 1.501-4.877 1.876-.563 1.126-1.876 2.065-3.188 2.065zM230.21 260.86c-.563 0-1.313 0-1.876-.188-1.875-.375-3.001-2.252-2.625-3.941.375-1.877 2.063-3.19 4.126-2.627 3.001.563 7.502-4.692 8.253-6.193.937-1.689 3.001-2.44 4.689-1.501 1.688.938 2.438 2.815 1.5 4.691-1.313 1.877-6.94 9.759-14.067 9.759zM230.585 230.458c-.375 0-.938 0-1.313-.375-1.688-.751-2.438-2.815-1.688-4.504 1.125-2.44.938-3.19.938-3.19-.938-1.689-1.688-3.378-.376-6.381.751-1.689 2.626-2.627 4.502-1.876 1.688.75 2.626 2.627 1.875 4.504-.187.375-.187.563-.187.563 1.313 1.876 1.688 4.316-.375 9.383-.938 1.125-2.063 1.876-3.376 1.876zM304.675 189.548c-.751 0-1.501 0-2.251-.188-12.192-1.313-18.569-11.071-19.319-12.948-.75-1.689.188-3.753 1.876-4.504 1.688-.751 3.751.188 4.501 1.877.563 1.313 5.439 7.881 13.88 8.82 8.627.938 16.317-6.381 16.317-6.568 1.313-1.314 3.564-1.314 4.877.187 1.313 1.314 1.313 3.566 0 4.879-.75.376-9.19 8.445-19.881 8.445z"/><path d="M286.479 301.956c-3.189 0-6.377-.75-9.378-3.19-7.878-6.193-9.566-10.321-9.566-15.576a3.364 3.364 0 013.376-3.378 3.363 3.363 0 013.376 3.378c0 2.628 0 5.067 6.752 10.134 5.44 4.129 13.692-.751 13.88-.751 1.688-.938 3.751-.375 4.689 1.126.938 1.689.563 3.754-1.125 4.692-.188.375-5.627 3.565-12.004 3.565zM270.723 188.61c-4.502 0-9.003-3.378-9.941-4.129-1.5-1.126-1.688-3.378-.562-4.879 1.125-1.501 3.376-1.689 4.876-.563 1.501 1.126 4.314 2.815 5.814 2.627 2.251-2.627-.187-5.629-.187-5.817-1.125-1.501-.938-3.566.375-4.879 1.501-1.126 3.564-.939 4.877.375 2.063 2.44 4.876 8.632.937 13.887-1.313 1.689-3.001 2.815-5.064 3.002-.375.376-.75.376-1.125.376zM178.251 217.697c-9.941 0-12.191-6.005-13.879-10.884-.938-2.627-1.876-5.254-3.939-7.131-3.189-3.19-8.253-5.067-12.942-4.691-2.813.187-6.564 1.313-9.378 5.066-1.125 1.502-3.188 1.877-4.876.751-1.501-1.126-1.876-3.19-.751-4.879 3.376-4.692 8.441-7.507 14.255-7.882 6.565-.563 13.692 2.064 18.381 6.568 3.188 3.19 4.501 6.756 5.439 9.759 1.688 4.503 2.438 6.38 7.502 6.38a3.363 3.363 0 013.377 3.378c.375 2.064-1.126 3.565-3.189 3.565z"/><path d="M148.615 263.862c-1.125 0-2.25-.563-2.813-1.502-1.125-1.501-.563-3.753.938-4.691 3.751-2.44 1.313-7.506-4.877-18.578-.938-1.502-1.688-3.003-2.626-4.692-8.065-14.637 3.752-27.398 11.254-32.09 1.688-.938 3.751-.563 4.689 1.126.938 1.689.563 3.753-1.125 4.692-.563.375-15.755 10.321-8.816 22.894.938 1.502 1.688 3.003 2.626 4.504 6.002 10.509 12.004 21.393 2.626 27.586-.563.563-1.313.751-1.876.751z"/><path d="M168.499 240.216c-.938 0-1.876 0-3.001-.187-10.879-1.502-12.942-16.89-12.567-19.892.188-1.877 2.064-3.191 3.752-3.003 1.875.188 3.188 1.877 3.001 3.753-.188 1.877 1.688 11.447 6.752 12.198 6.564.938 8.44-2.815 8.627-3.753.376-1.877 2.064-3.003 3.939-2.815 1.876.375 3.189 2.064 2.814 3.941-.563 4.128-4.877 9.758-13.317 9.758zM192.126 238.34c-1.313 0-2.438-.751-3.001-1.877-3.564-7.131-.938-12.198 1.688-17.828.75-1.689 1.688-3.565 2.438-5.63 1.688-4.128 1.126-7.694-1.125-10.696-3.188-3.941-8.253-5.255-9.565-5.067-1.689.938-3.564.188-4.502-1.501-.938-1.689 0-3.753 1.501-4.692 3.751-2.064 11.066.751 15.379 4.692 3.377 3.002 8.628 9.57 4.502 19.892-.938 2.252-1.876 4.316-2.813 6.005-2.626 5.254-3.564 7.882-1.689 11.822.938 1.689.188 3.754-1.5 4.692-.375 0-.938.188-1.313.188zM182.936 287.318c-.75 0-1.313-.188-2.063-.563-5.251-3.753-7.127-10.321-8.815-21.768-1.125-8.07-4.877-10.697-7.315-12.386-.75-.563-1.313-.938-1.875-1.501-1.313-1.314-1.313-3.566 0-4.879 1.312-1.314 3.563-1.314 4.876 0 .188.187.563.375.938.75 2.813 1.877 8.44 6.005 10.128 17.077 1.501 10.885 3.001 15.013 6.002 17.077 1.5 1.126 1.876 3.191.75 4.692-.562.938-1.5 1.501-2.626 1.501zM219.514 269.491c-.562 0-1.125-.187-1.688-.562-3.938-2.252-6.189-2.628-12.003-3.566-1.689-.188-3.752-.563-6.002-.938-6.002-.939-11.066-5.067-14.255-11.26-.938-1.877-3.001-6.568-1.688-9.383.938-1.689 3.001-2.439 4.689-1.501 1.501.75 2.251 2.439 1.876 3.941.187 1.876 3.376 10.321 10.691 11.447 2.25.375 4.126.751 5.814.938 6.189.939 9.378 1.314 14.442 4.316 1.688.939 2.063 3.003 1.125 4.692-.75 1.314-1.875 1.876-3.001 1.876zM206.571 247.723c-1.313 0-2.626-.751-3.188-2.065-.751-1.689.187-3.753 1.875-4.504 8.253-3.377 12.192-6.192 11.629-12.573-.188-1.689-1.313-17.452 4.501-23.457 1.688-1.689 3.752-2.44 5.815-2.252 1.875.188 3.188 1.876 3.001 3.753-.188 1.877-1.876 3.378-3.752 3.003-2.438 2.439-3.751 10.509-3.001 18.203 1.126 12.385-9.94 17.077-15.755 19.516-.187.376-.562.376-1.125.376zM205.449 230.646c-.563 0-1.126-.188-1.688-.563-1.688-.939-2.064-3.003-1.126-4.692.188-.563.563-1.313.75-2.439 1.313-4.129 2.251-7.319 5.252-7.882 1.876-.375 3.751.751 3.939 2.627.187 1.314-.375 2.627-1.313 3.378-.375.751-.938 2.627-1.313 3.753-.563 1.877-.938 3.003-1.5 3.753-.751 1.502-1.876 2.065-3.001 2.065zM208.067 298.766c-1.5 0-2.813-.938-3.376-2.44 0 0-1.688-6.005-4.314-11.447-2.25-4.504-5.814-6.756-9.94-9.195l-.938-.563c-1.688-.938-2.063-3.19-1.126-4.692.938-1.689 3.189-2.064 4.689-1.126l.938.563c4.314 2.628 9.378 5.818 12.379 12.011 3.001 6.005 4.689 12.385 4.877 12.573.562 1.876-.563 3.753-2.438 4.128-.188 0-.376.188-.751.188zM216.7 256.168c-1.313 0-2.626-.751-3.189-2.064-.75-1.689.188-3.753 1.876-4.504 2.813-1.126 4.126-2.815 5.814-5.067 2.251-2.815 5.065-6.38 11.066-8.069 1.876-.563 3.752.563 4.314 2.439.563 1.877-.562 3.754-2.438 4.317-3.751 1.126-5.439 3.19-7.502 5.817-2.064 2.627-4.314 5.442-8.628 7.319-.375-.376-.75-.188-1.313-.188zM141.112 287.883h-.75c-1.876-.376-3.001-2.252-2.626-4.129.75-3.378 4.501-4.691 9.19-6.38 2.251-.751 4.877-1.689 7.128-2.815 4.876-2.628 3.188-9.759 3.188-9.759-.562-1.876.563-3.753 2.438-4.128 1.876-.563 3.752.563 4.127 2.439 1.125 4.317 1.313 13.512-6.565 17.64-2.626 1.314-5.627 2.44-8.065 3.191-1.688.563-4.126 1.501-4.876 1.876-.563 1.126-1.688 2.065-3.189 2.065zM226.266 290.134c-.187 0-.563 0-.75-.188-3.939-.938-9.378-4.129-11.816-7.694-1.126-1.502-.563-3.753.937-4.692 1.501-1.126 3.752-.563 4.689.939 1.126 1.688 5.065 4.128 7.69 4.879 1.876.375 3.001 2.252 2.439 4.128-.188 1.502-1.501 2.628-3.189 2.628zM127.233 260.86c-.562 0-1.312 0-1.875-.188-1.876-.375-3.001-2.252-2.626-3.941.375-1.877 2.063-3.19 3.939-2.627 3.188.563 7.502-4.692 8.252-6.193.938-1.689 3.001-2.44 4.689-1.501 1.688.938 2.439 2.815 1.501 4.691-1.125 1.877-6.565 9.759-13.88 9.759zM214.264 203.622l-6.002-3.19c2.813-5.442 7.69-14.638 20.631-12.949 1.876.188 3.189 2.065 3.001 3.941-.187 1.877-1.875 3.19-3.938 3.003-7.69-1.126-10.316 2.815-13.692 9.195zM127.608 230.458c-.375 0-.938 0-1.313-.375-1.688-.751-2.438-2.815-1.688-4.504 1.126-2.44.938-3.19.938-3.19-.938-1.689-1.688-3.378-.375-6.381.75-1.689 2.626-2.627 4.501-1.876 1.688.75 2.626 2.627 1.876 4.504-.188.375-.188.563-.188.563 1.313 1.876 1.688 4.316-.375 9.383-.75 1.125-2.063 1.876-3.376 1.876zM201.698 189.549c-.75 0-1.5 0-2.251-.188-12.191-1.313-18.568-11.072-19.318-12.948-.751-1.689.187-3.753 1.875-4.504 1.688-.751 3.751.188 4.502 1.877.562 1.313 5.439 7.881 13.879 8.82 8.628.938 16.318-6.381 16.318-6.568a3.348 3.348 0 014.876.187c1.313 1.314 1.313 3.566 0 4.879-.562.376-9.19 8.445-19.881 8.445z"/><path d="M183.502 301.956c-3.188 0-6.377-.75-9.378-3.19-7.877-6.193-9.565-10.321-9.565-15.576 0-1.876 1.5-3.378 3.376-3.378a3.364 3.364 0 013.376 3.378c0 2.628 0 5.067 6.752 10.134 5.439 4.129 13.692-.751 13.879-.751 1.688-.938 3.752-.375 4.689 1.126.938 1.689.563 3.754-1.125 4.692-.188.375-5.627 3.565-12.004 3.565zM236.206 282.441c-.937 0-1.688-.376-2.438-.939-1.688-1.501-6.94-7.131-4.689-12.01 2.063-4.691 8.816-4.691 13.505-4.128 1.875.187 3.376 1.876 3.188 3.753-.188 1.877-1.876 3.19-3.751 3.19-5.627-.563-6.94.375-6.94.375.188.188 1.688 2.44 3.376 3.941 1.313 1.314 1.501 3.566.188 4.879-.563.563-1.501.939-2.439.939zM167.93 188.61c-4.502 0-9.003-3.378-9.941-4.129-1.5-1.126-1.688-3.378-.562-4.879 1.125-1.501 3.376-1.689 4.876-.563 1.501 1.126 4.314 2.815 5.814 2.627 2.251-2.627-.187-5.629-.187-5.817-1.125-1.501-.938-3.566.375-4.879 1.501-1.126 3.564-.939 4.877.375 2.063 2.44 4.876 8.632.937 13.887-1.313 1.689-3.001 2.815-5.064 3.002-.375.376-.75.376-1.125.376zM89.157 238.338c-1.313 0-2.438-.751-3-1.877-3.564-7.131-.938-12.198 1.687-17.828.75-1.689 1.689-3.565 2.439-5.629 1.688-4.129 1.313-7.695-1.126-10.697-3.188-3.941-8.252-5.255-9.565-5.067-1.688.938-3.564.188-4.502-1.501-.938-1.689 0-3.753 1.5-4.692 3.752-2.064 11.067.751 15.38 4.692 3.377 3.002 8.628 9.57 4.502 19.892-.938 2.252-1.875 4.316-2.813 6.005-2.626 5.254-3.564 7.882-1.688 11.822.75 1.689.187 3.754-1.5 4.692-.188 0-.751.188-1.314.188zM79.968 287.318c-.75 0-1.313-.188-2.064-.563-5.251-3.753-7.127-10.321-8.815-21.768-1.125-8.07-4.876-10.697-7.315-12.386-.75-.563-1.313-.938-1.875-1.501-1.313-1.314-1.313-3.566 0-4.879 1.313-1.314 3.563-1.314 4.876 0 .188.187.563.375.938.75 2.814 1.877 8.44 6.005 10.128 17.077 1.5 10.885 3.001 15.013 6.002 17.077 1.5 1.126 1.876 3.191.75 4.692-.375.938-1.5 1.501-2.625 1.501zM116.542 269.491c-.563 0-1.126-.188-1.688-.563-3.939-2.252-6.19-2.628-12.004-3.566-1.688-.188-3.751-.563-6.002-.938-6.002-.939-11.066-5.067-14.255-11.26-.937-1.877-3-6.568-1.688-9.383.938-1.689 3.001-2.439 4.69-1.501 1.5.75 2.25 2.439 1.875 3.941.188 1.876 3.376 10.321 10.69 11.447 2.252.375 4.127.751 5.815.938 6.19.939 9.378 1.314 14.442 4.316 1.688.939 2.064 3.003 1.126 4.692-.563 1.314-1.876 1.877-3.001 1.877zM103.786 247.722c-1.313 0-2.626-.751-3.189-2.065-.75-1.689.188-3.753 1.876-4.503 8.065-3.378 12.191-6.193 11.629-12.574-.188-1.689-1.313-17.452 4.501-23.457 1.688-1.689 3.751-2.44 5.815-2.252 1.875.188 3.188 1.877 3 3.753-.187 1.877-1.875 3.378-3.751 3.003-2.438 2.439-3.751 10.509-3.001 18.203 1.126 12.385-9.94 17.077-15.755 19.516-.375.376-.75.376-1.125.376zM102.663 230.644c-.562 0-1.125-.188-1.688-.563-1.688-.939-2.063-3.003-1.125-4.692.188-.563.563-1.313.75-2.439 1.313-4.129 2.251-7.319 5.252-7.882 1.876-.375 3.751.751 4.126 2.627.188 1.314-.375 2.627-1.313 3.378-.375.751-.937 2.627-1.313 3.753-.562 1.877-.937 3.003-1.5 3.753-.938 1.502-2.063 2.065-3.189 2.065zM105.099 298.765c-1.501 0-2.814-.938-3.377-2.44 0 0-1.688-6.005-4.313-11.447-2.251-4.504-5.815-6.756-9.941-9.195l-.938-.563c-1.688-.938-2.063-3.19-1.125-4.692.938-1.689 3.188-2.064 4.689-1.126l.938.563c4.313 2.628 9.378 5.818 12.378 12.011 3.001 6.005 4.689 12.385 4.877 12.573.563 1.876-.563 3.753-2.438 4.128 0 0-.375.188-.75.188zM113.923 256.167c-1.313 0-2.626-.751-3.189-2.064-.75-1.689.188-3.753 1.876-4.504 2.626-1.126 4.126-2.815 5.814-5.067 2.251-2.815 5.064-6.38 11.066-8.069 1.876-.563 3.751.563 4.314 2.439.563 1.877-.563 3.754-2.438 4.317-3.751 1.126-5.44 3.19-7.503 5.817-2.063 2.627-4.314 5.442-8.627 7.319-.563-.376-.938-.188-1.313-.188zM123.485 290.134c-.188 0-.563 0-.75-.188-3.939-.938-9.378-4.129-11.817-7.694-1.125-1.502-.562-3.753.938-4.692 1.501-1.126 3.751-.563 4.689.939 1.125 1.688 5.064 4.128 7.69 4.879 1.876.375 3.001 2.252 2.438 4.128-.187 1.502-1.688 2.628-3.188 2.628zM111.291 203.622l-6.002-3.19c2.813-5.442 7.69-14.638 20.632-12.949 1.875.188 3.188 2.065 3.001 3.941-.188 1.877-1.876 3.19-3.939 3.003-7.503-1.126-10.316 2.815-13.692 9.195zM98.722 189.547c-.75 0-1.501 0-2.251-.188-12.192-1.313-18.569-11.071-19.319-12.948-.75-1.689.188-3.753 1.876-4.504 1.688-.751 3.75.188 4.501 1.877.563 1.313 5.44 7.881 13.692 8.82 8.628.938 16.318-6.381 16.318-6.568a3.348 3.348 0 014.876.187c1.313 1.314 1.313 3.566 0 4.879-.375.376-9.003 8.445-19.694 8.445z"/><path d="M80.717 301.955c-3.189 0-6.377-.75-9.378-3.19-7.877-6.193-9.566-10.321-9.566-15.576 0-1.876 1.5-3.377 3.377-3.377a3.363 3.363 0 013.376 3.377c0 2.628 0 5.067 6.752 10.134 5.439 4.129 13.692-.751 13.88-.751 1.687-.938 3.75-.375 4.688 1.126.938 1.689.375 3.754-1.125 4.692-.188.375-5.627 3.565-12.004 3.565zM133.238 282.439c-.938 0-1.688-.376-2.439-.938-1.688-1.502-6.939-7.132-4.689-12.011 2.064-4.691 8.816-4.691 13.505-4.128 1.875.187 3.188 1.876 3.188 3.753-.187 1.877-1.875 3.19-3.751 3.19-5.627-.563-6.94.376-6.94.376.188.187 1.688 2.439 3.376 3.94 1.313 1.314 1.501 3.566.188 4.88-.563.562-1.5.938-2.438.938zM281.597 137.191c-.563 0-1.313 0-1.876-.188-1.875-.375-3.001-2.252-2.626-3.941.375-1.877 2.063-3.002 4.127-2.627 3.001.563 7.502-4.692 8.252-6.193.938-1.689 2.814-2.44 4.689-1.501 1.688.938 2.439 3.002 1.501 4.691-1.313 1.877-6.94 9.759-14.067 9.759zM200.01 140.193c-1.125 0-2.251-.563-2.813-1.501-1.126-1.502-.563-3.754.937-4.692 3.752-2.44 1.313-7.506-4.876-18.578-.938-1.502-1.688-3.003-2.626-4.692-8.065-14.637 3.751-27.398 11.254-32.09 1.688-.938 3.751-.563 4.689 1.126.937 1.69.562 3.753-1.126 4.692-.562.375-15.755 10.321-8.815 22.894.938 1.502 1.688 3.003 2.626 4.504 6.002 10.509 12.004 21.393 2.626 27.586-.563.563-1.126.751-1.876.751z"/><path d="M220.081 116.736c-.938 0-1.876 0-3.001-.188-10.879-1.501-12.942-16.89-12.567-19.892.188-1.877 2.064-3.19 3.752-3.002 1.875.187 3.188 1.876 3.001 3.753-.188 1.876 1.688 11.447 6.752 12.198 6.564.938 8.44-2.815 8.627-3.754.376-1.876 2.064-3.002 3.939-2.814 1.876.375 3.189 2.064 2.814 3.94-.751 4.129-4.877 9.759-13.317 9.759zM234.331 163.65c-.75 0-1.313-.188-2.063-.563-5.252-3.753-7.128-10.321-8.816-21.768-1.125-8.07-4.876-10.697-7.314-12.386-.751-.563-1.313-.938-1.876-1.501-1.313-1.314-1.313-3.566 0-4.879 1.313-1.314 3.564-1.314 4.877 0 .187.187.562.375.937.75 2.814 1.877 8.441 6.005 10.129 17.077 1.5 10.885 3.001 15.013 6.002 17.077 1.5 1.126 1.875 3.191.75 4.692-.563 1.126-1.501 1.501-2.626 1.501zM270.909 146.011c-.563 0-1.125-.188-1.688-.563-3.939-2.252-6.19-2.627-12.004-3.566-1.688-.187-3.751-.562-6.002-.938-6.002-.938-11.066-5.067-14.254-11.259-.938-1.877-3.001-6.568-1.688-9.383.937-1.689 2.813-2.44 4.689-1.502 1.5.751 2.25 2.44 1.875 3.941.188 1.877 3.376 10.321 10.691 11.447 2.251.376 4.126.751 5.814.939 6.002.938 9.378 1.313 14.443 4.316 1.688.938 2.063 3.002 1.125 4.691-.75 1.314-1.876 1.877-3.001 1.877zM258.153 124.242c-1.313 0-2.626-.751-3.188-2.064-.751-1.689.187-3.753 1.875-4.504 8.253-3.378 12.192-6.193 11.629-12.573-.188-1.689-1.501-17.453 4.501-23.458 1.688-1.689 3.751-2.44 5.815-2.252 1.875.188 3.188 1.877 3.001 3.754-.188 1.876-1.876 3.377-3.752 3.002-2.438 2.44-3.751 10.51-3.001 18.203 1.126 12.386-9.94 17.077-15.755 19.517-.375.375-.75.375-1.125.375zM259.47 175.098c-1.501 0-2.814-.938-3.376-2.44 0 0-1.689-6.005-4.314-11.447-2.251-4.504-5.815-6.756-9.941-9.195l-.938-.563c-1.688-.938-2.063-3.19-1.125-4.692.938-1.689 3.188-2.064 4.689-1.126l.938.563c4.313 2.628 9.378 5.818 12.379 12.011 3.001 6.005 4.689 12.385 4.876 12.573.563 1.876-.563 3.753-2.438 4.128-.188.188-.375.188-.75.188zM268.282 132.686c-1.313 0-2.626-.751-3.189-2.065-.75-1.689.188-3.753 1.876-4.503 2.626-1.126 4.126-2.815 5.814-5.067 2.251-2.815 5.065-6.381 11.066-8.07 1.876-.563 3.752.563 4.314 2.44.563 1.877-.562 3.753-2.438 4.316-3.751 1.126-5.439 3.19-7.502 5.818-2.063 2.627-4.314 5.442-8.628 7.318-.563-.375-.938-.187-1.313-.187zM192.698 164.214h-.75c-1.876-.376-3.001-2.252-2.626-4.129.75-3.378 4.501-4.692 9.19-6.38 2.251-.751 4.877-1.689 7.128-2.815 4.876-2.628 3.188-9.759 3.188-9.759-.563-1.876.563-3.753 2.438-4.128 1.876-.563 3.752.563 4.127 2.439 1.125 4.317 1.313 13.512-6.565 17.64-2.626 1.314-5.627 2.44-8.065 3.191-1.688.563-4.126 1.501-4.877 1.876-.75 1.314-1.875 2.065-3.188 2.065zM277.848 166.653c-.187 0-.563 0-.75-.188-3.939-.938-9.378-4.128-11.816-7.694-1.126-1.501-.563-3.753.937-4.691 1.501-1.126 3.752-.563 4.689.938 1.126 1.689 5.065 4.129 7.69 4.879 1.876.376 3.001 2.252 2.439 4.129-.375 1.501-1.688 2.627-3.189 2.627zM178.816 137.191c-.563 0-1.313 0-1.876-.188-1.876-.375-3.001-2.252-2.626-3.941.375-1.877 2.063-3.002 4.126-2.627 3.001.563 7.503-4.692 8.253-6.193.938-1.689 2.813-2.44 4.689-1.501 1.688.938 2.438 3.002 1.501 4.691-1.501 1.877-6.94 9.759-14.067 9.759z"/><path d="M235.084 178.476c-3.188 0-6.377-.751-9.378-3.19-7.877-6.193-9.565-10.322-9.565-15.576 0-1.877 1.5-3.378 3.376-3.378a3.363 3.363 0 013.376 3.378c0 2.627 0 5.067 6.752 10.134 5.439 4.128 13.692-.751 13.879-.751 1.688-.938 3.752-.375 4.689 1.126.938 1.689.563 3.753-1.125 4.691-.188.376-5.814 3.566-12.004 3.566zM287.597 158.959c-.938 0-1.688-.375-2.438-.938-1.688-1.501-6.94-7.131-4.689-12.01 2.063-4.692 8.815-4.692 13.504-4.129 1.876.188 3.189 1.877 3.189 3.754-.188 1.876-1.876 3.19-3.752 3.19-5.626-.563-6.939.375-6.939.375.187.188 1.688 2.44 3.376 3.941 1.313 1.314 1.313 3.565.187 4.879-.562.563-1.5.938-2.438.938zM97.22 140.193c-1.124 0-2.25-.563-2.813-1.501-1.125-1.502-.562-3.754.938-4.692 3.752-2.44 1.313-7.506-4.876-18.578-.938-1.502-1.688-3.003-2.626-4.692-8.065-14.637 3.751-27.398 11.254-32.09 1.5-.938 3.751-.563 4.689 1.126.937 1.69.562 3.753-1.126 4.692-.563.375-15.755 10.321-8.815 22.894.938 1.502 1.688 3.003 2.626 4.504 6.002 10.509 12.004 21.393 2.626 27.586-.563.563-1.313.751-1.876.751z"/><path d="M117.104 116.736c-.937 0-1.875 0-3.001-.188-10.878-1.501-12.941-16.89-12.566-19.892.187-1.877 2.063-3.19 3.751-3.002 1.876.187 3.189 1.876 3.001 3.753-.188 1.876 1.688 11.447 6.752 12.198 6.565.938 8.44-2.815 8.628-3.754.375-1.876 2.063-3.002 3.939-2.814 1.875.375 3.188 2.064 2.813 3.94-.563 4.129-4.877 9.759-13.317 9.759zM131.354 163.65c-.75 0-1.313-.188-2.063-.563-5.251-3.753-7.127-10.321-8.815-21.768-1.125-8.07-4.877-10.697-7.315-12.386-.75-.563-1.313-.938-1.876-1.501-1.312-1.314-1.312-3.566 0-4.879 1.313-1.314 3.564-1.314 4.877 0 .188.187.563.375.938.75 2.813 1.877 8.44 6.005 10.128 17.077 1.501 10.885 3.001 15.013 6.002 17.077 1.5 1.126 1.876 3.191.75 4.692-.375 1.126-1.5 1.501-2.626 1.501zM168.116 146.011c-.563 0-1.125-.188-1.688-.563-3.939-2.252-6.19-2.627-12.004-3.566-1.688-.187-3.751-.562-6.002-.938-6.002-.938-11.066-5.067-14.254-11.259-.938-1.877-3.001-6.568-1.688-9.383.937-1.689 3.001-2.44 4.689-1.502 1.5.751 2.25 2.44 1.875 3.941.188 1.877 3.376 10.321 10.691 11.447 2.251.376 4.126.751 5.814.939 6.19.938 9.378 1.313 14.443 4.316 1.688.938 2.063 3.002 1.125 4.691-.75 1.314-1.876 1.877-3.001 1.877zM155.179 124.242c-1.313 0-2.626-.751-3.188-2.064-.751-1.689 0-3.753 1.875-4.504 8.065-3.378 12.192-6.193 11.629-12.573-.188-1.689-1.313-17.453 4.501-23.458 1.688-1.689 3.752-2.44 5.815-2.252 1.875.188 3.188 1.877 3.001 3.754-.188 1.876-1.876 3.377-3.751 3.002-2.439 2.44-3.752 10.51-3.001 18.203 1.125 12.386-9.941 17.077-15.755 19.517-.188.375-.751.375-1.126.375zM156.677 175.097c-1.501 0-2.814-.938-3.376-2.44 0 0-1.688-6.005-4.314-11.447-2.251-4.504-5.815-6.756-9.941-9.195l-.938-.563c-1.688-.938-2.063-3.19-1.125-4.692.938-1.688 3.188-2.064 4.689-1.125l.938.562c4.314 2.628 9.378 5.818 12.379 12.011 3.001 6.005 4.689 12.385 4.876 12.573.563 1.876-.563 3.753-2.438 4.128-.188.188-.563.188-.75.188zM165.309 132.686c-1.313 0-2.625-.751-3.188-2.065-.75-1.689.187-3.753 1.875-4.503 2.814-1.126 4.127-2.815 5.815-5.067 2.251-2.815 5.064-6.381 11.066-8.07 1.875-.563 3.751.563 4.314 2.44.562 1.877-.563 3.753-2.439 4.316-3.751 1.126-5.439 3.19-7.502 5.818-2.063 2.627-4.314 5.442-8.628 7.318-.375-.375-.938-.187-1.313-.187zM89.721 164.214h-.75c-1.876-.376-3-2.252-2.626-4.129.75-3.378 4.502-4.692 9.19-6.38 2.252-.751 4.877-1.689 7.128-2.815 4.877-2.628 3.189-9.759 3.189-9.759-.563-1.876.562-3.753 2.438-4.128 1.875-.563 3.751.563 4.126 2.439 1.125 4.317 1.313 13.512-6.564 17.64-2.626 1.314-5.627 2.44-8.066 3.191-1.688.563-4.126 1.501-4.876 1.876-.563 1.314-1.876 2.065-3.189 2.065zM174.875 166.653c-.187 0-.562 0-.75-.188-3.939-.938-9.378-4.128-11.816-7.694-1.125-1.501-.563-3.753.938-4.691 1.5-1.126 3.751-.563 4.689.938 1.125 1.689 5.064 4.129 7.69 4.879 1.875.376 3.001 2.252 2.438 4.129-.188 1.501-1.688 2.627-3.189 2.627zM75.839 137.191c-.563 0-1.313 0-1.876-.188-1.875-.375-3-2.252-2.625-3.941.375-1.877 2.063-3.002 4.126-2.627 3.188.563 7.502-4.692 8.252-6.193.938-1.689 3.001-2.44 4.69-1.501 1.688.938 2.438 3.002 1.5 4.691-1.313 1.877-6.94 9.759-14.067 9.759z"/><path d="M132.112 178.476c-3.189 0-6.378-.751-9.378-3.19-7.878-6.193-9.566-10.322-9.566-15.576 0-1.877 1.5-3.378 3.376-3.378a3.362 3.362 0 013.376 3.378c0 2.627 0 5.067 6.752 10.134 5.44 4.128 13.692-.751 13.88-.751 1.688-.938 3.751-.375 4.689 1.126.937 1.689.375 3.753-1.126 4.691-.187.376-5.626 3.566-12.003 3.566zM184.812 158.959c-.938 0-1.688-.375-2.438-.938-1.688-1.501-6.94-7.131-4.689-12.01 2.063-4.692 8.815-4.692 13.504-4.129 1.876.188 3.188 1.877 3.188 3.754-.187 1.876-1.875 3.19-3.751 3.19-5.627-.563-6.939.375-6.939.375.187.188 1.688 2.44 3.376 3.941 1.313 1.314 1.5 3.565.187 4.879-.75.563-1.5.938-2.438.938zM62.528 132.686c-1.313 0-2.626-.751-3.188-2.065-.75-1.689.187-3.753 1.875-4.503 2.626-1.126 4.126-2.815 5.814-5.067 2.251-2.815 5.065-6.381 11.067-8.07 1.875-.563 3.75.563 4.313 2.44.563 1.877-.562 3.753-2.438 4.316-3.939 1.126-5.439 3.19-7.502 5.818-2.063 2.627-4.314 5.442-8.628 7.318-.563-.375-.938-.187-1.313-.187zM81.847 158.957c-.938 0-1.688-.375-2.438-.938-1.688-1.501-6.94-7.131-4.69-12.01 2.064-4.692 8.816-4.692 13.693-4.129 1.875.188 3.188 1.877 3.188 3.754-.187 1.876-1.688 3.19-3.751 3.19-5.627-.563-6.94.375-6.94.375.188.188 1.688 2.44 3.376 3.941 1.313 1.314 1.5 3.565.188 4.879-.75.563-1.688.938-2.626.938zM281.597 384.34c-.563 0-1.313 0-1.876-.188-1.875-.375-3.001-2.252-2.626-3.94.375-1.877 2.063-3.003 4.127-2.628 3.001.563 7.502-4.691 8.252-6.193.938-1.688 2.814-2.439 4.689-1.501 1.688.939 2.439 3.003 1.501 4.692-1.313 1.876-6.94 9.758-14.067 9.758zM200.01 387.341c-1.125 0-2.251-.563-2.813-1.501-1.126-1.501-.563-3.753.937-4.692 3.752-2.439 1.313-7.506-4.876-18.578-.938-1.501-1.688-3.003-2.626-4.691-8.065-14.638 3.751-27.399 11.254-31.903 1.688-.938 3.751-.563 4.689 1.126.937 1.689.562 3.753-1.126 4.692-.562.375-15.755 10.321-8.815 22.894.938 1.502 1.688 3.003 2.626 4.504 6.002 10.509 12.004 21.393 2.626 27.586-.563.375-1.126.563-1.876.563z"/><path d="M220.081 363.696c-.938 0-1.876 0-3.001-.188-10.879-1.501-12.942-16.889-12.567-19.892.188-1.876 2.064-3.19 3.752-3.002 1.875.187 3.188 1.876 3.001 3.753-.188 1.876 1.688 11.447 6.752 12.198 6.564.938 8.44-2.815 8.627-3.754.376-1.876 2.064-3.002 3.939-2.814 1.876.375 3.189 2.064 2.814 3.94-.751 4.317-4.877 9.759-13.317 9.759zM234.331 410.801c-.75 0-1.313-.188-2.063-.563-5.252-3.754-7.128-10.322-8.816-21.769-1.125-8.069-4.876-10.697-7.314-12.386-.751-.563-1.313-.938-1.876-1.501-1.313-1.313-1.313-3.565 0-4.879 1.313-1.314 3.564-1.314 4.877 0 .187.188.562.375.937.751 2.814 1.876 8.441 6.005 10.129 17.077 1.5 10.884 3.001 15.012 6.002 17.077 1.5 1.126 1.875 3.19.75 4.691-.563.939-1.501 1.502-2.626 1.502zM270.909 392.971c-.563 0-1.125-.188-1.688-.563-3.939-2.252-6.19-2.627-12.004-3.566-1.688-.187-3.751-.563-6.002-.938-6.002-.938-11.066-5.067-14.254-11.259-.938-1.877-3.001-6.568-1.688-9.383.937-1.689 2.813-2.44 4.689-1.502 1.5.751 2.25 2.44 1.875 3.941.188 1.877 3.376 10.321 10.691 11.447 2.251.376 4.126.751 5.814.939 6.002.938 9.378 1.313 14.443 4.316 1.688.938 2.063 3.002 1.125 4.691-.75 1.314-1.876 1.877-3.001 1.877zM258.153 371.391c-1.313 0-2.626-.751-3.188-2.065-.751-1.689.187-3.753 1.875-4.504 8.253-3.377 12.192-6.192 11.629-12.573-.188-1.689-1.501-17.452 4.501-23.457 1.688-1.689 3.751-2.44 5.815-2.252 1.875.188 3.188 1.876 3.001 3.753-.188 1.877-1.876 3.378-3.752 3.003-2.438 2.439-3.751 10.509-3.001 18.203 1.126 12.385-9.94 17.077-15.755 19.516-.375.188-.75.376-1.125.376zM259.47 422.246c-1.501 0-2.814-.939-3.376-2.44 0 0-1.689-6.005-4.314-11.447-2.251-4.504-5.815-6.756-9.941-9.196l-.938-.563c-1.688-.938-2.063-3.19-1.125-4.691.938-1.689 3.188-2.064 4.689-1.126l.938.563c4.313 2.627 9.378 5.817 12.379 12.01 3.001 6.005 4.689 12.386 4.876 12.573.563 1.877-.563 3.754-2.438 4.129-.188.188-.375.188-.75.188zM268.282 379.648c-1.313 0-2.626-.751-3.189-2.065-.75-1.689.188-3.753 1.876-4.504 2.626-1.125 4.126-2.814 5.814-5.066 2.251-2.815 5.065-6.381 11.066-8.07 1.876-.563 3.752.563 4.314 2.44.563 1.876-.562 3.753-2.438 4.316-3.751 1.126-5.439 3.19-7.502 5.818-2.063 2.627-4.314 5.442-8.628 7.318-.563-.187-.938-.187-1.313-.187zM192.698 411.363h-.75c-1.876-.375-3.001-2.252-2.626-4.129.75-3.377 4.501-4.691 9.19-6.38 2.251-.751 4.877-1.689 7.128-2.815 4.876-2.627 3.188-9.758 3.188-9.758-.563-1.877.563-3.753 2.438-4.129 1.876-.563 3.752.563 4.127 2.44 1.125 4.316 1.313 13.511-6.565 17.64-2.626 1.313-5.627 2.439-8.065 3.19-1.688.563-4.126 1.501-4.877 1.877-.75 1.313-1.875 2.064-3.188 2.064zM277.848 413.614c-.187 0-.563 0-.75-.188-3.939-.938-9.378-4.128-11.816-7.694-1.126-1.501-.563-3.753.937-4.691 1.501-1.126 3.752-.563 4.689.938 1.126 1.689 5.065 4.128 7.69 4.879 1.876.375 3.001 2.252 2.439 4.129-.375 1.689-1.688 2.627-3.189 2.627zM178.816 384.34c-.563 0-1.313 0-1.876-.188-1.876-.375-3.001-2.252-2.626-3.94.375-1.877 2.063-3.003 4.126-2.628 3.001.563 7.503-4.691 8.253-6.193.938-1.688 2.813-2.439 4.689-1.501 1.688.939 2.438 3.003 1.501 4.692-1.501 1.876-6.94 9.758-14.067 9.758z"/><path d="M235.084 425.624c-3.188 0-6.377-.75-9.378-3.19-7.877-6.193-9.565-10.321-9.565-15.576 0-1.876 1.5-3.378 3.376-3.378a3.364 3.364 0 013.376 3.378c0 2.628 0 5.067 6.752 10.134 5.439 4.128 13.692-.751 13.879-.751 1.688-.938 3.752-.375 4.689 1.126.938 1.689.563 3.753-1.125 4.692-.188.187-5.814 3.565-12.004 3.565zM287.597 405.92c-.938 0-1.688-.375-2.438-.938-1.688-1.501-6.94-7.131-4.689-12.01 2.063-4.692 8.815-4.692 13.504-4.129 1.876.188 3.189 1.877 3.189 3.753-.188 1.877-1.876 3.191-3.752 3.191-5.626-.563-6.939.375-6.939.375.187.188 1.688 2.44 3.376 3.941 1.313 1.313 1.313 3.565.187 4.879-.562.751-1.5.938-2.438.938zM97.22 387.341c-1.124 0-2.25-.563-2.813-1.501-1.125-1.501-.562-3.753.938-4.692 3.752-2.439 1.313-7.506-4.876-18.578-.938-1.501-1.688-3.003-2.626-4.691-8.065-14.638 3.751-27.399 11.254-31.903 1.5-.938 3.751-.563 4.689 1.126.937 1.689.562 3.753-1.126 4.692-.563.375-15.755 10.321-8.815 22.894.938 1.502 1.688 3.003 2.626 4.504 6.002 10.509 12.004 21.393 2.626 27.586-.563.375-1.313.563-1.876.563z"/><path d="M117.104 363.696c-.937 0-1.875 0-3.001-.188-10.878-1.501-12.941-16.889-12.566-19.892.187-1.876 2.063-3.19 3.751-3.002 1.876.187 3.189 1.876 3.001 3.753-.188 1.876 1.688 11.447 6.752 12.198 6.565.938 8.44-2.815 8.628-3.754.375-1.876 2.063-3.002 3.939-2.814 1.875.375 3.188 2.064 2.813 3.94-.563 4.317-4.877 9.759-13.317 9.759zM131.354 410.8c-.75 0-1.313-.188-2.063-.563-5.251-3.754-7.127-10.322-8.815-21.769-1.125-8.069-4.877-10.697-7.315-12.386-.75-.563-1.313-.938-1.876-1.501-1.312-1.313-1.312-3.565 0-4.879 1.313-1.314 3.564-1.314 4.877 0 .188.188.563.375.938.751 2.813 1.876 8.44 6.005 10.128 17.077 1.501 10.884 3.001 15.013 6.002 17.077 1.5 1.126 1.876 3.19.75 4.691-.375.939-1.5 1.502-2.626 1.502zM168.116 392.971c-.563 0-1.125-.188-1.688-.563-3.939-2.252-6.19-2.627-12.004-3.566-1.688-.187-3.751-.563-6.002-.938-6.002-.938-11.066-5.067-14.254-11.259-.938-1.877-3.001-6.568-1.688-9.383.937-1.689 3.001-2.44 4.689-1.502 1.5.751 2.25 2.44 1.875 3.941.188 1.877 3.376 10.321 10.691 11.447 2.251.376 4.126.751 5.814.939 6.19.938 9.378 1.313 14.443 4.316 1.688.938 2.063 3.002 1.125 4.691-.75 1.314-1.876 1.877-3.001 1.877zM155.179 371.391c-1.313 0-2.626-.751-3.188-2.065-.751-1.689 0-3.753 1.875-4.504 8.065-3.377 12.192-6.192 11.629-12.573-.188-1.689-1.313-17.452 4.501-23.457 1.688-1.689 3.752-2.44 5.815-2.252 1.875.188 3.188 1.876 3.001 3.753-.188 1.877-1.876 3.378-3.751 3.003-2.439 2.439-3.752 10.509-3.001 18.203 1.125 12.385-9.941 17.077-15.755 19.516-.188.188-.751.376-1.126.376zM156.677 422.246c-1.501 0-2.814-.939-3.376-2.44 0 0-1.688-6.005-4.314-11.447-2.251-4.504-5.815-6.756-9.941-9.196l-.938-.563c-1.688-.938-2.063-3.19-1.125-4.691.938-1.689 3.188-2.064 4.689-1.126l.938.563c4.314 2.627 9.378 5.817 12.379 12.01 3.001 6.005 4.689 12.386 4.876 12.573.563 1.877-.563 3.754-2.438 4.129-.188.188-.563.188-.75.188zM165.309 379.647c-1.313 0-2.625-.751-3.188-2.065-.75-1.689.187-3.753 1.875-4.504 2.814-1.125 4.127-2.814 5.815-5.066 2.251-2.815 5.064-6.381 11.066-8.07 1.875-.563 3.751.563 4.314 2.44.562 1.877-.563 3.753-2.439 4.316-3.751 1.126-5.439 3.19-7.502 5.818-2.063 2.627-4.314 5.442-8.628 7.318-.375-.187-.938-.187-1.313-.187zM89.721 411.362h-.75c-1.876-.375-3-2.252-2.626-4.129.75-3.377 4.502-4.691 9.19-6.38 2.252-.751 4.877-1.689 7.128-2.815 4.877-2.627 3.189-9.758 3.189-9.758-.563-1.877.562-3.753 2.438-4.129 1.875-.563 3.751.563 4.126 2.44 1.125 4.316 1.313 13.511-6.564 17.64-2.626 1.314-5.627 2.439-8.066 3.19-1.688.563-4.126 1.501-4.876 1.877-.563 1.313-1.876 2.064-3.189 2.064zM174.875 413.613c-.187 0-.562 0-.75-.188-3.939-.938-9.378-4.128-11.816-7.694-1.125-1.501-.563-3.753.938-4.691 1.5-1.126 3.751-.563 4.689.938 1.125 1.689 5.064 4.128 7.69 4.879 1.875.375 3.001 2.252 2.438 4.129-.188 1.689-1.688 2.627-3.189 2.627zM75.839 384.339c-.563 0-1.313 0-1.876-.188-1.875-.375-3-2.252-2.625-3.94.375-1.877 2.063-3.003 4.126-2.628 3.188.563 7.502-4.691 8.252-6.193.938-1.688 3.001-2.439 4.69-1.501 1.688.939 2.438 3.003 1.5 4.692-1.313 1.876-6.94 9.758-14.067 9.758z"/><path d="M132.112 425.624c-3.189 0-6.378-.75-9.378-3.19-7.878-6.193-9.566-10.321-9.566-15.576 0-1.876 1.5-3.378 3.376-3.378a3.363 3.363 0 013.376 3.378c0 2.628 0 5.067 6.752 10.134 5.44 4.128 13.692-.751 13.88-.751 1.688-.938 3.751-.375 4.689 1.126.937 1.689.375 3.753-1.126 4.692-.187.187-5.626 3.565-12.003 3.565zM184.812 405.919c-.938 0-1.688-.375-2.438-.938-1.688-1.501-6.94-7.131-4.689-12.01 2.063-4.692 8.815-4.692 13.504-4.129 1.876.188 3.188 1.877 3.188 3.753-.187 1.877-1.875 3.191-3.751 3.191-5.627-.563-6.939.375-6.939.375.187.188 1.688 2.44 3.376 3.941 1.313 1.313 1.5 3.565.187 4.879-.75.751-1.5.938-2.438.938zM62.528 379.647c-1.313 0-2.626-.751-3.188-2.065-.75-1.689.187-3.753 1.875-4.504 2.626-1.125 4.126-2.814 5.814-5.066 2.251-2.815 5.065-6.381 11.067-8.07 1.875-.563 3.75.563 4.313 2.44.563 1.877-.562 3.753-2.438 4.316-3.939 1.126-5.439 3.19-7.502 5.818-2.063 2.627-4.314 5.442-8.628 7.318-.563-.187-.938-.187-1.313-.187zM81.847 405.919c-.938 0-1.688-.375-2.438-.938-1.688-1.501-6.94-7.131-4.69-12.01 2.064-4.692 8.816-4.692 13.693-4.129 1.875.188 3.188 1.877 3.188 3.753-.187 1.877-1.688 3.191-3.751 3.191-5.627-.563-6.94.375-6.94.375.188.188 1.688 2.44 3.376 3.941 1.313 1.313 1.5 3.565.188 4.879-.75.751-1.688.938-2.626.938zM126.864 94.218c-9.94 0-12.191-6.005-13.879-10.884-.938-2.628-1.876-5.255-3.939-7.132-3.188-3.19-8.253-5.066-12.942-4.69-2.813.187-6.564 1.313-9.378 5.066-1.125 1.501-3.188 1.876-4.876.75-1.5-1.126-1.876-3.19-.75-4.879 3.376-4.691 8.44-7.506 14.254-7.881 6.752-.563 13.692 2.064 18.381 6.568 3.189 3.19 4.502 6.755 5.439 9.758 1.688 4.504 2.439 6.38 7.503 6.38a3.363 3.363 0 013.376 3.378c.187 2.065-1.313 3.566-3.189 3.566zM76.218 106.792c-.376 0-.938 0-1.313-.375-1.688-.751-2.439-2.815-1.688-4.504 1.125-2.44.937-3.19.937-3.19-.937-1.69-1.688-3.378-.375-6.38.75-1.69 2.626-2.628 4.502-1.877 1.688.75 2.626 2.627 1.875 4.504-.187.375-.187.563-.187.563 1.313 1.876 1.688 4.316-.375 9.383-.938 1.125-2.063 1.876-3.376 1.876z"/><path d="M52.216 124.242c-1.313 0-2.626-.751-3.189-2.064-.75-1.689.188-3.753 1.876-4.504 8.065-3.378 12.191-6.193 11.628-12.573-.187-1.689-1.313-17.453 4.502-23.458 1.688-1.689 3.751-2.44 5.814-2.252 1.876.188 3.189 1.877 3.001 3.754-.187 1.876-1.876 3.377-3.751 3.002-2.438 2.44-3.751 10.51-3.001 18.203 1.125 12.386-9.94 17.077-15.755 19.517-.188.375-.563.375-1.125.375zM51.09 107.166c-.564 0-1.126-.187-1.689-.563-1.688-.938-2.063-3.002-1.125-4.691.187-.563.563-1.314.75-2.44 1.313-4.128 2.25-7.319 5.252-7.881 1.875-.376 3.75.75 4.126 2.627.188 1.313-.375 2.627-1.313 3.378-.375.75-.938 2.627-1.313 3.753-.563 1.876-.938 3.002-1.5 3.753-.75 1.314-1.876 2.064-3.189 2.064zM62.528 132.689c-1.313 0-2.626-.751-3.188-2.065-.75-1.689.187-3.753 1.875-4.504 2.626-1.125 4.126-2.814 5.814-5.066 2.251-2.815 5.065-6.381 11.067-8.07 1.875-.563 3.75.563 4.313 2.44.563 1.876-.562 3.753-2.438 4.316-3.939 1.126-5.44 3.19-7.502 5.817-2.063 2.628-4.314 5.443-8.628 7.319-.563-.375-.938-.187-1.313-.187zM59.9 79.956l-6.002-3.19c2.814-5.442 7.69-14.638 20.632-12.949 1.876.188 3.189 2.065 3.001 3.941-.188 1.877-2.063 3.19-3.939 3.003-7.69-1.126-10.316 3.002-13.692 9.195zM126.864 341.365c-9.94 0-12.191-6.005-13.879-10.884-.938-2.627-1.876-5.254-3.939-7.131-3.188-3.19-8.253-5.067-12.942-4.692-2.813.188-6.564 1.314-9.378 5.067-1.125 1.502-3.188 1.877-4.876.751-1.5-1.126-1.876-3.19-.75-4.879 3.376-4.692 8.44-7.507 14.254-7.882 6.752-.563 13.692 2.064 18.381 6.568 3.189 3.19 4.502 6.756 5.439 9.758 1.688 4.504 2.439 6.381 7.503 6.381a3.363 3.363 0 013.376 3.378c.187 1.876-1.313 3.565-3.189 3.565zM76.218 353.94c-.376 0-.938 0-1.313-.376-1.688-.75-2.439-2.815-1.688-4.504 1.125-2.439.937-3.19.937-3.19-.937-1.689-1.688-3.378-.375-6.38.75-1.689 2.626-2.627 4.502-1.877 1.688.751 2.626 2.627 1.875 4.504-.187.375-.187.563-.187.563 1.313 1.877 1.688 4.316-.375 9.383-.938 1.126-2.063 1.877-3.376 1.877z"/><path d="M52.212 371.391c-1.313 0-2.626-.751-3.189-2.065-.75-1.689.188-3.753 1.876-4.504 8.065-3.377 12.191-6.192 11.629-12.573-.188-1.689-1.313-17.452 4.5-23.457 1.689-1.689 3.752-2.44 5.815-2.252 1.876.188 3.189 1.876 3.001 3.753-.187 1.877-1.875 3.378-3.751 3.003-2.438 2.439-3.751 10.509-3 18.203 1.124 12.385-9.942 17.077-15.756 19.516-.188.188-.563.376-1.125.376zM51.085 354.126c-.562 0-1.125-.187-1.688-.563-1.688-.938-2.063-3.002-1.125-4.691.188-.563.563-1.314.75-2.44 1.313-4.128 2.25-7.319 5.252-7.882 1.875-.375 3.751.751 4.126 2.628.188 1.313-.375 2.627-1.313 3.378-.375.75-.938 2.627-1.313 3.753-.562 1.876-.938 3.002-1.5 3.753-.75 1.501-1.876 2.064-3.189 2.064zM62.528 379.649c-1.313 0-2.626-.751-3.188-2.065-.75-1.689.187-3.753 1.875-4.504 2.626-1.126 4.126-2.814 5.814-5.066 2.251-2.815 5.065-6.381 11.067-8.07 1.875-.563 3.75.563 4.313 2.44.563 1.876-.562 3.753-2.438 4.316-3.939 1.126-5.44 3.19-7.502 5.817-2.063 2.628-4.314 5.443-8.628 7.319-.563-.187-.938-.187-1.313-.187zM59.896 327.103l-6.002-3.191c2.814-5.442 7.69-14.637 20.632-12.948 1.876.187 3.189 2.064 3.001 3.941-.188 1.876-1.876 3.19-3.939 3.002-7.69-1.126-10.315 3.003-13.692 9.196zM47.335 313.029c-.75 0-1.5 0-2.251-.188-12.191-1.314-18.568-11.072-19.319-12.949-.75-1.689.188-3.753 1.876-4.503 1.688-.751 3.751.187 4.501 1.876.563 1.314 5.44 7.882 13.88 8.82 8.44.939 16.318-6.38 16.318-6.568 1.313-1.314 3.563-1.314 4.876.188 1.313 1.313 1.313 3.565 0 4.879-.563.375-9.19 8.445-19.881 8.445zM75.47 217.698c-9.94 0-12.192-6.005-13.88-10.884-.938-2.627-1.875-5.254-3.939-7.131-3.188-3.19-8.252-5.067-12.941-4.691-2.813.187-6.565 1.313-9.378 5.066-1.125 1.502-3.189 1.877-4.877.751-1.5-1.126-1.875-3.19-.75-4.879 3.376-4.692 8.44-7.507 14.255-7.882 6.564-.563 13.691 2.064 18.38 6.568 3.19 3.19 4.502 6.756 5.44 9.759 1.688 4.503 2.438 6.38 7.502 6.38a3.363 3.363 0 013.376 3.378c.188 2.064-1.313 3.565-3.188 3.565zM65.718 240.217c-.938 0-1.876 0-3.001-.187-10.879-1.502-12.942-16.89-12.567-19.892.188-1.877 2.063-3.191 3.751-3.003 1.876.188 3.189 1.877 3.001 3.753-.187 1.877 1.688 11.447 6.752 12.198 6.565.938 8.44-2.815 8.628-3.753.375-1.877 2.063-3.003 3.939-2.815 1.876.375 3.188 2.064 2.813 3.941-.562 4.128-4.876 9.758-13.316 9.758zM89.157 238.341c-1.313 0-2.438-.751-3-1.877-3.564-7.131-.938-12.198 1.687-17.828.75-1.689 1.689-3.565 2.439-5.63 1.688-4.128 1.313-7.694-1.126-10.696-3.188-3.941-8.252-5.255-9.565-5.067-1.688.938-3.564.188-4.502-1.501-.938-1.689 0-3.753 1.5-4.692 3.752-2.064 11.067.751 15.38 4.692 3.377 3.002 8.628 9.57 4.502 19.892-.938 2.252-1.875 4.316-2.813 6.005-2.626 5.254-3.564 7.881-1.688 11.822.75 1.689.187 3.754-1.5 4.692-.188 0-.751.188-1.314.188zM79.968 287.319c-.75 0-1.313-.188-2.064-.563-5.251-3.753-7.127-10.321-8.815-21.768-1.125-8.07-4.876-10.697-7.315-12.386-.75-.563-1.313-.938-1.875-1.501-1.313-1.314-1.313-3.566 0-4.879 1.313-1.314 3.563-1.314 4.876 0 .188.187.563.375.938.75 2.814 1.877 8.44 6.005 10.128 17.077 1.5 10.885 3.001 15.013 6.002 17.077 1.5 1.126 1.876 3.191.75 4.692-.375.938-1.5 1.501-2.625 1.501zM116.546 269.492c-.563 0-1.126-.187-1.688-.563-3.939-2.251-6.19-2.627-12.004-3.565-1.688-.188-3.751-.563-6.002-.938-6.002-.939-11.066-5.067-14.255-11.26-.938-1.877-3-6.568-1.688-9.383.938-1.689 3.001-2.439 4.69-1.501 1.5.75 2.25 2.439 1.875 3.941.187 1.876 3.376 10.321 10.69 11.447 2.252.375 4.127.751 5.815.938 6.19.938 9.378 1.314 14.442 4.316 1.688.939 2.063 3.003 1.126 4.692-.563 1.313-1.876 1.876-3.001 1.876zM38.335 287.883h-.75c-1.876-.375-3.002-2.251-2.626-4.128.75-3.378 4.501-4.692 9.19-6.38 2.25-.751 4.877-1.689 7.127-2.815 4.877-2.628 3.189-9.759 3.189-9.759-.563-1.876.563-3.753 2.438-4.128 1.876-.563 3.751.563 4.126 2.439 1.126 4.317 1.313 13.512-6.564 17.64-2.626 1.314-5.627 2.44-8.065 3.191-1.688.563-4.127 1.501-4.877 1.876-.563 1.126-1.875 2.064-3.188 2.064zM98.73 189.549c-.751 0-1.501 0-2.251-.188-12.192-1.313-18.569-11.072-19.32-12.948-.75-1.689.188-3.753 1.876-4.504 1.689-.751 3.752.188 4.502 1.877.563 1.313 5.44 7.881 13.692 8.82 8.628.938 16.318-6.381 16.318-6.568 1.312-1.314 3.563-1.314 4.876.187 1.313 1.314 1.313 3.566 0 4.879-.375.376-9.003 8.445-19.694 8.445z"/><path d="M80.725 301.957c-3.189 0-6.377-.75-9.378-3.19-7.878-6.193-9.566-10.321-9.566-15.576 0-1.876 1.5-3.378 3.376-3.378a3.363 3.363 0 013.376 3.378c0 2.628 0 5.067 6.753 10.134 5.439 4.129 13.692-.751 13.879-.751 1.688-.938 3.751-.375 4.689 1.126.938 1.689.375 3.754-1.125 4.692-.188.375-5.627 3.565-12.004 3.565zM64.969 188.611c-4.501 0-9.003-3.378-9.94-4.129-1.501-1.126-1.689-3.378-.563-4.879 1.125-1.501 3.376-1.689 4.876-.563 1.5 1.126 4.314 2.815 5.814 2.627 2.251-2.627-.187-5.629-.187-5.817-1.125-1.501-.938-3.566.375-4.879 1.5-1.126 3.564-.939 4.877.375 2.063 2.44 4.876 8.632.938 13.887-1.314 1.689-3.002 2.815-5.065 3.002-.375.376-.75.376-1.125.376zM75.839 137.192c-.563 0-1.313 0-1.876-.188-1.875-.375-3-2.252-2.625-3.941.375-1.877 2.063-3.002 4.126-2.627 3.188.563 7.502-4.692 8.252-6.193.938-1.689 3.001-2.44 4.69-1.501 1.688.938 2.438 3.002 1.5 4.691-1.313 1.877-6.94 9.759-14.067 9.759zM65.151 146.012c-.563 0-1.125-.188-1.688-.563-3.939-2.252-6.19-2.627-12.004-3.566-1.688-.187-3.75-.563-6.002-.938-6.002-.938-11.066-5.067-14.254-11.259-.938-1.877-3.001-6.568-1.688-9.383.938-1.689 2.813-2.44 4.689-1.502 1.5.751 2.25 2.44 1.875 3.941.188 1.877 3.376 10.321 10.691 11.447 2.251.376 4.127.751 5.815.939 6.19.938 9.378 1.313 14.442 4.316 1.688.938 2.063 3.002 1.125 4.691-.75 1.314-1.876 1.877-3 1.877zM52.216 124.243c-1.313 0-2.626-.751-3.189-2.064-.75-1.689.188-3.753 1.876-4.504 8.065-3.378 12.191-6.193 11.628-12.573-.187-1.689-1.313-17.453 4.502-23.458 1.688-1.689 3.751-2.44 5.814-2.252 1.876.188 3.189 1.877 3.001 3.754-.187 1.876-1.876 3.377-3.751 3.002-2.438 2.44-3.751 10.51-3.001 18.203 1.125 12.386-9.94 17.077-15.755 19.517-.188.375-.563.375-1.125.375zM62.528 132.687c-1.313 0-2.626-.751-3.188-2.065-.75-1.689.187-3.753 1.875-4.503 2.626-1.126 4.126-2.815 5.814-5.067 2.251-2.815 5.065-6.381 11.067-8.07 1.875-.563 3.75.563 4.313 2.44.563 1.877-.562 3.753-2.438 4.316-3.939 1.126-5.44 3.19-7.502 5.818-2.063 2.627-4.314 5.442-8.628 7.318-.563-.375-.938-.187-1.313-.187zM72.094 166.654c-.187 0-.563 0-.75-.188-3.939-.938-9.378-4.128-11.816-7.694-1.126-1.501-.563-3.753.938-4.691 1.5-1.126 3.75-.563 4.688.938 1.126 1.689 5.065 4.129 7.69 4.879 1.876.376 3.001 2.252 2.439 4.129-.375 1.501-1.688 2.627-3.189 2.627zM81.847 158.96c-.938 0-1.688-.375-2.438-.938-1.688-1.501-6.94-7.131-4.69-12.01 2.064-4.692 8.816-4.692 13.693-4.129 1.875.188 3.188 1.877 3.188 3.753-.187 1.877-1.688 3.191-3.751 3.191-5.627-.563-6.94.375-6.94.375.188.188 1.688 2.44 3.376 3.941 1.313 1.313 1.5 3.565.188 4.879-.75.563-1.688.938-2.626.938zM75.839 384.341c-.563 0-1.313 0-1.876-.188-1.875-.375-3-2.252-2.625-3.941.375-1.876 2.063-3.002 4.126-2.627 3.188.563 7.502-4.691 8.252-6.193.938-1.689 3.001-2.439 4.69-1.501 1.688.938 2.438 3.003 1.5 4.692-1.313 1.876-6.94 9.758-14.067 9.758zM65.151 392.972c-.563 0-1.125-.188-1.688-.563-3.939-2.252-6.19-2.627-12.004-3.566-1.688-.187-3.75-.563-6.002-.938-6.002-.938-11.066-5.067-14.254-11.259-.938-1.877-3.001-6.569-1.688-9.383.938-1.689 2.813-2.44 4.689-1.502 1.5.751 2.25 2.44 1.875 3.941.188 1.877 3.376 10.321 10.691 11.447 2.251.376 4.127.751 5.815.939 6.19.938 9.378 1.313 14.442 4.316 1.688.938 2.063 3.002 1.125 4.691-.75 1.314-1.876 1.877-3 1.877zM52.216 371.392c-1.313 0-2.626-.751-3.189-2.065-.75-1.689.188-3.753 1.876-4.504 8.065-3.377 12.191-6.192 11.628-12.573-.187-1.689-1.313-17.452 4.502-23.457 1.688-1.689 3.751-2.44 5.814-2.252 1.876.188 3.189 1.876 3.001 3.753-.187 1.877-1.876 3.378-3.751 3.003-2.438 2.439-3.751 10.509-3.001 18.203 1.125 12.385-9.94 17.077-15.755 19.516-.188.188-.563.376-1.125.376zM62.528 379.648c-1.313 0-2.626-.751-3.188-2.065-.75-1.689.187-3.753 1.875-4.504 2.626-1.125 4.126-2.814 5.814-5.066 2.251-2.815 5.065-6.381 11.067-8.07 1.875-.563 3.75.563 4.313 2.44.563 1.876-.562 3.753-2.438 4.316-3.939 1.126-5.44 3.19-7.502 5.818-2.063 2.627-4.314 5.442-8.628 7.318-.563-.187-.938-.187-1.313-.187zM72.094 413.615c-.187 0-.563 0-.75-.188-3.939-.938-9.378-4.128-11.816-7.694-1.126-1.501-.563-3.753.938-4.691 1.5-1.126 3.75-.563 4.688.938 1.126 1.689 5.065 4.128 7.69 4.879 1.876.375 3.001 2.252 2.439 4.129-.375 1.689-1.688 2.627-3.189 2.627zM81.847 405.921c-.938 0-1.688-.375-2.438-.938-1.688-1.501-6.94-7.131-4.69-12.01 2.064-4.692 8.816-4.692 13.693-4.129 1.875.188 3.188 1.877 3.188 3.753-.187 1.877-1.688 3.191-3.751 3.191-5.627-.563-6.94.375-6.94.375.188.188 1.688 2.44 3.376 3.941 1.313 1.313 1.5 3.565.188 4.879-.75.751-1.688.938-2.626.938z"/></g><path d="M231.52 286.38l91.154 54.421-1.5 106.216-91.154-54.422 1.5-106.215z" fill="#000"/><path d="M229.83 392.595l-92.654 51.981 91.154 54.422 92.842-51.982-91.342-54.421z" fill="#1300F2"/><path d="M138.864 338.55l92.842-51.982-1.501 106.216-92.654 51.982 1.313-106.216z" fill="#fff"/><path d="M270.155 49.554l-6.752-1.314c.562-2.252.75-4.691.75-7.13 0-18.954-15.38-34.343-34.323-34.343-18.944 0-34.324 15.389-34.324 34.342 0 2.44.188 4.692.75 7.131l-6.752 1.314c-.562-2.815-.938-5.63-.938-8.445 0-22.707 18.381-41.097 41.076-41.097s41.076 18.39 41.076 41.097c.375 2.815 0 5.63-.563 8.445z" fill="#FFF200"/></svg>