<svg width="398" height="290" fill="none" xmlns="http://www.w3.org/2000/svg"><mask id="a" mask-type="alpha" maskUnits="userSpaceOnUse" x="109" y="0" width="289" height="290"><path d="M397.896 145.158c0 79.849-64.586 144.542-144.304 144.542-79.717 0-144.303-64.693-144.303-144.542 0-79.85 64.586-144.542 144.303-144.542 79.718 0 144.304 64.878 144.304 144.542z" fill="#fff"/></mask><g mask="url(#a)" fill="#FF99A2"><path d="M412.835 127.784c-8.673 0-10.703-5.361-12.179-9.612-.923-2.403-1.661-4.621-3.506-6.284-2.768-2.773-7.381-4.436-11.441-4.067-2.399.185-5.721 1.109-8.304 4.436-.923 1.294-2.952 1.664-4.244.74-1.292-.925-1.661-2.958-.738-4.252 2.952-4.066 7.381-6.469 12.548-7.023 5.905-.555 11.994 1.848 16.054 5.914 2.768 2.773 3.875 5.915 4.798 8.503 1.476 4.066 2.03 5.73 6.643 5.73 1.661 0 2.952 1.294 2.952 2.957.37 1.479-.922 2.958-2.583 2.958z"/><path d="M386.633 168.263c-.923 0-2.03-.555-2.584-1.294-.922-1.479-.553-3.327.923-4.251 3.321-2.219 1.292-6.655-4.244-16.451l-2.215-4.066c-7.012-12.939 3.322-24.029 9.78-28.28 1.477-.924 3.322-.555 4.245.924.922 1.479.553 3.327-.923 4.251-.554.37-13.84 9.057-7.75 20.147l2.214 4.067c5.167 9.242 10.703 18.853 2.214 24.398-.369.37-1.107.555-1.66.555z"/><path d="M404.163 147.561c-.922 0-1.66 0-2.583-.185-9.596-1.294-11.441-14.787-11.072-17.559.185-1.664 1.661-2.773 3.322-2.588 1.661.185 2.768 1.664 2.583 3.327-.184 1.664 1.476 10.166 5.905 10.721 5.721.739 7.566-2.403 7.751-3.327.369-1.664 1.845-2.773 3.506-2.403 1.66.369 2.768 1.848 2.399 3.512-.554 3.511-4.245 8.502-11.811 8.502zM368.179 138.874c-.369 0-.738 0-1.292-.185-1.476-.739-2.214-2.403-1.476-4.066.922-2.218.922-2.773.922-2.773-.922-1.479-1.476-2.957-.369-5.73.554-1.479 2.399-2.218 3.875-1.663 1.477.554 2.215 2.402 1.661 3.881l-.184.37c1.107 1.663 1.476 3.881-.369 8.133-.369 1.293-1.661 2.033-2.768 2.033zM403.609 102.091c-4.06 0-7.935-2.957-8.673-3.697-1.292-1.109-1.476-2.957-.369-4.25 1.107-1.295 2.952-1.48 4.244-.37 1.292 1.108 3.875 2.402 5.167 2.218 2.03-2.403-.185-4.991-.185-4.991-1.107-1.294-.922-3.142.369-4.251 1.292-1.11 3.137-.924 4.245.37 1.845 2.217 4.428 7.578.922 12.383-1.107 1.479-2.768 2.403-4.428 2.588h-1.292zM356.186 161.609c-1.292 0-2.399-.74-2.768-1.849-.553-1.478.185-3.327 1.661-3.881 2.399-.924 3.691-2.588 5.167-4.621 2.03-2.588 4.429-5.73 9.78-7.209 1.661-.369 3.322.555 3.691 2.033.369 1.664-.554 3.328-2.03 3.697-3.322.924-4.798 2.773-6.643 4.991-1.846 2.218-3.691 4.806-7.566 6.469-.554.185-.923.37-1.292.37zM379.623 37.029c-1.107 0-2.215-.555-2.768-1.664-3.137-6.284-.923-10.72 1.476-15.71a66.565 66.565 0 002.215-4.991c1.476-3.697 1.107-6.84-1.108-9.427-2.768-3.327-7.196-4.62-8.488-4.436-1.476.74-3.137.185-3.875-1.294-.738-1.478 0-3.327 1.476-4.251 3.322-1.848 9.78.74 13.655 4.066 2.953 2.588 7.566 8.503 4.06 17.56-.738 2.033-1.661 3.696-2.399 5.36-2.214 4.62-3.137 6.839-1.476 10.35.738 1.48.184 3.328-1.292 4.067-.554.37-.923.37-1.476.37zM371.689 80.096c-.554 0-1.292-.185-1.845-.555-4.614-3.327-6.274-9.057-7.751-19.223-1.107-7.208-4.244-9.426-6.274-10.905-.738-.554-1.291-.924-1.66-1.294-1.108-1.109-1.108-2.957 0-4.251 1.107-1.11 3.137-1.11 4.244 0 .184.185.369.37.738.554 2.399 1.664 7.381 5.176 8.857 14.972 1.477 9.612 2.768 13.308 5.352 15.157 1.291.924 1.661 2.772.738 4.25-.554.925-1.476 1.295-2.399 1.295zM403.795 64.569c-.553 0-1.107-.185-1.476-.37-3.321-2.033-5.536-2.402-10.518-3.142-1.476-.185-3.137-.554-5.167-.74-5.167-.923-9.78-4.435-12.548-9.98-.923-1.664-2.584-5.73-1.476-8.133.738-1.479 2.583-2.033 4.059-1.294 1.292.74 1.846 2.033 1.661 3.512.185 1.664 2.953 9.057 9.411 10.166 2.03.37 3.691.554 5.167.74 5.351.739 8.304 1.293 12.733 3.88 1.476.925 1.845 2.773 1.107 4.067-.923.74-1.845 1.294-2.953 1.294zM392.542 45.346c-1.107 0-2.214-.74-2.768-1.849-.554-1.478 0-3.327 1.661-3.881 7.196-2.958 10.703-5.545 10.149-11.09-.185-1.479-1.292-15.527 4.06-20.702 1.476-1.479 3.137-2.033 5.167-1.848 1.66.185 2.952 1.663 2.768 3.327-.185 1.663-1.661 2.772-3.322 2.772-2.214 2.034-3.322 9.242-2.583 16.081.922 10.905-8.673 14.972-13.84 17.19h-1.292zM391.433 30.19c-.554 0-1.107-.185-1.476-.37-1.477-.924-1.846-2.587-1.107-4.066.184-.37.369-1.294.738-2.033 1.107-3.512 2.029-6.47 4.613-7.024 1.661-.37 3.321.74 3.506 2.403.185 1.11-.185 2.403-1.107 2.957-.369.74-.923 2.403-1.107 3.328-.554 1.663-.738 2.587-1.292 3.326-.738 1.11-1.661 1.48-2.768 1.48zM393.649 90.262c-1.292 0-2.584-.924-2.953-2.218 0 0-1.476-5.36-3.875-9.981-2.03-3.882-5.167-5.915-8.673-8.133l-.738-.554c-1.476-.925-1.845-2.773-.923-4.252.923-1.478 2.768-1.848 4.245-.924l.738.555c4.059 2.403 8.119 4.99 10.887 10.535 2.584 5.176 4.244 10.906 4.244 11.09.369 1.664-.553 3.328-2.03 3.697-.369 0-.553.185-.922.185zM409.885 82.684h-.738c-3.506-.925-8.304-3.697-10.334-6.84-.922-1.478-.553-3.326.738-4.25 1.292-.925 3.322-.555 4.245.739 1.107 1.478 4.428 3.697 6.827 4.251 1.661.37 2.584 2.033 2.215 3.697-.369 1.478-1.661 2.403-2.953 2.403zM399.183 6.346l-5.351-2.772c2.583-4.806 6.828-12.754 18.084-11.275 1.661.185 2.768 1.663 2.584 3.327-.185 1.663-1.846 2.772-3.322 2.587-6.643-.924-9.042 2.588-11.995 8.133z"/><path d="M372.241 93.22c-2.768 0-5.721-.74-8.304-2.773-7.012-5.36-8.304-9.057-8.304-13.863 0-1.663 1.292-2.957 2.952-2.957 1.661 0 2.953 1.294 2.953 2.957 0 2.218 0 4.436 5.905 9.057 4.798 3.697 12.179-.554 12.179-.74 1.476-.923 3.321-.369 4.06.925.922 1.479.369 3.327-.923 4.067-.185.37-4.982 3.326-10.518 3.326zM379.623 254.765c-1.107 0-2.215-.554-2.768-1.663-3.137-6.285-.923-10.721 1.476-15.711a66.69 66.69 0 002.215-4.991c1.476-3.697 1.107-6.839-1.108-9.427-2.768-3.327-7.381-4.62-8.488-4.436-1.476.74-3.137.185-3.875-1.293-.738-1.479 0-3.327 1.476-4.252 3.322-1.848 9.78.74 13.655 4.067 2.953 2.587 7.566 8.502 4.06 17.559-.738 2.033-1.661 3.697-2.399 5.36-2.214 4.621-3.137 6.839-1.476 10.351.738 1.479.184 3.327-1.292 4.067-.554.184-.923.369-1.476.369zM371.688 297.832c-.554 0-1.292-.185-1.661-.554-4.798-3.327-6.274-9.057-7.75-19.223-1.107-7.209-4.244-9.427-6.274-10.906-.738-.554-1.292-.924-1.661-1.294-1.107-1.109-1.107-2.957 0-4.251 1.107-1.109 3.137-1.109 4.244 0 .185.185.369.37.738.555 2.399 1.663 7.382 5.175 8.858 14.971 1.476 9.612 2.768 13.309 5.351 15.157 1.292.924 1.661 2.773.738 4.251-.738.74-1.66 1.294-2.583 1.294zM403.796 282.121c-.553 0-1.107-.185-1.476-.37-3.321-2.033-5.536-2.403-10.518-3.142-1.476-.185-3.322-.555-5.352-.739-5.166-.925-9.78-4.436-12.548-9.982-.922-1.663-2.583-5.729-1.476-8.132.738-1.479 2.584-2.034 4.06-1.294 1.291.739 1.845 2.033 1.661 3.512.184 1.663 2.952 9.057 9.411 10.166 2.029.369 3.69.554 5.167.739 5.351.739 8.303 1.294 12.732 3.882 1.476.924 1.845 2.772 1.107 4.066-.738.739-1.66 1.294-2.768 1.294zM392.542 263.083c-1.107 0-2.214-.739-2.768-1.848-.554-1.479 0-3.327 1.661-3.882 7.196-2.957 10.703-5.545 10.149-11.09-.185-1.479-1.292-15.526 4.06-20.702 1.476-1.478 3.137-2.033 5.167-1.848 1.66.185 2.952 1.664 2.767 3.327-.184 1.664-1.66 2.773-3.321 2.773-2.214 2.033-3.322 9.241-2.583 16.08.922 10.906-8.673 14.972-13.84 17.19-.554-.185-.923 0-1.292 0zM391.433 247.927c-.554 0-1.107-.185-1.476-.37-1.477-.924-1.846-2.588-1.107-4.067.184-.369.369-1.293.738-2.033 1.107-3.512 2.03-6.469 4.613-7.023 1.661-.37 3.322.739 3.506 2.402.185 1.109-.184 2.403-1.107 2.958-.369.739-.923 2.403-1.107 3.327-.554 1.663-.738 2.588-1.292 3.327-.738.924-1.661 1.479-2.768 1.479zM393.645 307.813c-1.292 0-2.584-.925-2.953-2.218 0 0-1.476-5.361-3.875-9.982-2.03-3.881-5.167-5.914-8.673-8.132l-.738-.555c-1.476-.924-1.845-2.772-.923-4.066.923-1.479 2.768-1.849 4.245-.925l.738.37c4.06 2.588 8.119 5.176 10.887 10.536 2.584 5.175 4.244 10.905 4.244 11.09.369 1.663-.553 3.327-2.029 3.697-.369.185-.554.185-.923.185zM409.885 300.235h-.738c-3.506-.925-8.304-3.697-10.334-6.839-.922-1.479-.553-3.327.738-4.252 1.477-.924 3.322-.554 4.245.925 1.107 1.663 4.428 3.696 6.827 4.251 1.661.37 2.584 2.033 2.215 3.697-.369 1.294-1.661 2.218-2.953 2.218zM399.183 224.083l-5.351-2.773c2.583-4.806 6.828-12.754 18.084-11.275 1.661.185 2.768 1.664 2.584 3.327-.185 1.664-1.846 2.773-3.322 2.588-6.643-.924-9.042 2.588-11.995 8.133zM388.112 211.699c-.738 0-1.291 0-2.029-.185-10.703-1.109-16.424-9.797-16.977-11.46-.554-1.479.184-3.327 1.66-3.882 1.477-.554 3.322.185 3.876 1.664.553 1.109 4.797 6.839 12.179 7.763 7.565.924 14.393-5.73 14.393-5.73 1.107-1.109 3.137-1.109 4.244 0 1.107 1.109 1.107 3.142 0 4.251-.369.37-7.935 7.579-17.346 7.579zM386.637 168.263c-.923 0-2.03-.555-2.584-1.294-.923-1.479-.554-3.327.923-4.251 3.321-2.218 1.291-6.655-4.244-16.451l-2.215-4.066c-7.012-12.939 3.322-24.029 9.78-28.28 1.477-.924 3.322-.555 4.245.924.922 1.479.553 3.327-.923 4.251-.554.37-13.84 9.057-7.75 20.147l2.214 4.067c5.167 9.242 10.703 18.853 2.214 24.398-.369.37-1.107.555-1.66.555z"/><path d="M404.163 147.561c-.922 0-1.66 0-2.583-.185-9.596-1.294-11.441-14.787-11.072-17.559.185-1.664 1.661-2.773 3.322-2.588 1.661.185 2.768 1.664 2.583 3.327-.184 1.664 1.476 10.166 5.905 10.721 5.721.739 7.566-2.403 7.751-3.327.369-1.664 1.845-2.773 3.506-2.403 1.66.369 2.768 1.848 2.399 3.512-.554 3.511-4.245 8.502-11.811 8.502zM380.178 189.519h-.738c-1.661-.37-2.584-2.033-2.215-3.697.738-2.957 3.875-4.066 8.12-5.545 2.029-.739 4.428-1.478 6.274-2.587 4.428-2.219 2.768-8.503 2.768-8.688-.369-1.663.553-3.327 2.214-3.696 1.661-.37 3.322.554 3.691 2.218 1.107 3.881 1.107 12.014-5.721 15.526-2.399 1.294-4.798 2.033-7.196 2.957-1.477.555-3.691 1.294-4.429 1.664-.554 1.109-1.661 1.848-2.768 1.848zM367.998 165.675c-.554 0-1.107 0-1.661-.184-1.661-.37-2.768-1.849-2.399-3.512.369-1.664 1.846-2.773 3.506-2.403 2.768.554 6.643-4.251 7.197-5.36.738-1.479 2.584-2.034 4.06-1.294 1.476.739 2.03 2.587 1.292 4.066-.923 1.664-5.721 8.687-11.995 8.687zM356.186 161.609c-1.292 0-2.399-.74-2.768-1.849-.553-1.478.185-3.327 1.661-3.881 2.399-.924 3.691-2.588 5.167-4.621 2.03-2.588 4.429-5.73 9.78-7.209 1.661-.369 3.322.555 3.691 2.033.369 1.664-.554 3.328-2.03 3.697-3.322.924-4.798 2.773-6.643 4.991-1.846 2.218-3.691 4.806-7.566 6.469-.554.185-.923.37-1.292.37zM373.16 184.713c-.738 0-1.476-.185-2.03-.924-1.476-1.294-6.09-6.284-4.06-10.536 1.846-4.066 7.751-4.066 11.995-3.696 1.661.185 2.952 1.663 2.768 3.327-.185 1.663-1.661 2.957-3.322 2.772-4.982-.369-6.089.37-6.089.37.184.185 1.476 2.218 2.952 3.512 1.292 1.109 1.292 3.142 0 4.251a3.05 3.05 0 01-2.214.924zM412.839 127.783c-8.673 0-10.703-5.36-12.179-9.611-.923-2.403-1.661-4.621-3.506-6.284-2.768-2.773-7.381-4.436-11.441-4.067-2.399.185-5.721 1.109-8.304 4.436-.923 1.294-2.953 1.664-4.244.74-1.292-.925-1.661-2.958-.738-4.252 2.952-4.066 7.381-6.469 12.548-7.023 5.905-.555 11.994 1.848 16.054 5.914 2.768 2.773 3.875 5.915 4.798 8.503 1.476 4.066 2.03 5.73 6.643 5.73 1.661 0 2.952 1.294 2.952 2.957.369 1.479-.922 2.957-2.583 2.957zM368.183 138.874c-.37 0-.739 0-1.292-.185-1.476-.739-2.215-2.403-1.476-4.066.922-2.218.922-2.773.922-2.773-.922-1.479-1.476-2.957-.369-5.73.554-1.479 2.399-2.218 3.875-1.663 1.477.554 2.215 2.402 1.661 3.881l-.184.37c1.107 1.663 1.476 3.881-.37 8.133-.369 1.293-1.66 2.033-2.767 2.033zM322.231 127.783c-8.673 0-10.703-5.36-12.179-9.611-.923-2.403-1.661-4.621-3.506-6.285-2.768-2.772-7.381-4.436-11.441-4.066-2.399.185-5.721 1.109-8.304 4.436-.923 1.294-2.952 1.664-4.244.74-1.292-.925-1.661-2.958-.554-4.252 2.953-4.066 7.381-6.469 12.548-7.023 5.905-.37 11.995 1.848 16.055 5.914 2.768 2.773 3.875 5.915 4.797 8.503 1.477 4.066 2.03 5.73 6.643 5.73 1.661 0 2.953 1.293 2.953 2.957.369 1.479-.923 2.957-2.768 2.957z"/><path d="M296.215 168.263c-.923 0-2.03-.555-2.584-1.294-.922-1.479-.553-3.327.923-4.251 3.321-2.219 1.292-6.655-4.244-16.451l-2.215-4.066c-7.012-12.939 3.322-24.029 9.78-28.28 1.477-.924 3.322-.555 4.245.924.922 1.479.553 3.327-.923 4.251-.554.37-13.84 9.057-7.75 20.147l2.214 4.067c5.167 9.242 10.518 18.853 2.214 24.398-.553.37-1.107.555-1.66.555z"/><path d="M313.743 147.561c-.738 0-1.661 0-2.584-.185-9.411-1.294-11.441-14.787-11.072-17.559.185-1.664 1.661-2.773 3.322-2.588 1.661.185 2.768 1.664 2.583 3.327-.184 1.664 1.477 10.166 5.905 10.721 5.721.739 7.566-2.403 7.751-3.327.369-1.664 1.845-2.773 3.506-2.403 1.661.369 2.768 1.848 2.399 3.512-.554 3.511-4.429 8.502-11.81 8.502zM334.411 145.897c-1.107 0-2.215-.554-2.768-1.663-3.137-6.285-.923-10.905 1.476-15.711a66.12 66.12 0 002.214-4.991c1.477-3.697 1.108-6.839-1.107-9.426-2.768-3.327-7.381-4.621-8.304-4.621-1.476.739-3.137.185-3.875-1.294s0-3.327 1.292-4.251c3.321-1.849 9.78.739 13.655 4.066 2.953 2.588 7.566 8.502 4.06 17.559-.738 2.034-1.661 3.697-2.399 5.361-2.214 4.621-3.137 6.839-1.476 10.35.738 1.479.184 3.327-1.292 4.067-.554.369-1.107.554-1.476.554zM347.144 154.215c-1.108 0-2.215-.739-2.768-1.848-.554-1.479 0-3.327 1.66-3.882 7.197-2.957 10.703-5.545 10.15-11.09-.185-1.479-1.292-15.526 4.059-20.702 1.477-1.478 3.137-2.033 5.167-1.848 1.661.185 2.953 1.663 2.768 3.327-.184 1.663-1.661 2.772-3.321 2.772-2.215 2.034-3.322 9.242-2.584 16.081.923 10.905-8.673 14.972-13.84 17.19-.369-.185-.738 0-1.291 0zM346.222 139.058c-.554 0-1.107-.184-1.476-.369-1.476-.924-1.846-2.773-1.107-4.067.184-.369.369-1.109.738-2.033 1.107-3.512 2.03-6.469 4.613-7.024 1.661-.369 3.322.74 3.506 2.403.185 1.294-.184 2.403-1.292 3.142-.369.74-.922 2.403-1.107 3.327-.553 1.664-.738 2.588-1.292 3.328-.553.739-1.66 1.293-2.583 1.293zM356.186 161.608c-1.292 0-2.399-.74-2.768-1.849-.553-1.478.185-3.327 1.661-3.881 2.399-.924 3.691-2.588 5.167-4.621 2.03-2.588 4.429-5.73 9.78-7.209 1.661-.369 3.322.555 3.691 2.034.369 1.663-.554 3.327-2.03 3.696-3.322.924-4.798 2.773-6.643 4.991-1.846 2.218-3.691 4.806-7.566 6.469-.554.185-.923.37-1.292.37zM353.972 115.214l-5.351-2.772c2.584-4.806 6.828-12.939 18.084-11.275 1.661.185 2.768 1.663 2.584 3.327-.185 1.664-1.846 2.773-3.322 2.588-6.828-.924-9.042 2.587-11.995 8.132zM277.761 138.874c-.369 0-.738 0-1.292-.185-1.476-.739-2.214-2.403-1.476-4.066.922-2.218.922-2.773.922-2.773-.922-1.479-1.476-2.957-.369-5.73.554-1.479 2.399-2.218 3.875-1.663 1.477.554 2.215 2.402 1.661 3.881l-.184.37c1.107 1.663 1.476 3.881-.369 8.133-.554 1.293-1.661 2.033-2.768 2.033zM342.901 102.83c-.738 0-1.291 0-2.029-.184-10.703-1.109-16.424-9.797-16.977-11.46-.554-1.479.184-3.327 1.661-3.882 1.476-.554 3.321.185 3.875 1.664.553 1.109 4.797 6.839 12.179 7.763 7.565.74 14.393-5.73 14.393-5.73 1.107-1.11 3.137-1.11 4.244 0 1.108 1.109 1.108 3.142 0 4.251-.553.555-7.934 7.578-17.346 7.578zM313.191 102.091c-4.06 0-7.935-2.957-8.673-3.697-1.292-1.109-1.476-2.957-.369-4.25 1.107-1.295 2.952-1.48 4.244-.37 1.292 1.108 3.875 2.402 5.167 2.218 2.03-2.403-.185-4.991-.185-4.991-1.107-1.294-.922-3.142.369-4.251 1.292-1.11 3.138-.924 4.245.37 1.845 2.217 4.428 7.578.922 12.383-1.107 1.479-2.768 2.403-4.428 2.588h-1.292zM231.812 127.784c-8.673 0-10.703-5.361-12.179-9.612-.923-2.403-1.661-4.621-3.507-6.284-2.768-2.773-7.381-4.436-11.441-4.067-2.398.185-5.72 1.109-8.303 4.436-.923 1.294-2.768 1.664-4.245.74-1.291-.925-1.66-2.958-.738-4.252 2.953-4.066 7.381-6.469 12.548-7.023 5.905-.555 11.995 1.848 16.055 5.914 2.768 2.773 3.875 5.915 4.797 8.503 1.477 4.066 2.03 5.73 6.644 5.73 1.66 0 2.952 1.294 2.952 2.957.369 1.479-.923 2.958-2.583 2.958z"/><path d="M205.609 168.263c-.922 0-2.03-.555-2.583-1.294-.923-1.479-.554-3.327.922-4.251 3.322-2.219 1.292-6.655-4.244-16.451l-2.214-4.066c-7.012-12.939 3.321-24.029 9.78-28.28 1.476-.924 3.322-.555 4.244.924.923 1.479.554 3.327-.922 4.251-.554.37-13.84 9.057-7.751 20.147l2.215 4.067c5.166 9.242 10.518 18.853 2.398 24.398-.738.37-1.291.555-1.845.555z"/><path d="M223.14 147.561c-.738 0-1.661 0-2.583-.185-9.596-1.294-11.441-14.787-11.072-17.559.184-1.664 1.661-2.773 3.321-2.588 1.661.185 2.768 1.664 2.584 3.327-.185 1.664 1.476 10.166 5.905 10.721 5.72.739 7.566-2.403 7.75-3.327.369-1.664 1.845-2.773 3.506-2.403 1.661.369 2.768 1.848 2.399 3.512-.554 3.511-4.244 8.502-11.81 8.502zM243.805 145.897c-1.107 0-2.214-.554-2.768-1.663-3.137-6.285-.922-10.906 1.477-15.711a66.3 66.3 0 002.214-4.991c1.476-3.697 1.107-6.839-1.107-9.427-2.768-3.327-7.382-4.621-8.304-4.436-1.476.74-3.137.185-3.875-1.294-.738-1.478 0-3.327 1.291-4.251 3.322-1.848 9.781.74 13.656 4.067 2.952 2.587 7.565 8.502 4.059 17.559-.738 2.033-1.66 3.697-2.399 5.36-2.214 4.621-3.137 6.839-1.476 10.351.738 1.479.185 3.327-1.292 4.066-.553.185-.922.37-1.476.37zM256.726 154.215c-1.108 0-2.215-.739-2.768-1.848-.554-1.479 0-3.327 1.66-3.882 7.197-2.957 10.703-5.545 10.15-11.09-.185-1.479-1.292-15.342 4.059-20.702 1.477-1.478 3.137-2.033 5.167-1.848 1.661.185 2.953 1.663 2.768 3.327-.184 1.663-1.661 2.772-3.321 2.772-2.215 2.034-3.322 9.242-2.584 16.081.923 10.905-8.673 14.972-13.84 17.19-.553-.185-.922 0-1.291 0zM255.617 139.058c-.554 0-1.108-.185-1.477-.37-1.476-.924-1.845-2.772-1.107-4.066.185-.37.369-1.294.738-2.033 1.107-3.512 2.03-6.469 4.613-6.839 1.661-.37 3.322.739 3.507 2.403.184 1.294-.185 2.403-1.292 3.142-.369.739-.923 2.403-1.107 3.327-.554 1.664-.738 2.588-1.292 3.327-.554.555-1.476 1.109-2.583 1.109zM265.581 161.608c-1.292 0-2.399-.74-2.768-1.849-.554-1.478.184-3.327 1.66-3.881 2.399-.924 3.691-2.588 5.167-4.621 2.03-2.588 4.429-5.73 9.781-7.209 1.66-.369 3.321.555 3.69 2.034.369 1.663-.553 3.327-2.03 3.696-3.321.924-4.798 2.773-6.643 5.176-1.845 2.218-3.69 4.805-7.566 6.469-.553 0-.922.185-1.291.185zM263.367 115.214l-5.351-2.772c2.583-4.806 6.827-12.939 18.084-11.275 1.66.185 2.768 1.663 2.583 3.327-.184 1.664-1.845 2.773-3.321 2.588-6.644-.924-9.042 2.587-11.995 8.132zM187.155 138.874c-.369 0-.738 0-1.292-.185-1.476-.739-2.214-2.403-1.476-4.066.923-2.218.923-2.773.923-2.773-.923-1.479-1.476-2.957-.369-5.73.553-1.479 2.399-2.218 3.875-1.663 1.476.554 2.214 2.402 1.661 3.881l-.185.37c1.107 1.663 1.476 3.881-.369 8.133-.553 1.293-1.661 2.033-2.768 2.033zM252.296 102.83c-.738 0-1.292 0-2.03-.184-10.703-1.109-16.423-9.797-16.977-11.46-.553-1.479.185-3.327 1.661-3.882 1.476-.554 3.322.185 3.875 1.664.554 1.109 4.798 6.839 12.179 7.763 7.566.74 14.394-5.73 14.394-5.73 1.107-1.11 3.137-1.11 4.244 0 1.107 1.109 1.107 3.142 0 4.251-.369.555-7.935 7.578-17.346 7.578zM222.585 102.091c-4.059 0-7.934-2.957-8.673-3.697-1.291-1.109-1.476-2.957-.369-4.25 1.108-1.295 2.953-1.48 4.245-.37 1.291 1.108 3.875 2.402 5.166 2.218 2.03-2.403-.184-4.991-.184-4.991-1.107-1.294-.923-3.142.369-4.251 1.292-1.11 3.137-.924 4.244.37 1.846 2.217 4.429 7.578.923 12.383-1.107 1.479-2.584 2.403-4.429 2.588h-1.292zM175.163 161.609c-1.292 0-2.399-.74-2.768-1.849-.554-1.478.184-3.327 1.661-3.881 2.398-.924 3.69-2.588 5.166-4.621 2.03-2.588 4.429-5.73 9.781-7.209 1.66-.369 3.321.555 3.69 2.033.369 1.664-.553 3.328-2.03 3.697-3.321.924-4.798 2.773-6.643 4.991-1.845 2.218-3.69 4.806-7.566 6.469-.553.185-.922.37-1.291.37zM367.629 18.915c-8.672 0-10.702-5.36-12.179-9.611-.922-2.403-1.66-4.621-3.506-6.285-2.768-2.772-7.196-4.436-11.441-4.066-2.399.185-5.72 1.109-8.304 4.436-.922 1.294-2.952 1.664-4.244.74-1.291-.925-1.661-2.958-.553-4.252 2.952-4.066 7.381-6.47 12.548-7.024 5.905-.37 11.994 1.849 16.054 5.915 2.768 2.773 3.875 5.915 4.798 8.503 1.476 4.066 2.03 5.73 6.643 5.73 1.661 0 2.952 1.293 2.952 2.957.185 1.663-1.107 2.957-2.768 2.957z"/><path d="M341.426 59.394c-.923 0-2.03-.554-2.584-1.294-.923-1.478-.553-3.327.923-4.25 3.321-2.219 1.291-6.655-4.244-16.451l-2.215-4.067c-7.012-12.938 3.322-24.028 9.78-28.095 1.477-.924 3.322-.554 4.245.924.922 1.48.553 3.327-.923 4.252-.554.37-13.84 9.057-7.75 20.147l2.214 4.066c5.167 9.242 10.518 18.853 2.399 24.399-.738.37-1.292.37-1.845.37z"/><path d="M358.956 38.693c-.738 0-1.66 0-2.583-.185-9.596-1.294-11.441-14.787-11.072-17.56.185-1.663 1.661-2.772 3.322-2.587 1.661.185 2.768 1.663 2.583 3.327-.184 1.664 1.476 10.166 5.905 10.72 5.167.74 7.381-1.848 7.751-3.327.369-1.663 1.845-2.772 3.506-2.402 1.66.37 2.768 1.848 2.399 3.511-.554 3.512-4.429 8.503-11.811 8.503zM379.623 37.029c-1.107 0-2.215-.555-2.768-1.664-3.137-6.284-.923-10.72 1.476-15.71a66.565 66.565 0 002.215-4.991c1.476-3.697 1.107-6.84-1.108-9.427-2.768-3.327-7.196-4.62-8.488-4.436-1.476.74-3.137.185-3.875-1.294-.738-1.478 0-3.327 1.476-4.251 3.322-1.848 9.78.74 13.655 4.066 2.953 2.588 7.566 8.503 4.06 17.56-.738 2.033-1.661 3.696-2.399 5.36-2.214 4.62-3.137 6.839-1.476 10.35.738 1.48.184 3.328-1.292 4.067-.554.37-.923.37-1.476.37zM371.689 80.096c-.554 0-1.292-.185-1.845-.555-4.614-3.327-6.274-9.057-7.751-19.223-1.107-7.208-4.244-9.426-6.274-10.905-.738-.554-1.291-.924-1.66-1.294-1.108-1.109-1.108-2.957 0-4.251 1.107-1.11 3.137-1.11 4.244 0 .184.185.369.37.738.554 2.399 1.664 7.381 5.176 8.857 14.972 1.477 9.612 2.768 13.308 5.352 15.157 1.291.924 1.661 2.772.738 4.25-.554.925-1.476 1.295-2.399 1.295zM403.799 64.569c-.553 0-1.107-.185-1.476-.37-3.322-2.033-5.536-2.402-10.518-3.142-1.476-.185-3.137-.554-5.167-.74-5.167-.923-9.78-4.435-12.548-9.98-.923-1.664-2.584-5.73-1.476-8.133.738-1.479 2.583-2.033 4.059-1.294 1.292.74 1.846 2.033 1.661 3.512.185 1.664 2.953 9.057 9.411 10.166 2.03.37 3.691.554 5.167.74 5.351.739 8.304 1.293 12.733 3.88 1.476.925 1.845 2.773 1.107 4.067-.923.74-1.846 1.294-2.953 1.294zM334.967 80.65h-.738c-1.661-.37-2.584-2.033-2.215-3.696.738-2.958 3.876-4.067 8.12-5.545 2.03-.74 4.428-1.479 6.274-2.588 4.429-2.218 2.768-8.502 2.768-8.687-.369-1.664.553-3.327 2.03-3.697 1.66-.37 3.321.555 3.69 2.033 1.107 3.697 1.107 12.014-5.72 15.526-2.399 1.294-4.798 2.034-7.197 2.958-1.476.554-3.691 1.294-4.429 1.663-.369 1.294-1.476 2.033-2.583 2.033zM322.603 56.806c-.553 0-1.107 0-1.66-.184-1.661-.37-2.768-1.849-2.399-3.512.369-1.664 2.03-2.773 3.506-2.403 2.768.554 6.643-4.252 7.197-5.36.738-1.48 2.583-2.034 4.059-1.294 1.477.739 2.03 2.587 1.292 4.066-.738 1.848-5.536 8.687-11.995 8.687zM322.972 30.006c-.369 0-.739 0-1.292-.185-1.476-.74-2.214-2.403-1.476-4.067.922-2.218.922-2.772.922-2.772-.922-1.479-1.476-2.957-.369-5.73.554-1.479 2.399-2.218 3.875-1.664 1.477.555 2.215 2.403 1.661 3.882l-.184.37c1.107 1.663 1.476 3.881-.369 8.132-.554 1.48-1.661 2.034-2.768 2.034z"/><path d="M372.241 93.22c-2.768 0-5.721-.74-8.304-2.773-7.012-5.36-8.304-9.057-8.304-13.863 0-1.663 1.292-2.957 2.952-2.957 1.661 0 2.953 1.294 2.953 2.957 0 2.218 0 4.436 5.905 9.057 4.798 3.697 12.179-.554 12.179-.74 1.476-.923 3.321-.369 4.06.925.922 1.479.369 3.327-.923 4.067-.185.37-4.982 3.326-10.518 3.326zM277.023 18.915c-8.673 0-10.703-5.36-12.18-9.611-.922-2.403-1.66-4.621-3.506-6.285-2.768-2.772-7.196-4.436-11.441-4.066-2.398.185-5.72 1.109-8.303 4.436-.923 1.294-2.768 1.664-4.245.74-1.291-.925-1.66-2.958-.738-4.252 2.953-4.066 7.381-6.47 12.548-7.024 5.905-.37 11.995 1.849 16.055 5.915 2.767 2.773 3.875 5.915 4.797 8.503 1.477 4.066 2.03 5.73 6.643 5.73 1.661 0 2.953 1.293 2.953 2.957.554 1.663-.923 2.957-2.583 2.957z"/><path d="M250.82 59.394c-.923 0-2.03-.554-2.583-1.294-.923-1.478-.554-3.327.922-4.25 3.322-2.219 1.292-6.655-4.244-16.451l-2.214-4.067c-7.012-12.938 3.321-24.028 9.78-28.095 1.476-.924 3.321-.554 4.244.924.923 1.48.554 3.327-.923 4.252-.553.37-13.839 9.057-7.75 20.147l2.215 4.066c5.166 9.242 10.518 18.853 2.214 24.399-.369.37-.923.37-1.661.37z"/><path d="M268.532 38.693c-.923 0-1.661 0-2.584-.185-9.411-1.294-11.441-14.787-11.072-17.56.185-1.663 1.846-2.772 3.322-2.587 1.661.185 2.768 1.663 2.583 3.327-.184 1.664 1.477 10.166 5.905 10.72 5.721.74 7.566-2.402 7.751-3.327.369-1.663 1.845-2.772 3.506-2.402 1.661.37 2.768 1.848 2.399 3.511-.738 3.512-4.429 8.503-11.81 8.503zM289.204 37.029c-1.107 0-2.215-.555-2.768-1.664-3.137-6.284-.923-10.905 1.476-15.71a66.175 66.175 0 002.214-4.991c1.477-3.697 1.108-6.84-1.107-9.427-2.768-3.327-7.197-4.62-8.304-4.436-1.476.74-3.137.185-3.875-1.294-.738-1.478 0-3.327 1.292-4.251 3.321-1.848 9.78.74 13.655 4.066 2.953 2.588 7.566 8.503 4.06 17.56-.738 2.033-1.661 3.696-2.399 5.36-2.214 4.62-3.137 6.839-1.476 10.35.738 1.48.184 3.328-1.292 4.067-.554.37-1.107.37-1.476.37zM281.083 80.095a3.558 3.558 0 01-1.845-.554c-4.613-3.328-6.274-9.057-7.75-19.223-1.107-7.209-4.244-9.427-6.274-10.906-.738-.554-1.292-.924-1.661-1.294-1.107-1.108-1.107-2.957 0-4.25 1.107-1.11 3.137-1.295 4.244 0 .185.184.554.369.738.554 2.399 1.663 7.382 5.175 8.858 14.972 1.476 9.61 2.768 13.308 5.351 15.156 1.292.924 1.661 2.773.738 4.251-.553.924-1.476 1.294-2.399 1.294zM313.192 64.57c-.554 0-1.107-.185-1.476-.37-3.322-2.034-5.536-2.403-10.519-3.143-1.476-.184-3.137-.554-5.166-.739-5.167-.924-9.781-4.436-12.549-9.981-.738-1.294-2.767-5.73-1.476-8.318.738-1.478 2.584-2.033 4.06-1.294 1.292.555 1.845 2.034 1.661 3.512.184 1.664 2.952 9.057 9.411 10.166 2.03.37 3.69.555 5.167.74 5.351.739 8.304 1.294 12.732 3.881 1.477.924 1.846 2.773 1.107 4.067-.922.924-1.845 1.478-2.952 1.478zM301.933 45.347c-1.108 0-2.215-.74-2.768-1.848-.554-1.479 0-3.327 1.66-3.882 7.197-2.957 10.703-5.545 10.15-11.09-.185-1.479-1.292-15.341 4.059-20.702 1.477-1.478 3.137-2.218 5.167-1.848 1.661.185 2.953 1.664 2.768 3.327-.184 1.664-1.661 2.773-3.321 2.773-2.215 2.033-3.322 9.241-2.584 16.08.923 10.906-8.673 14.972-13.84 17.19h-1.291zM301.011 30.19c-.554 0-1.107-.185-1.476-.37-1.476-.924-1.845-2.772-1.107-4.066.184-.37.369-1.294.738-2.033 1.107-3.512 2.03-6.47 4.613-6.84 1.661-.369 3.322.74 3.506 2.404.185 1.293-.184 2.402-1.292 3.142-.369.74-.922 2.403-1.107 3.327-.553 1.663-.922 2.588-1.291 3.327-.554.74-1.661 1.109-2.584 1.109zM303.227 90.262c-1.292 0-2.583-.924-2.953-2.218 0 0-1.476-5.36-3.875-9.981-2.03-3.882-5.167-5.915-8.673-8.133l-.738-.554c-1.476-.925-1.845-2.773-.922-4.252.922-1.478 2.767-1.848 4.244-.924l.738.555c3.875 2.403 8.119 4.99 10.887 10.535 2.584 5.176 4.244 10.906 4.244 11.09.37 1.664-.553 3.328-2.214 3.697-.184 0-.554.185-.738.185zM310.792 52.74c-1.292 0-2.399-.74-2.768-1.849-.554-1.478.184-3.327 1.66-3.881 2.399-.925 3.691-2.588 5.167-4.621 2.03-2.588 4.429-5.73 9.78-7.209 1.661-.37 3.322.555 3.691 2.033.369 1.664-.554 3.327-2.03 3.697-3.321.924-4.798 2.773-6.643 5.175-1.845 2.218-3.691 4.806-7.566 6.47-.369.184-.738.184-1.291.184zM244.361 80.65h-.738c-1.661-.37-2.583-2.033-2.214-3.696.738-2.958 3.875-4.067 8.119-5.545 2.03-.74 4.429-1.479 6.274-2.588 4.429-2.218 2.768-8.502 2.768-8.687-.369-1.664.554-3.327 2.03-3.697 1.661-.37 3.322.555 3.691 2.033 1.107 3.697 1.107 12.014-5.721 15.526-2.399 1.294-4.797 2.034-7.196 2.958-1.477.554-3.691 1.294-4.429 1.663-.369 1.294-1.476 2.033-2.584 2.033zM319.278 82.684h-.738c-3.506-.924-8.304-3.697-10.334-6.84-.923-1.478-.553-3.326.923-4.25 1.476-.924 3.321-.555 4.244.924 1.107 1.479 4.429 3.697 6.828 4.251 1.66.37 2.583 2.033 2.214 3.697-.554 1.294-1.845 2.218-3.137 2.218zM232.182 56.806c-.554 0-1.108 0-1.661-.184-1.661-.37-2.768-1.849-2.399-3.512.369-1.664 1.845-2.773 3.506-2.403 2.768.554 6.643-4.252 7.197-5.36.738-1.48 2.583-2.034 4.059-1.294 1.477.739 2.03 2.587 1.292 4.066-.738 1.479-5.72 8.687-11.994 8.687zM308.762 6.346l-5.352-2.772c2.584-4.806 6.828-12.939 18.084-11.275 1.661.185 2.768 1.663 2.584 3.327-.185 1.663-1.846 2.772-3.322 2.588-6.828-.925-9.226 2.587-11.994 8.132zM232.366 30.006c-.369 0-.738 0-1.292-.185-1.476-.74-2.214-2.403-1.476-4.067.923-2.218.923-2.772.923-2.772-.923-1.479-1.476-2.957-.369-5.73.553-1.479 2.399-2.218 3.875-1.664 1.476.555 2.214 2.403 1.661 3.882l-.185.37c1.107 1.663 1.476 3.881-.369 8.132-.369 1.48-1.476 2.034-2.768 2.034z"/><path d="M281.635 93.22c-2.768 0-5.72-.74-8.304-2.773-7.012-5.36-8.304-9.057-8.304-13.863 0-1.663 1.292-2.957 2.953-2.957 1.661 0 2.952 1.294 2.952 2.957 0 2.218 0 4.436 5.905 9.057 4.798 3.697 12.179-.554 12.179-.74 1.477-.923 3.322-.369 4.06.925.923 1.479.369 3.327-.923 4.067-.184.37-4.982 3.326-10.518 3.326zM327.953 75.845c-.738 0-1.477-.185-2.03-.924-1.476-1.479-6.09-6.285-4.06-10.536 1.846-4.066 7.751-4.066 11.995-3.697 1.661.185 2.952 1.664 2.768 3.328-.185 1.663-1.661 2.957-3.322 2.772-4.982-.37-6.089.37-6.089.37.184.185 1.66 2.218 2.952 3.512 1.292 1.109 1.292 3.142.185 4.25-.738.74-1.661.925-2.399.925zM198.598 37.029c-1.107 0-2.214-.555-2.768-1.664-3.137-6.284-.922-10.905 1.477-15.71a66.175 66.175 0 002.214-4.991c1.476-3.697 1.107-6.84-1.107-9.427-2.768-3.327-7.197-4.62-8.304-4.436-1.476.74-3.137.185-3.875-1.294-.738-1.478 0-3.327 1.476-4.251 3.322-1.848 9.78.74 13.655 4.066 2.953 2.588 7.566 8.503 4.06 17.56-.738 2.033-1.661 3.696-2.399 5.36-2.214 4.62-3.137 6.839-1.476 10.35.738 1.48.184 3.328-1.292 4.067-.738.37-1.291.37-1.661.37zM190.478 80.096c-.554 0-1.292-.185-1.845-.555-4.614-3.327-6.274-9.057-7.751-19.223-1.107-7.208-4.244-9.426-6.274-10.905-.738-.554-1.291-.924-1.66-1.294-1.108-1.109-1.108-2.957 0-4.251 1.107-1.11 3.137-1.11 4.244 0 .184.185.369.37.738.554 2.399 1.664 7.381 5.176 8.857 14.972 1.477 9.612 2.768 13.308 5.352 15.157 1.292.924 1.661 2.772.738 4.25-.554.925-1.476 1.295-2.399 1.295zM222.77 64.569c-.553 0-1.107-.185-1.476-.37-3.322-2.033-5.536-2.402-10.518-3.142-1.477-.185-3.137-.554-5.352-.74-5.167-.923-9.78-4.435-12.548-9.98-.738-1.664-2.583-5.73-1.476-8.133.738-1.479 2.583-2.033 4.06-1.294 1.291.74 1.845 2.033 1.66 3.512.185 1.664 2.953 9.057 9.412 10.166 2.029.37 3.69.554 5.166.74 5.352.739 8.304 1.293 12.733 3.88 1.476.925 1.845 2.773 1.107 4.067-.738.74-1.845 1.294-2.768 1.294zM211.331 45.346c-1.107 0-2.214-.74-2.768-1.848-.554-1.479 0-3.327 1.661-3.882 7.197-2.957 10.703-5.545 10.149-11.09-.184-1.479-1.292-15.526 4.06-20.702 1.476-1.478 3.137-2.218 5.167-1.848 1.66.185 2.952 1.664 2.768 3.327-.185 1.664-1.661 2.773-3.322 2.773-2.214 2.033-3.322 9.241-2.583 16.08.922 10.906-8.673 14.972-13.84 17.19h-1.292zM210.406 30.19c-.554 0-1.108-.185-1.477-.37-1.476-.924-1.845-2.772-1.107-4.066.185-.37.369-1.294.738-2.033 1.107-3.512 2.03-6.47 4.614-6.84 1.66-.369 3.321.74 3.506 2.404.184 1.109-.185 2.402-1.108 2.957-.369.74-.922 2.403-1.107 3.327-.553 1.664-.922 2.588-1.291 3.327-.739.924-1.661 1.294-2.768 1.294zM212.621 90.262c-1.291 0-2.583-.924-2.952-2.218 0 0-1.476-5.36-3.875-9.981-2.03-3.882-5.167-5.915-8.673-8.133l-.738-.554c-1.477-.925-1.846-2.773-.923-4.252.923-1.478 2.768-1.848 4.244-.924l.738.555c4.06 2.403 8.12 4.99 10.888 10.535 2.583 5.176 4.244 10.906 4.244 11.09.369 1.664-.554 3.328-2.214 3.697-.185 0-.37.185-.739.185zM220.374 52.74c-1.292 0-2.399-.74-2.768-1.849-.554-1.478.184-3.327 1.66-3.881 2.399-.925 3.691-2.588 5.167-4.621 2.03-2.588 4.429-5.73 9.78-7.209 1.661-.37 3.322.555 3.691 2.033.369 1.664-.553 3.327-2.03 3.697-3.321.924-4.798 2.773-6.643 5.175-1.845 2.218-3.69 4.806-7.566 6.47-.553.184-.922.184-1.291.184zM228.676 82.683h-.738c-3.321-.924-8.304-3.697-10.333-6.839-.923-1.479-.554-3.327.922-4.251 1.476-.925 3.322-.555 4.244.924 1.108 1.479 4.429 3.697 6.828 4.251 1.661.37 2.584 2.033 2.214 3.697-.369 1.294-1.66 2.218-3.137 2.218zM218.16 6.346l-5.351-2.772c2.583-4.806 6.827-12.939 18.084-11.275 1.66.185 2.768 1.663 2.583 3.327-.184 1.663-1.845 2.772-3.321 2.588-6.644-.925-9.043 2.587-11.995 8.132z"/><path d="M191.217 93.22c-2.768 0-5.72-.74-8.304-2.773-7.012-5.36-8.304-9.057-8.304-13.863 0-1.663 1.292-2.957 2.953-2.957 1.661 0 2.952 1.294 2.952 2.957 0 2.218 0 4.436 5.905 9.057 4.798 3.697 12.179-.554 12.179-.74 1.477-.923 3.322-.369 4.06.925.923 1.479.369 3.327-.923 4.067-.184.37-4.982 3.326-10.518 3.326zM237.347 75.844c-.738 0-1.476-.185-2.03-.924-1.476-1.294-6.089-6.285-4.059-10.536 1.845-4.066 7.75-4.066 11.994-3.696 1.661.184 2.953 1.663 2.768 3.327-.184 1.663-1.661 2.957-3.321 2.772-4.983-.37-6.09.37-6.09.37.185.185 1.476 2.218 2.953 3.512 1.291 1.109 1.291 3.142.184 4.25-.738.74-1.476.925-2.399.925zM367.629 236.467c-8.672 0-10.702-5.36-12.179-9.611-.922-2.403-1.66-4.621-3.506-6.285-2.768-2.772-7.381-4.436-11.441-4.066-2.399.185-5.72 1.109-8.304 4.436-.922 1.294-2.952 1.663-4.244.739-1.291-.924-1.661-2.957-.553-4.251 2.952-4.067 7.381-6.469 12.548-7.024 5.905-.37 11.994 1.848 16.054 5.915 2.768 2.772 3.875 5.915 4.798 8.502 1.476 4.067 2.03 5.73 6.643 5.73 1.661 0 2.952 1.294 2.952 2.958.185 1.663-1.107 2.957-2.768 2.957z"/><path d="M341.426 277.132c-.923 0-2.03-.555-2.584-1.294-.923-1.479-.553-3.327.923-4.251 3.321-2.218 1.291-6.654-4.244-16.451l-2.215-4.066c-7.012-12.939 3.322-24.029 9.78-28.28 1.477-.924 3.322-.37 4.245.924.922 1.479.553 3.327-.923 4.251-.554.37-13.84 9.057-7.75 20.147l2.214 4.067c5.167 9.242 10.518 18.853 2.399 24.398-.738.37-1.292.555-1.845.555z"/><path d="M358.956 256.43c-.738 0-1.66 0-2.583-.185-9.596-1.294-11.441-14.787-11.072-17.559.185-1.664 1.661-2.773 3.322-2.588 1.661.185 2.768 1.664 2.583 3.327-.184 1.664 1.476 10.166 5.905 10.721 5.167.739 7.381-2.033 7.751-3.327.369-1.664 1.845-2.773 3.506-2.403 1.66.369 2.768 1.848 2.399 3.512-.554 3.512-4.429 8.502-11.811 8.502zM379.623 254.766c-1.107 0-2.215-.554-2.768-1.663-3.137-6.285-.923-10.721 1.476-15.711a66.69 66.69 0 002.215-4.991c1.476-3.697 1.107-6.839-1.108-9.427-2.768-3.327-7.381-4.62-8.488-4.436-1.476.74-3.137.185-3.875-1.293-.738-1.479 0-3.328 1.476-4.252 3.322-1.848 9.78.74 13.655 4.067 2.953 2.587 7.566 8.502 4.06 17.559-.738 2.033-1.661 3.697-2.399 5.36-2.214 4.621-3.137 6.839-1.476 10.351.738 1.479.184 3.327-1.292 4.067-.554.184-.923.369-1.476.369zM371.688 297.833c-.554 0-1.292-.185-1.661-.554-4.798-3.327-6.274-9.057-7.75-19.223-1.107-7.209-4.244-9.427-6.274-10.906-.738-.554-1.292-.924-1.661-1.294-1.107-1.109-1.107-2.957 0-4.251 1.107-1.109 3.137-1.109 4.244 0 .185.185.369.37.738.555 2.399 1.663 7.382 5.175 8.858 14.971 1.476 9.612 2.768 13.309 5.351 15.157 1.292.924 1.661 2.773.738 4.251-.738.74-1.66 1.294-2.583 1.294zM403.796 282.122c-.553 0-1.107-.185-1.476-.37-3.321-2.033-5.536-2.403-10.518-3.142-1.476-.185-3.322-.555-5.352-.739-5.166-.925-9.78-4.437-12.548-9.982-.922-1.663-2.583-5.73-1.476-8.132.738-1.479 2.584-2.034 4.06-1.294 1.291.739 1.845 2.033 1.661 3.512.184 1.663 2.952 9.057 9.411 10.166 2.029.369 3.69.554 5.167.739 5.351.739 8.303 1.294 12.732 3.882 1.476.924 1.845 2.772 1.107 4.066-.738.739-1.66 1.294-2.768 1.294zM334.967 298.203h-.738c-1.661-.37-2.584-2.033-2.215-3.512.738-2.957 3.876-4.066 8.12-5.545 2.03-.739 4.428-1.479 6.274-2.588 4.429-2.218 2.768-8.502 2.768-8.687-.369-1.664.553-3.327 2.03-3.697 1.66-.369 3.321.555 3.69 2.033 1.107 3.697 1.107 12.015-5.72 15.527-2.399 1.294-4.798 2.033-7.197 2.957-1.476.555-3.691 1.294-4.429 1.664-.369 1.293-1.476 1.848-2.583 1.848zM322.603 274.359c-.553 0-1.107 0-1.66-.185-1.661-.369-2.768-1.848-2.399-3.512.369-1.663 1.845-2.772 3.506-2.403 2.768.555 6.643-4.251 7.197-5.36.738-1.478 2.583-2.033 4.059-1.294 1.477.74 2.03 2.588 1.292 4.067-.738 1.848-5.536 8.687-11.995 8.687zM322.972 247.743c-.369 0-.739 0-1.292-.185-1.476-.739-2.214-2.403-1.476-4.066.922-2.218.922-2.773.922-2.773-.922-1.479-1.476-2.957-.369-5.73.554-1.478 2.399-2.218 3.875-1.663 1.477.554 2.215 2.403 1.661 3.881l-.184.37c1.107 1.663 1.476 3.881-.369 8.133-.554 1.294-1.661 2.033-2.768 2.033zM388.112 211.7c-.738 0-1.291 0-2.029-.185-10.703-1.109-16.424-9.797-16.977-11.46-.554-1.479.184-3.327 1.66-3.882 1.477-.554 3.322.185 3.876 1.664.553 1.109 4.797 6.839 12.179 7.763 7.565.924 14.393-5.73 14.393-5.73 1.107-1.109 3.137-1.109 4.244 0 1.107 1.109 1.107 3.142 0 4.251-.369.37-7.935 7.579-17.346 7.579zM358.402 210.96c-4.06 0-7.935-2.957-8.673-3.697-1.292-1.109-1.476-2.957-.369-4.251 1.107-1.294 2.952-1.478 4.244-.369 1.292 1.109 3.875 2.402 5.167 2.218 2.03-2.403-.185-4.991-.185-4.991-1.107-1.294-.922-3.142.369-4.251 1.292-1.109 3.137-.924 4.245.369 1.845 2.219 4.428 7.579.922 12.384-1.107 1.479-2.768 2.403-4.428 2.588h-1.292zM277.023 236.467c-8.673 0-10.703-5.36-12.18-9.611-.922-2.403-1.66-4.621-3.506-6.285-2.768-2.772-7.196-4.436-11.441-4.066-2.398.185-5.72 1.109-8.303 4.436-.923 1.294-2.768 1.663-4.245.739-1.291-.924-1.66-2.957-.738-4.251 2.953-4.067 7.381-6.469 12.548-7.024 5.905-.37 11.995 1.848 16.055 5.915 2.767 2.772 3.875 5.915 4.797 8.502 1.477 4.067 2.03 5.73 6.643 5.73 1.661 0 2.953 1.294 2.953 2.958.554 1.663-.923 2.957-2.583 2.957z"/><path d="M250.82 277.132c-.923 0-2.03-.555-2.583-1.294-.923-1.479-.554-3.327.922-4.251 3.322-2.218 1.292-6.654-4.244-16.451l-2.214-4.066c-7.012-12.939 3.321-24.029 9.78-28.28 1.476-.924 3.321-.37 4.244.924.923 1.479.554 3.327-.923 4.251-.553.37-13.839 9.057-7.75 20.147l2.215 4.067c5.166 9.242 10.518 18.853 2.214 24.398-.369.37-.923.555-1.661.555z"/><path d="M268.532 256.43c-.923 0-1.661 0-2.584-.185-9.411-1.294-11.441-14.787-11.072-17.559.185-1.664 1.846-2.773 3.322-2.588 1.661.185 2.768 1.664 2.583 3.327-.184 1.664 1.477 10.166 5.905 10.721 5.721.924 7.566-2.403 7.751-3.327.369-1.664 1.845-2.773 3.506-2.403 1.661.369 2.768 1.848 2.399 3.512-.738 3.512-4.429 8.502-11.81 8.502zM289.204 254.766c-1.107 0-2.215-.554-2.768-1.663-3.137-6.285-.923-10.906 1.476-15.711a66.3 66.3 0 002.214-4.991c1.477-3.697 1.108-6.839-1.107-9.427-2.768-3.327-7.381-4.62-8.304-4.436-1.476.74-3.137.185-3.875-1.293-.738-1.479 0-3.328 1.292-4.252 3.321-1.848 9.78.74 13.655 4.067 2.953 2.587 7.566 8.502 4.06 17.559-.738 2.033-1.661 3.697-2.399 5.36-2.214 4.621-3.137 6.839-1.476 10.351.738 1.479.184 3.327-1.292 4.067-.554.184-1.107.369-1.476.369zM281.083 297.832c-.554 0-1.292-.184-1.661-.554-4.798-3.327-6.274-9.057-7.751-19.223-1.107-7.209-4.244-9.427-6.274-10.905-.738-.555-1.291-.925-1.66-1.294-1.108-1.109-1.108-2.958 0-4.251 1.107-1.109 3.137-1.294 4.244 0 .184.184.553.369.738.554 2.399 1.664 7.381 5.175 8.857 14.972 1.477 9.611 2.768 13.308 5.352 15.156 1.292.924 1.661 2.773.738 4.252-.738.739-1.661 1.293-2.583 1.293zM313.189 282.122c-.554 0-1.107-.185-1.476-.37-3.322-2.033-5.536-2.402-10.518-3.142-1.477-.185-3.322-.554-5.352-.739-5.167-.924-9.78-4.436-12.548-9.981-.738-1.294-2.768-5.73-1.476-8.318.738-1.479 2.583-2.033 4.059-1.294 1.292.555 1.846 2.033 1.661 3.512.185 1.664 2.953 9.057 9.411 10.166 2.03.37 3.691.555 5.167.739 5.352.74 8.304 1.294 12.733 3.882 1.476.924 1.845 2.773 1.107 4.066-.738.925-1.661 1.479-2.768 1.479zM301.933 263.084c-1.108 0-2.215-.739-2.768-1.848-.554-1.479 0-3.327 1.66-3.882 7.197-2.957 10.703-5.545 10.15-11.09-.185-1.479-1.292-15.341 4.059-20.702 1.477-1.478 3.137-2.033 5.167-1.848 1.661.185 2.953 1.664 2.768 3.327-.184 1.664-1.661 2.773-3.321 2.773-2.215 2.033-3.322 9.241-2.584 16.08.923 10.906-8.673 14.972-13.84 17.19-.553-.185-.922 0-1.291 0zM301.011 247.927c-.554 0-1.107-.185-1.476-.369-1.476-.925-1.845-2.773-1.107-4.067.184-.369.369-1.294.738-2.033 1.107-3.512 2.03-6.469 4.613-6.839 1.661-.37 3.322.739 3.506 2.403.185 1.294-.184 2.403-1.292 3.142-.369.74-.922 2.403-1.107 3.327-.553 1.664-.922 2.588-1.291 3.327-.554.555-1.661 1.109-2.584 1.109zM303.227 307.814c-1.292 0-2.583-.924-2.953-2.218 0 0-1.476-5.36-3.875-9.981-2.03-3.881-5.167-5.914-8.673-8.132l-.738-.555c-1.476-.924-1.845-2.773-.922-4.066.922-1.479 2.767-1.849 4.244-.925l.738.555c3.875 2.403 8.119 5.175 10.887 10.536 2.584 5.175 4.244 10.905 4.244 11.09.37 1.663-.553 3.327-2.214 3.696h-.738zM310.792 270.292c-1.292 0-2.399-.739-2.768-1.848-.554-1.479.184-3.327 1.66-3.882 2.399-.924 3.691-2.587 5.167-4.621 2.03-2.587 4.429-5.729 9.78-7.208 1.661-.37 3.322.554 3.691 2.033.369 1.664-.554 3.327-2.03 3.697-3.321.924-4.798 2.772-6.643 5.175-1.845 2.218-3.691 4.806-7.566 6.469-.369.185-.738.185-1.291.185zM244.361 298.203h-.738c-1.661-.37-2.583-2.033-2.214-3.512.738-2.957 3.875-4.066 8.119-5.545 2.03-.739 4.429-1.479 6.274-2.588 4.429-2.218 2.768-8.502 2.768-8.687-.369-1.664.554-3.327 2.03-3.697 1.661-.369 3.322.555 3.691 2.033 1.107 3.697 1.107 12.015-5.721 15.527-2.399 1.294-4.797 2.033-7.196 2.957-1.477.555-3.691 1.294-4.429 1.664-.369 1.293-1.476 1.848-2.584 1.848zM319.278 300.237h-.738c-3.506-.925-8.304-3.697-10.334-6.839-.923-1.479-.553-3.327.923-4.252 1.476-.924 3.321-.554 4.244.925 1.107 1.478 4.429 3.696 6.828 4.251 1.66.37 2.583 2.033 2.214 3.697-.554 1.293-1.845 2.218-3.137 2.218zM232.182 274.359c-.554 0-1.108 0-1.661-.185-1.661-.369-2.768-1.848-2.399-3.512.369-1.663 2.03-2.772 3.506-2.403 2.952.555 6.643-4.251 7.197-5.36.738-1.478 2.583-2.033 4.059-1.294 1.477.74 2.03 2.588 1.292 4.067-.738 1.478-5.72 8.687-11.994 8.687zM308.762 224.084l-5.352-2.773c2.584-4.806 6.828-12.753 18.084-11.46 1.661.185 2.768 1.664 2.584 3.327-.185 1.664-1.846 2.773-3.322 2.588-6.828-.739-9.226 2.773-11.994 8.318zM232.366 247.743c-.369 0-.738 0-1.292-.185-1.476-.739-2.214-2.403-1.476-4.066.923-2.218.923-2.773.923-2.773-.923-1.479-1.476-2.957-.369-5.73.553-1.478 2.399-2.218 3.875-1.663 1.476.554 2.214 2.403 1.661 3.881l-.185.37c1.107 1.663 1.476 3.881-.369 8.133-.369 1.294-1.476 2.033-2.768 2.033zM297.69 211.7c-.738 0-1.291 0-2.029-.185-10.703-1.109-16.424-9.797-16.977-11.46-.554-1.479.184-3.327 1.661-3.882 1.476-.554 3.321.185 3.875 1.664.553 1.109 4.798 6.839 12.179 7.763 7.381.924 14.393-5.73 14.393-5.73 1.292-1.109 3.137-1.109 4.244 0 1.108 1.109 1.108 3.142 0 4.251-.553.37-7.934 7.579-17.346 7.579zM327.953 293.582c-.738 0-1.477-.369-2.03-.924-1.476-1.478-6.09-6.284-4.06-10.535 1.846-4.067 7.751-4.067 11.995-3.697 1.661.185 2.952 1.663 2.768 3.327-.185 1.663-1.661 2.957-3.322 2.772-4.982-.369-6.089.37-6.089.37.184.185 1.476 2.218 2.952 3.512 1.292 1.109 1.292 3.142.185 4.251-.738.555-1.661.924-2.399.924zM267.796 210.96c-4.059 0-7.934-2.957-8.673-3.697-1.291-1.109-1.476-2.957-.369-4.251 1.108-1.294 2.953-1.478 4.245-.369 1.291 1.109 3.875 2.402 5.166 2.218 2.03-2.403-.184-4.991-.184-4.991-1.107-1.294-.923-3.142.369-4.251 1.292-1.109 3.137-.924 4.244.369 1.845 2.219 4.429 7.579.923 12.384-1.107 1.479-2.768 2.403-4.429 2.588h-1.292zM198.598 254.765c-1.107 0-2.214-.554-2.768-1.663-3.137-6.285-.922-10.721 1.477-15.711a66.3 66.3 0 002.214-4.991c1.476-3.697 1.107-6.839-1.107-9.427-2.768-3.327-7.381-4.62-8.304-4.436-1.476.74-3.137.185-3.875-1.293-.738-1.479 0-3.327 1.476-4.252 3.322-1.848 9.78.74 13.655 4.067 2.953 2.587 7.566 8.502 4.06 17.559-.738 2.033-1.661 3.697-2.399 5.36-2.214 4.621-3.137 6.839-1.476 10.351.738 1.479.184 3.327-1.292 4.067-.738.184-1.291.369-1.661.369zM190.478 297.832c-.554 0-1.292-.185-1.845-.554-4.614-3.327-6.274-9.057-7.751-19.223-1.107-7.209-4.244-9.427-6.274-10.906-.738-.554-1.291-.924-1.66-1.294-1.108-1.109-1.108-2.957 0-4.251 1.107-1.109 3.137-1.109 4.244 0 .184.185.369.37.738.555 2.399 1.663 7.381 5.175 8.857 14.971 1.477 9.612 2.768 13.309 5.352 15.157 1.292.924 1.661 2.773.738 4.251-.554.74-1.476 1.294-2.399 1.294zM222.77 282.121c-.553 0-1.107-.185-1.476-.37-3.322-2.033-5.536-2.403-10.518-3.142-1.477-.185-3.322-.555-5.352-.739-5.167-.925-9.78-4.436-12.548-9.982-.738-1.663-2.583-5.729-1.476-8.132.738-1.479 2.583-2.034 4.06-1.294 1.291.739 1.845 2.033 1.66 3.512.185 1.663 2.953 9.057 9.412 10.166 2.029.369 3.69.554 5.166.739 5.352.739 8.304 1.294 12.733 3.882 1.476.924 1.845 2.772 1.107 4.066-.738.739-1.845 1.294-2.768 1.294z"/><path d="M211.331 263.083c-1.107 0-2.214-.739-2.768-1.848-.554-1.479 0-3.327 1.661-3.882 7.197-2.957 10.703-5.545 10.149-11.09-.184-1.479-1.292-15.341 4.06-20.702 1.476-1.478 3.137-2.033 5.167-1.848 1.66.185 2.952 1.664 2.768 3.327-.185 1.664-1.661 2.773-3.322 2.773-2.214 2.033-3.322 9.241-2.583 16.08.922 10.906-8.673 14.972-13.84 17.19-.369-.185-.738 0-1.292 0zM210.406 247.926c-.554 0-1.108-.185-1.477-.369-1.476-.925-1.845-2.773-1.107-4.067.185-.369.369-1.294.738-2.033 1.107-3.512 2.03-6.469 4.614-6.839 1.66-.37 3.321.739 3.506 2.403.184 1.109-.185 2.403-1.108 2.957-.369.74-.922 2.403-1.107 3.327-.553 1.664-.922 2.588-1.291 3.327-.739.74-1.661 1.294-2.768 1.294zM212.621 307.813c-1.291 0-2.583-.925-2.952-2.218 0 0-1.476-5.361-3.875-9.982-2.03-3.881-5.167-5.914-8.673-8.132l-.738-.555c-1.477-.924-1.846-2.772-.923-4.066.923-1.479 2.768-1.849 4.244-.925l.738.37c4.06 2.588 8.12 5.176 10.888 10.536 2.583 5.175 4.244 10.905 4.244 11.09.369 1.663-.554 3.327-2.214 3.697-.185.185-.37.185-.739.185zM220.374 270.291c-1.292 0-2.399-.739-2.768-1.848-.554-1.479.184-3.327 1.66-3.882 2.399-.924 3.691-2.587 5.167-4.62 2.03-2.588 4.429-5.73 9.78-7.209 1.661-.37 3.322.554 3.691 2.033.369 1.664-.553 3.327-2.03 3.697-3.321.924-4.798 2.772-6.643 5.175-1.845 2.218-3.69 4.806-7.566 6.47-.553.184-.922.184-1.291.184zM228.676 300.235h-.738c-3.506-.925-8.304-3.697-10.333-6.839-.923-1.479-.554-3.327.922-4.252 1.476-.924 3.322-.554 4.244.925 1.108 1.478 4.429 3.696 6.828 4.251 1.661.37 2.584 2.033 2.214 3.697-.369 1.294-1.66 2.218-3.137 2.218zM218.16 224.083l-5.351-2.773c2.583-4.806 6.827-12.753 18.084-11.46 1.66.185 2.768 1.664 2.583 3.327-.184 1.664-1.845 2.773-3.321 2.588-6.644-.739-9.043 2.773-11.995 8.318zM207.085 211.699c-.738 0-1.292 0-2.03-.185-10.703-1.109-16.423-9.797-16.977-11.46-.553-1.479.185-3.327 1.661-3.882 1.476-.554 3.322.185 3.875 1.664.554 1.109 4.798 6.839 12.179 7.763 7.566.924 14.394-5.73 14.394-5.73 1.107-1.109 3.137-1.109 4.244 0 1.107 1.109 1.107 3.142 0 4.251-.369.37-7.935 7.579-17.346 7.579zM237.347 293.581c-.738 0-1.476-.37-2.03-.925-1.476-1.478-6.089-6.284-4.059-10.535 1.845-4.067 7.75-4.067 11.994-3.697 1.661.185 2.953 1.663 2.768 3.327-.184 1.663-1.661 2.957-3.321 2.773-4.983-.37-6.09.369-6.09.369.185.185 1.476 2.218 2.953 3.512 1.291 1.109 1.291 3.142.184 4.251-.738.555-1.476.925-2.399.925zM367.994 165.675c-.554 0-1.107 0-1.661-.184-1.661-.37-2.768-1.849-2.399-3.512.369-1.664 1.846-2.773 3.506-2.403 2.768.554 6.644-4.251 7.197-5.36.738-1.479 2.584-2.034 4.06-1.294 1.476.739 2.03 2.587 1.292 4.066-.923 1.664-5.721 8.687-11.995 8.687zM296.215 168.263c-.923 0-2.03-.555-2.584-1.294-.922-1.479-.553-3.327.923-4.251 3.321-2.218 1.292-6.655-4.244-16.451l-2.215-4.066c-7.012-12.939 3.322-24.029 9.78-28.28 1.477-.924 3.322-.555 4.245.924.922 1.479.553 3.327-.923 4.251-.554.37-13.84 9.057-7.75 20.147l2.214 4.067c5.167 9.242 10.518 18.853 2.214 24.398-.553.37-1.107.555-1.66.555z"/><path d="M313.743 147.561c-.738 0-1.661 0-2.584-.185-9.411-1.294-11.441-14.787-11.072-17.559.185-1.664 1.661-2.773 3.322-2.588 1.661.185 2.768 1.664 2.583 3.327-.184 1.664 1.477 10.166 5.905 10.721 5.721.739 7.566-2.403 7.751-3.327.369-1.664 1.845-2.773 3.506-2.403 1.661.369 2.768 1.848 2.399 3.512-.554 3.511-4.429 8.502-11.81 8.502zM326.294 188.964a3.556 3.556 0 01-1.845-.555c-4.613-3.327-6.274-9.057-7.75-19.223-1.107-7.208-4.244-9.426-6.274-10.905-.738-.554-1.292-.924-1.661-1.294-1.107-1.109-1.107-3.142 0-4.251 1.107-1.109 3.137-1.109 4.244 0 .185.185.369.37.738.555 2.399 1.663 7.382 5.175 8.858 14.971 1.476 9.612 2.768 13.308 5.351 15.157 1.292.924 1.661 2.772.738 4.251-.553.924-1.476 1.294-2.399 1.294zM358.587 173.253c-.553 0-1.107-.185-1.476-.37-3.321-2.033-5.536-2.403-10.518-3.142-1.476-.185-3.322-.555-5.351-.739-5.167-.925-9.781-4.436-12.549-9.981-.738-1.294-2.768-5.73-1.476-8.318.738-1.479 2.584-2.033 4.06-1.294 1.292.555 1.845 2.033 1.661 3.512.184 1.663 2.952 9.057 9.411 10.166 2.03.37 3.69.554 5.167.739 5.351.74 8.304 1.294 12.732 3.882 1.476.924 1.846 2.772 1.107 4.066-.738 1.109-1.845 1.479-2.768 1.479zM347.144 154.215c-1.108 0-2.215-.739-2.768-1.848-.554-1.479 0-3.327 1.66-3.882 7.197-2.957 10.703-5.545 10.15-11.09-.185-1.479-1.292-15.526 4.059-20.702 1.477-1.478 3.137-2.033 5.167-1.848 1.661.185 2.953 1.663 2.768 3.327-.184 1.663-1.661 2.772-3.321 2.772-2.215 2.034-3.322 9.242-2.584 16.081.923 10.905-8.673 14.972-13.84 17.19-.369-.185-.738 0-1.291 0zM348.438 198.945c-1.292 0-2.584-.924-2.953-2.218 0 0-1.476-5.36-3.875-9.981-2.03-3.881-5.167-5.915-8.673-8.133l-.738-.554c-1.476-.924-1.845-2.773-.923-4.067.923-1.478 2.768-1.848 4.245-.924l.738.555c3.875 2.403 8.119 5.175 10.887 10.535 2.584 5.176 4.244 10.906 4.244 11.091.369 1.663-.553 3.327-2.03 3.696h-.922zM356.186 161.609c-1.292 0-2.399-.74-2.768-1.849-.553-1.478.185-3.327 1.661-3.881 2.399-.924 3.691-2.588 5.167-4.621 2.03-2.588 4.429-5.73 9.78-7.209 1.661-.369 3.322.555 3.691 2.033.369 1.664-.554 3.328-2.03 3.697-3.322.924-4.798 2.773-6.643 4.991-1.846 2.218-3.691 4.806-7.566 6.469-.554.185-.923.37-1.292.37zM289.572 189.519h-.738c-1.661-.37-2.583-2.034-2.214-3.697.738-2.957 3.875-4.066 8.119-5.545 2.03-.739 4.429-1.479 6.274-2.588 4.429-2.218 2.768-8.502 2.768-8.687-.369-1.664.554-3.327 2.03-3.697 1.661-.37 3.322.555 3.691 2.033 1.107 3.697 1.107 12.015-5.721 15.527-2.399 1.293-4.798 2.033-7.196 2.957-1.477.554-3.691 1.294-4.429 1.663-.185 1.294-1.292 2.034-2.584 2.034zM364.491 191.552h-.738c-3.322-.924-8.304-3.697-10.334-6.839-.923-1.479-.554-3.327.738-4.251 1.292-.925 3.321-.555 4.244.739 1.107 1.479 4.429 3.697 6.828 4.251 1.661.37 2.583 2.033 2.214 3.697-.369 1.479-1.476 2.403-2.952 2.403zM277.393 165.675c-.554 0-1.108 0-1.661-.184-1.661-.37-2.768-1.849-2.399-3.512.369-1.664 2.03-2.773 3.506-2.403 2.952.554 6.643-4.251 7.197-5.36.738-1.479 2.583-2.034 4.059-1.294 1.477.739 2.03 2.587 1.292 4.066-.554 1.294-5.536 8.687-11.994 8.687z"/><path d="M326.846 201.903c-2.768 0-5.72-.739-8.304-2.772-7.012-5.361-8.304-9.057-8.304-13.863 0-1.664 1.292-2.957 2.953-2.957 1.661 0 2.952 1.293 2.952 2.957 0 2.218 0 4.436 5.905 9.057 4.798 3.697 12.179-.555 12.179-.739 1.477-.925 3.322-.37 4.06.924.923 1.478.369 3.327-.923 4.066 0 .555-4.797 3.327-10.518 3.327zM373.164 184.713c-.738 0-1.477-.185-2.03-.924-1.476-1.294-6.09-6.284-4.06-10.536 1.845-4.066 7.75-4.066 11.995-3.696 1.66.185 2.952 1.663 2.768 3.327-.185 1.663-1.661 2.957-3.322 2.772-4.982-.369-6.089.37-6.089.37.184.185 1.476 2.218 2.952 3.512 1.292 1.109 1.292 3.142 0 4.251a3.052 3.052 0 01-2.214.924zM205.609 168.263c-.922 0-2.03-.555-2.583-1.294-.923-1.479-.554-3.327.922-4.251 3.322-2.218 1.292-6.655-4.244-16.451l-2.214-4.066c-7.012-12.939 3.321-24.029 9.78-28.28 1.476-.924 3.322-.555 4.244.924.923 1.479.554 3.327-.922 4.251-.554.37-13.84 9.057-7.751 20.147l2.215 4.067c5.166 9.242 10.518 18.853 2.399 24.398-.739.37-1.292.555-1.846.555z"/><path d="M223.14 147.561c-.738 0-1.661 0-2.583-.185-9.596-1.294-11.441-14.787-11.072-17.559.184-1.664 1.661-2.773 3.321-2.588 1.661.185 2.768 1.664 2.584 3.327-.185 1.664 1.476 10.166 5.905 10.721 5.72.739 7.566-2.403 7.75-3.327.369-1.664 1.845-2.773 3.506-2.403 1.661.369 2.768 1.848 2.399 3.512-.554 3.511-4.244 8.502-11.81 8.502zM235.873 188.964a3.564 3.564 0 01-1.846-.554c-4.613-3.327-6.274-9.057-7.75-19.223-1.107-7.209-4.244-9.427-6.274-10.906-.738-.554-1.292-.924-1.661-1.293-1.107-1.109-1.107-2.958 0-4.252 1.107-1.109 3.137-1.293 4.244 0 .185.185.369.37.738.555 2.399 1.663 7.382 5.175 8.858 14.972 1.476 9.611 2.768 13.308 5.351 15.156 1.292.924 1.661 2.773.738 4.251-.553.925-1.476 1.294-2.398 1.294zM267.981 173.254c-.553 0-1.107-.185-1.476-.37-3.322-2.033-5.536-2.403-10.518-3.142-1.477-.185-3.322-.555-5.352-.74-5.167-.924-9.78-4.436-12.548-9.981-.738-1.663-2.583-5.73-1.476-8.133.738-1.478 2.583-2.033 4.06-1.293 1.291.739 1.845 2.033 1.66 3.512.185 1.663 2.953 9.056 9.411 10.165 2.03.37 3.691.555 5.167.74 5.352.739 8.304 1.294 12.733 3.881 1.476.925 1.845 2.773 1.107 4.067-.738.924-1.661 1.294-2.768 1.294zM256.726 154.215c-1.108 0-2.215-.739-2.768-1.848-.554-1.479 0-3.327 1.66-3.882 7.197-2.957 10.703-5.545 10.15-11.09-.185-1.479-1.292-15.342 4.059-20.702 1.477-1.478 3.137-2.033 5.167-1.848 1.661.185 2.953 1.663 2.768 3.327-.184 1.663-1.661 2.772-3.321 2.772-2.215 2.034-3.322 9.242-2.584 16.081.923 10.905-8.673 14.972-13.84 17.19-.553-.185-.922 0-1.291 0zM258.016 198.945c-1.292 0-2.583-.924-2.952-2.218 0 0-1.477-5.36-3.876-9.981-2.029-3.881-5.167-5.915-8.673-8.133l-.738-.554c-1.476-.924-1.845-2.773-.922-4.067.922-1.478 2.768-1.848 4.244-.924l.738.37c4.06 2.588 8.119 5.175 10.887 10.536 2.584 5.175 4.245 10.905 4.245 11.09.369 1.663-.554 3.327-2.215 3.697-.369.184-.553.184-.738.184zM265.581 161.609c-1.292 0-2.399-.74-2.768-1.849-.554-1.478.184-3.327 1.66-3.881 2.399-.924 3.691-2.588 5.167-4.621 2.03-2.588 4.429-5.73 9.781-7.209 1.66-.369 3.321.555 3.69 2.033.369 1.664-.553 3.328-2.03 3.697-3.321.924-4.798 2.773-6.643 5.176-1.845 2.218-3.69 4.805-7.566 6.469-.553 0-.922.185-1.291.185zM199.15 189.519h-.738c-1.66-.37-2.583-2.033-2.214-3.697.738-2.957 3.875-4.066 8.119-5.545 2.03-.739 4.429-1.478 6.274-2.587 4.245-2.219 2.768-8.503 2.768-8.688-.369-1.663.554-3.327 2.03-3.696 1.661-.37 3.322.554 3.691 2.218 1.107 3.881 1.107 12.014-5.721 15.526-2.399 1.294-4.797 2.033-7.196 2.957-1.477.555-3.691 1.294-4.429 1.664-.369 1.109-1.476 1.848-2.584 1.848zM274.071 191.552h-.738c-3.506-.924-8.304-3.697-10.334-6.839-.923-1.479-.553-3.327.923-4.251 1.476-.924 3.321-.555 4.244.924 1.107 1.479 4.429 3.697 6.828 4.251 1.66.37 2.583 2.033 2.214 3.697-.554 1.294-1.845 2.218-3.137 2.218zM186.787 165.675c-.554 0-1.107 0-1.661-.184-1.661-.37-2.768-1.849-2.399-3.512.369-1.664 1.846-2.773 3.506-2.403 2.768.554 6.644-4.251 7.382-5.36.738-1.479 2.583-2.034 4.059-1.294 1.477.739 2.03 2.587 1.292 4.066-.923 1.664-5.72 8.687-12.179 8.687z"/><path d="M236.424 201.903c-2.768 0-5.72-.739-8.304-2.772-7.012-5.361-8.304-9.057-8.304-13.863 0-1.664 1.292-2.957 2.953-2.957 1.661 0 2.952 1.293 2.952 2.957 0 2.218 0 4.436 5.905 9.057 4.798 3.697 12.179-.555 12.179-.739 1.477-.925 3.322-.37 4.06.924.923 1.478.369 3.327-.923 4.066-.184.555-4.982 3.327-10.518 3.327zM282.746 184.713c-.738 0-1.477-.185-2.03-.739-1.476-1.479-6.09-6.285-4.06-10.536 1.845-4.066 7.75-4.066 11.995-3.697 1.66.185 2.952 1.664 2.768 3.327-.185 1.664-1.661 2.958-3.322 2.773-4.982-.37-6.089.37-6.089.37.184.184 1.476 2.218 2.952 3.511 1.292 1.109 1.292 3.143.185 4.252-.923.369-1.661.739-2.399.739zM175.163 161.609c-1.292 0-2.399-.74-2.768-1.849-.554-1.478.184-3.327 1.661-3.881 2.398-.924 3.69-2.588 5.166-4.621 2.03-2.588 4.429-5.73 9.781-7.209 1.66-.369 3.321.555 3.69 2.033.369 1.664-.553 3.328-2.03 3.697-3.321.924-4.798 2.773-6.643 4.991-1.845 2.218-3.69 4.806-7.566 6.469-.553.185-.922.37-1.291.37zM192.136 184.713c-.738 0-1.476-.185-2.029-.924-1.477-1.294-6.09-6.284-4.06-10.536 1.845-4.066 7.75-4.066 11.994-3.696 1.661.185 2.953 1.663 2.768 3.327-.184 1.663-1.66 2.957-3.321 2.772-4.983-.369-6.09.37-6.09.37.185.185 1.476 2.218 2.953 3.512 1.291 1.109 1.291 3.142.184 4.251-.738.555-1.476.924-2.399.924zM231.812 127.784c-8.673 0-10.703-5.361-12.179-9.612-.923-2.403-1.661-4.621-3.507-6.284-2.768-2.773-7.381-4.436-11.441-4.067-2.398.185-5.72 1.109-8.303 4.436-.923 1.294-2.768 1.664-4.245.74-1.291-.925-1.66-2.958-.738-4.252 2.953-4.066 7.381-6.469 12.548-7.023 5.905-.555 11.995 1.848 16.055 5.914 2.768 2.773 3.875 5.915 4.797 8.503 1.477 4.066 2.03 5.73 6.644 5.73 1.66 0 2.952 1.294 2.952 2.957.369 1.479-.923 2.958-2.583 2.958zM187.155 138.874c-.369 0-.738 0-1.292-.185-1.476-.739-2.214-2.403-1.476-4.066.923-2.218.923-2.773.923-2.773-.923-1.479-1.476-2.957-.369-5.73.553-1.479 2.399-2.218 3.875-1.663 1.476.554 2.214 2.402 1.661 3.881l-.185.37c1.107 1.663 1.476 3.881-.369 8.133-.553 1.293-1.661 2.033-2.768 2.033zM141.205 127.784c-8.673 0-10.703-5.36-12.179-9.611-.923-2.403-1.661-4.621-3.506-6.285-2.768-2.772-7.197-4.436-11.256-4.066-2.399.185-5.721 1.109-8.304 4.436-.923 1.294-2.953 1.664-4.245.739-1.291-.924-1.66-2.957-.738-4.251 2.953-4.066 7.382-6.469 12.548-7.024 5.905-.369 11.995 1.849 16.055 5.915 2.768 2.773 3.875 5.915 4.797 8.503 1.477 4.066 2.03 5.73 6.644 5.73 1.66 0 2.952 1.293 2.952 2.957.369 1.479-1.107 2.957-2.768 2.957z"/><path d="M115.187 168.264c-.922 0-1.845-.555-2.583-1.294-.923-1.479-.554-3.327.923-4.251 3.321-2.218 1.291-6.655-4.245-16.451l-2.214-4.066c-7.012-12.939 3.321-24.029 9.78-28.28 1.292-.924 3.322-.555 4.06.924.922 1.479.553 3.327-.923 4.251-.553.37-13.84 9.057-7.75 20.147l2.214 4.067c5.167 9.242 10.518 18.853 2.399 24.398-.554.37-1.107.555-1.661.555z"/><path d="M132.719 147.562c-.738 0-1.66 0-2.583-.185-9.411-1.294-11.441-14.787-11.072-17.559.185-1.664 1.845-2.773 3.322-2.588 1.66.185 2.768 1.664 2.583 3.327-.185 1.664 1.476 10.166 5.905 10.721 5.167.739 7.381-1.849 7.75-3.327.369-1.664 1.846-2.773 3.506-2.403 1.661.369 2.768 1.848 2.399 3.512-.738 3.511-4.428 8.502-11.81 8.502zM153.385 145.898c-1.108 0-2.215-.554-2.768-1.663-3.137-6.285-.923-10.906 1.476-15.712a66.086 66.086 0 002.214-4.99c1.476-3.697 1.107-6.839-1.107-9.427-2.768-3.327-7.381-4.621-8.488-4.436-1.477.74-3.137.185-3.876-1.294-.738-1.478 0-3.327 1.477-4.251 3.321-1.848 9.78.739 13.655 4.067 2.953 2.587 7.566 8.502 4.06 17.559-.738 2.033-1.661 3.697-2.399 5.36-2.215 4.621-3.137 6.839-1.476 10.351.738 1.479.184 3.327-1.292 4.066-.554.185-1.107.37-1.476.37zM166.12 154.216c-1.107 0-2.399-.739-2.768-1.848-.553-1.479 0-3.327 1.661-3.882 7.197-2.957 10.703-5.545 10.149-11.09-.184-1.479-1.292-15.526 4.06-20.702 1.476-1.479 3.321-2.033 5.167-1.848 1.66.185 2.952 1.663 2.768 3.327-.185 1.663-1.661 2.772-3.322 2.772-2.214 2.034-3.321 9.242-2.583 16.081.922 10.905-8.673 14.972-13.84 17.19-.554-.185-.923 0-1.292 0zM165.195 139.059c-.554 0-1.108-.184-1.477-.369-1.476-.924-1.845-2.773-1.107-4.067.185-.369.369-1.109.738-2.033 1.108-3.512 2.03-6.469 4.614-7.024 1.66-.369 3.137.74 3.506 2.403.184 1.294-.369 2.403-1.292 3.142-.369.74-.923 2.403-1.292 3.327-.553 1.664-.738 2.588-1.291 3.328-.369.739-1.477 1.293-2.399 1.293zM175.159 161.609c-1.292 0-2.399-.74-2.768-1.849-.554-1.478.184-3.327 1.661-3.881 2.399-.924 3.69-2.588 5.166-4.621 2.03-2.588 4.429-5.73 9.781-7.209 1.66-.369 3.321.555 3.69 2.033.369 1.664-.553 3.328-2.03 3.697-3.321.924-4.797 2.773-6.643 4.991-1.845 2.218-3.69 4.805-7.565 6.469-.554.185-.923.37-1.292.37zM172.945 115.215l-5.351-2.772c2.583-4.806 6.827-12.939 18.084-11.275 1.661.185 2.768 1.663 2.583 3.327-.184 1.664-1.845 2.773-3.321 2.588-6.828-.925-9.227 2.587-11.995 8.132zM161.874 102.831c-.738 0-1.292 0-2.03-.184-10.703-1.109-16.423-9.797-16.977-11.46-.553-1.479.185-3.327 1.661-3.882 1.476-.554 3.322.185 3.875 1.664.554 1.109 4.798 6.839 12.179 7.763 7.566.74 14.394-5.73 14.394-5.73 1.107-1.11 3.137-1.11 4.244 0 1.107 1.109 1.107 3.142 0 4.251-.554.555-7.935 7.578-17.346 7.578zM132.164 102.092c-4.06 0-7.935-2.957-8.673-3.697-1.292-1.109-1.477-2.957-.369-4.25 1.107-1.295 2.952-1.48 4.244-.37 1.291 1.108 3.875 2.402 5.167 2.218 2.029-2.403-.185-4.991-.185-4.991-1.107-1.294-.923-3.142.369-4.251 1.292-1.11 3.137-.925 4.244.37 1.846 2.217 4.429 7.578.923 12.383-1.107 1.479-2.583 2.403-4.429 2.588h-1.291zM186.601 18.915c-8.673 0-10.703-5.36-12.179-9.611-.923-2.403-1.661-4.621-3.507-6.285-2.767-2.772-7.196-4.436-11.44-4.066-2.399.185-5.721 1.109-8.304 4.436-.923 1.294-2.768 1.664-4.245.74-1.291-.925-1.66-2.958-.738-4.252 2.953-4.066 7.382-6.47 12.548-7.024 5.905-.37 11.995 1.849 16.055 5.915 2.768 2.773 3.875 5.915 4.797 8.503 1.477 4.066 2.03 5.73 6.644 5.73 1.66 0 2.952 1.293 2.952 2.957.369 1.663-.923 2.957-2.583 2.957z"/><path d="M160.398 59.394c-.922 0-1.845-.554-2.583-1.294-.923-1.478-.554-3.327.922-4.25 3.322-2.219 1.292-6.655-4.244-16.451l-2.214-4.067c-7.012-12.938 3.321-24.028 9.78-28.095 1.476-.924 3.322-.554 4.244.924.923 1.48.554 3.327-.922 4.252-.554.37-13.84 9.057-7.751 20.147l2.215 4.066c5.167 9.242 10.518 18.853 2.399 24.399-.739.37-1.292.37-1.846.37z"/><path d="M177.929 38.693c-.738 0-1.661 0-2.583-.185-9.596-1.294-11.441-14.787-11.072-17.56.184-1.663 1.661-2.772 3.321-2.587 1.661.185 2.768 1.663 2.584 3.327-.185 1.664 1.476 10.166 5.905 10.72 5.72.74 7.566-2.402 7.75-3.327.369-1.663 1.845-2.772 3.506-2.402 1.661.37 2.768 1.848 2.399 3.511-.554 3.512-4.429 8.503-11.81 8.503zM198.595 37.029c-1.108 0-2.215-.555-2.768-1.664-3.137-6.284-.923-10.905 1.476-15.71a66.175 66.175 0 002.214-4.991c1.476-3.697 1.107-6.84-1.107-9.427-2.768-3.327-7.197-4.62-8.304-4.436-1.476.74-3.137.185-3.875-1.294-.738-1.478 0-3.327 1.476-4.251 3.322-1.848 9.78.74 13.656 4.066 2.952 2.588 7.565 8.503 4.059 17.56-.738 2.033-1.661 3.696-2.399 5.36-2.214 4.62-3.137 6.839-1.476 10.35.738 1.48.185 3.328-1.292 4.067-.738.37-1.291.37-1.66.37zM190.478 80.096c-.554 0-1.292-.185-1.845-.555-4.614-3.327-6.274-9.057-7.751-19.223-1.107-7.208-4.244-9.426-6.274-10.905-.738-.554-1.291-.924-1.66-1.294-1.108-1.109-1.108-2.957 0-4.251 1.107-1.11 3.137-1.11 4.244 0 .184.185.369.37.738.554 2.399 1.664 7.381 5.176 8.857 14.972 1.477 9.612 2.768 13.308 5.352 15.157 1.292.924 1.661 2.772.738 4.25-.554.925-1.476 1.295-2.399 1.295zM222.77 64.569c-.553 0-1.107-.185-1.476-.37-3.322-2.033-5.536-2.402-10.518-3.142-1.477-.185-3.137-.554-5.352-.74-5.167-.923-9.78-4.435-12.548-9.98-.738-1.664-2.583-5.73-1.476-8.133.738-1.479 2.583-2.033 4.06-1.294 1.291.74 1.845 2.033 1.66 3.512.185 1.664 2.953 9.057 9.412 10.166 2.029.37 3.69.554 5.166.74 5.352.739 8.304 1.293 12.733 3.88 1.476.925 1.845 2.773 1.107 4.067-.738.74-1.845 1.294-2.768 1.294zM153.756 80.65h-.738c-1.661-.369-2.584-2.032-2.215-3.696.739-2.957 3.876-4.066 8.12-5.545 2.03-.74 4.429-1.479 6.274-2.588 4.244-2.218 2.768-8.502 2.768-8.687-.369-1.663.553-3.327 2.214-3.697 1.661-.37 3.322.555 3.691 2.218 1.107 3.882 1.107 12.015-5.721 15.527-2.399 1.293-4.797 2.033-7.196 2.957-1.477.555-3.691 1.294-4.429 1.663-.369 1.11-1.476 1.849-2.768 1.849zM141.576 56.806c-.553 0-1.107 0-1.661-.184-1.66-.37-2.768-1.849-2.399-3.512.369-1.664 1.846-2.773 3.507-2.403 2.767.554 6.643-4.252 7.381-5.36.738-1.48 2.583-2.034 4.059-1.294 1.477.739 2.03 2.587 1.292 4.066-.923 1.848-5.905 8.687-12.179 8.687zM141.944 30.006c-.369 0-.738 0-1.291-.185-1.477-.74-2.215-2.403-1.477-4.067.923-2.218.923-2.772.923-2.772-.923-1.479-1.476-2.957-.369-5.73.553-1.479 2.399-2.218 3.875-1.664 1.476.555 2.214 2.403 1.661 3.882l-.185.37c1.107 1.663 1.477 3.881-.369 8.132-.553 1.48-1.661 2.034-2.768 2.034z"/><path d="M191.213 93.22c-2.768 0-5.72-.74-8.304-2.773-7.012-5.36-8.304-9.057-8.304-13.863 0-1.663 1.292-2.957 2.953-2.957 1.661 0 2.952 1.294 2.952 2.957 0 2.218 0 4.436 5.905 9.057 4.798 3.697 12.18-.554 12.18-.74 1.476-.923 3.321-.369 4.059.925.923 1.479.369 3.327-.922 4.067-.185.37-4.983 3.326-10.519 3.326zM107.99 37.03c-1.107 0-2.214-.555-2.768-1.664-3.137-6.285-.923-10.906 1.476-15.711a66.145 66.145 0 002.215-4.991c1.476-3.697 1.107-6.839-1.108-9.427-2.767-3.327-7.381-4.62-8.488-4.62-1.476.739-3.137.184-3.875-1.294-.738-1.479 0-3.327 1.476-4.252 3.322-1.848 9.78.74 13.655 4.067 2.953 2.588 7.566 8.502 4.06 17.56-.738 2.032-1.661 3.696-2.399 5.36-2.214 4.62-3.137 6.838-1.476 10.35.738 1.479.185 3.327-1.292 4.067-.553.554-.922.554-1.476.554zM132.166 64.57c-.554 0-1.108-.185-1.477-.37-3.321-2.034-5.536-2.403-10.518-3.143-1.476-.184-3.321-.554-5.351-.739-5.167-.924-9.78-4.436-12.548-9.981-.739-1.294-2.768-5.73-1.477-8.318.738-1.478 2.584-2.033 4.06-1.294 1.292.555 1.845 2.034 1.661 3.512.184 1.664 2.952 9.057 9.411 10.166 2.03.37 3.69.555 5.167.74 5.351.739 8.304 1.294 12.732 3.881 1.477.924 1.846 2.773 1.108 4.067-.739.924-1.661 1.478-2.768 1.478zM120.909 45.347c-1.107 0-2.399-.74-2.768-1.848-.553-1.479 0-3.327 1.661-3.882 7.197-2.957 10.703-5.545 10.149-11.09-.184-1.479-1.292-15.341 4.06-20.702 1.476-1.478 3.137-2.218 5.167-1.848 1.661.185 2.952 1.664 2.768 3.327-.185 1.664-1.661 2.773-3.322 2.773-2.214 2.033-3.321 9.241-2.583 16.08.922 10.906-8.673 14.972-13.84 17.19h-1.292zM119.8 30.19c-.553 0-1.107-.185-1.476-.37-1.476-.924-1.845-2.587-1.107-4.066.184-.37.369-1.294.738-2.033 1.107-3.512 2.03-6.47 4.613-7.024 1.661-.37 3.137.74 3.506 2.403.185 1.294-.369 2.403-1.291 3.142-.37.74-.923 2.403-1.108 3.327-.553 1.664-.738 2.588-1.291 3.327-.554.925-1.477 1.294-2.584 1.294zM122.2 90.262c-1.292 0-2.584-.924-2.953-2.218 0 0-1.476-5.36-3.875-9.981-2.03-3.882-4.982-5.915-8.673-8.133l-.738-.554c-1.476-.925-1.845-2.773-.923-4.252.923-1.478 2.768-1.848 4.244-.924l.739.555c3.875 2.403 8.119 4.99 10.887 10.535 2.583 5.176 4.244 10.906 4.244 11.09.369 1.664-.554 3.328-2.214 3.697-.185 0-.554.185-.738.185zM129.764 52.74c-1.291 0-2.399-.74-2.768-1.849-.553-1.478.185-3.327 1.661-3.881 2.399-.924 3.691-2.588 5.167-4.621 2.03-2.588 4.429-5.73 9.78-7.209 1.661-.37 3.322.555 3.691 2.033.369 1.664-.554 3.327-2.03 3.697-3.506 1.11-4.798 2.957-6.643 5.176-1.846 2.218-3.691 4.805-7.566 6.469-.554.185-.923.185-1.292.185zM138.255 82.684h-.739c-3.321-.924-8.303-3.697-10.333-6.84-.923-1.478-.554-3.326.922-4.25 1.292-.924 3.322-.555 4.245.924 1.107 1.479 4.428 3.697 6.827 4.251 1.661.37 2.584 2.033 2.215 3.697-.554 1.294-1.846 2.218-3.137 2.218zM127.551 6.346l-5.352-2.772c2.584-4.806 6.828-12.754 18.084-11.275 1.661.185 2.768 1.663 2.584 3.327-.185 1.663-1.846 2.772-3.322 2.587-6.643-.924-9.042 2.588-11.994 8.133zM100.608 93.22c-2.768 0-5.72-.74-8.304-2.773C85.292 85.087 84 81.39 84 76.584c0-1.663 1.292-2.957 2.953-2.957 1.66 0 2.952 1.294 2.952 2.957 0 2.218 0 4.436 6.09 9.057 4.797 3.697 12.179-.554 12.179-.74 1.476-.923 3.321-.369 4.059.925.923 1.479.369 3.327-.922 4.067-.369.37-5.167 3.326-10.703 3.326zM146.929 75.845c-.738 0-1.476-.185-2.03-.924-1.476-1.479-6.089-6.285-4.059-10.536 1.845-4.066 7.75-4.066 11.994-3.697 1.661.185 2.953 1.664 2.768 3.328-.184 1.663-1.661 2.957-3.321 2.772-4.983-.37-6.09.37-6.09.37.185.185 1.661 2.218 2.953 3.512 1.291 1.109 1.291 3.142.184 4.25-.738.74-1.661.925-2.399.925zM186.601 236.467c-8.673 0-10.703-5.36-12.179-9.611-.923-2.403-1.661-4.621-3.507-6.285-2.767-2.772-7.381-4.436-11.44-4.066-2.399.185-5.721 1.109-8.304 4.436-.923 1.294-2.768 1.663-4.245.739-1.291-.924-1.66-2.957-.738-4.251 2.953-4.067 7.382-6.469 12.548-7.024 5.905-.37 11.995 1.848 16.055 5.915 2.768 2.772 3.875 5.915 4.797 8.502 1.477 4.067 2.03 5.73 6.644 5.73 1.66 0 2.952 1.294 2.952 2.958.369 1.663-.923 2.957-2.583 2.957z"/><path d="M160.398 277.132c-.922 0-1.845-.555-2.583-1.294-.923-1.479-.554-3.327.922-4.251 3.322-2.218 1.292-6.654-4.244-16.451l-2.214-4.066c-7.012-12.939 3.321-24.029 9.78-28.28 1.476-.924 3.322-.37 4.244.924.923 1.479.554 3.327-.922 4.251-.554.37-13.84 9.057-7.751 20.147l2.215 4.067c5.167 9.242 10.518 18.853 2.399 24.398-.739.37-1.292.555-1.846.555z"/><path d="M177.929 256.43c-.738 0-1.661 0-2.583-.185-9.596-1.294-11.441-14.787-11.072-17.559.184-1.664 1.661-2.773 3.321-2.588 1.661.185 2.768 1.664 2.584 3.327-.185 1.664 1.476 10.166 5.905 10.721 5.72.739 7.566-2.403 7.75-3.327.369-1.664 1.845-2.773 3.506-2.403 1.661.369 2.768 1.848 2.399 3.512-.554 3.512-4.429 8.502-11.81 8.502zM198.595 254.766c-1.108 0-2.215-.554-2.768-1.663-3.137-6.285-.923-10.721 1.476-15.711a66.3 66.3 0 002.214-4.991c1.476-3.697 1.107-6.839-1.107-9.427-2.768-3.327-7.381-4.62-8.304-4.436-1.476.74-3.137.185-3.875-1.293-.738-1.479 0-3.328 1.476-4.252 3.322-1.848 9.78.74 13.656 4.067 2.952 2.587 7.565 8.502 4.059 17.559-.738 2.033-1.661 3.697-2.399 5.36-2.214 4.621-3.137 6.839-1.476 10.351.738 1.479.185 3.327-1.292 4.067-.738.184-1.291.369-1.66.369zM190.478 297.833c-.554 0-1.292-.185-1.845-.554-4.614-3.327-6.274-9.057-7.751-19.223-1.107-7.209-4.244-9.427-6.274-10.906-.738-.554-1.291-.924-1.66-1.294-1.108-1.109-1.108-2.957 0-4.251 1.107-1.109 3.137-1.109 4.244 0 .184.185.369.37.738.555 2.399 1.663 7.381 5.175 8.857 14.971 1.477 9.612 2.768 13.309 5.352 15.157 1.292.924 1.661 2.773.738 4.251-.554.74-1.476 1.294-2.399 1.294zM222.77 282.122c-.553 0-1.107-.185-1.476-.37-3.322-2.033-5.536-2.403-10.518-3.142-1.477-.185-3.322-.555-5.352-.739-5.167-.925-9.78-4.437-12.548-9.982-.738-1.663-2.583-5.73-1.476-8.132.738-1.479 2.583-2.034 4.06-1.294 1.291.739 1.845 2.033 1.66 3.512.185 1.663 2.953 9.057 9.412 10.166 2.029.369 3.69.554 5.166.739 5.352.739 8.304 1.294 12.733 3.882 1.476.924 1.845 2.772 1.107 4.066-.738.739-1.845 1.294-2.768 1.294zM153.756 298.203h-.738c-1.661-.369-2.584-2.033-2.215-3.512.739-2.957 3.876-4.066 8.12-5.545 2.03-.739 4.429-1.478 6.274-2.587 4.244-2.218 2.768-8.503 2.768-8.688-.369-1.663.553-3.327 2.214-3.696 1.661-.37 3.322.554 3.691 2.218 1.107 3.881 1.107 11.829-5.721 15.526-2.399 1.294-4.797 2.033-7.196 2.957-1.477.555-3.691 1.294-4.429 1.664-.369 1.109-1.476 1.663-2.768 1.663zM141.576 274.359c-.553 0-1.107 0-1.661-.185-1.66-.369-2.768-1.848-2.399-3.512.369-1.663 1.846-2.772 3.507-2.403 2.767.555 6.643-4.251 7.196-5.36.738-1.478 2.584-2.033 4.06-1.294 1.476.74 2.03 2.588 1.292 4.067-.739 1.848-5.721 8.687-11.995 8.687zM141.944 247.743c-.369 0-.738 0-1.291-.185-1.477-.739-2.215-2.403-1.477-4.066.923-2.218.923-2.773.923-2.773-.923-1.479-1.476-2.957-.369-5.73.553-1.478 2.399-2.218 3.875-1.663 1.476.554 2.214 2.403 1.661 3.881l-.185.37c1.107 1.663 1.477 3.881-.369 8.133-.553 1.294-1.661 2.033-2.768 2.033zM207.085 211.7c-.738 0-1.292 0-2.03-.185-10.703-1.109-16.423-9.797-16.977-11.46-.553-1.479.185-3.327 1.661-3.882 1.476-.554 3.322.185 3.875 1.664.554 1.109 4.798 6.839 12.179 7.763 7.566.924 14.394-5.73 14.394-5.73 1.107-1.109 3.137-1.109 4.244 0 1.107 1.109 1.107 3.142 0 4.251-.369.37-7.935 7.579-17.346 7.579zM177.374 210.96c-4.059 0-7.934-2.957-8.672-3.697-1.292-1.109-1.477-2.957-.37-4.251 1.108-1.294 2.953-1.478 4.245-.369 1.291 1.109 3.875 2.402 5.167 2.218 2.029-2.403-.185-4.991-.185-4.991-1.107-1.294-.923-3.142.369-4.251 1.292-1.109 3.137-.924 4.244.369 1.846 2.219 4.429 7.579.923 12.384-1.107 1.479-2.583 2.403-4.429 2.588h-1.292zM107.99 254.766c-1.107 0-2.214-.554-2.768-1.663-3.137-6.284-.923-10.905 1.476-15.711a66.105 66.105 0 002.215-4.991c1.476-3.696 1.107-6.839-1.108-9.426-2.767-3.327-7.381-4.621-8.488-4.621-1.476.739-3.137.185-3.875-1.294s0-3.327 1.476-4.251c3.322-1.849 9.78.739 13.655 4.066 2.953 2.588 7.566 8.503 4.06 17.56-.738 2.033-1.661 3.696-2.399 5.36-2.214 4.621-3.137 6.839-1.476 10.351.738 1.478.185 3.327-1.292 4.066-.553.37-.922.554-1.476.554zM132.163 282.122c-.553 0-1.107-.185-1.476-.37-3.322-2.033-5.536-2.402-10.518-3.142-1.477-.185-3.322-.554-5.352-.739-5.167-.924-9.78-4.436-12.548-9.981-.553-1.294-2.768-5.73-1.476-8.318.738-1.479 2.583-2.033 4.06-1.294 1.291.555 1.845 2.033 1.66 3.512.185 1.664 2.953 9.057 9.412 10.166 2.029.37 3.69.555 5.166.739 5.352.74 8.304 1.294 12.733 3.882 1.476.924 1.845 2.773 1.107 4.066-.738.925-1.661 1.479-2.768 1.479z"/><path d="M120.909 263.084c-1.107 0-2.399-.739-2.768-1.848-.553-1.479 0-3.327 1.661-3.882 7.197-2.957 10.703-5.545 10.149-11.09-.184-1.479-1.292-15.341 4.06-20.702 1.476-1.478 3.137-2.033 5.167-1.848 1.661.185 2.952 1.664 2.768 3.327-.185 1.664-1.661 2.773-3.322 2.773-2.214 2.033-3.321 9.241-2.583 16.08.922 10.906-8.673 14.972-13.84 17.19-.554-.185-.923 0-1.292 0zM119.8 247.928c-.553 0-1.107-.185-1.476-.37-1.476-.924-1.845-2.588-1.107-4.067.184-.369.369-1.293.738-2.033 1.107-3.512 2.03-6.469 4.613-7.023 1.661-.37 3.137.739 3.506 2.402.185 1.294-.369 2.403-1.291 3.143-.37.739-.923 2.402-1.292 3.327-.554 1.663-.738 2.587-1.292 3.327-.369.739-1.292 1.294-2.399 1.294zM122.2 307.814c-1.292 0-2.584-.924-2.953-2.218 0 0-1.476-5.36-3.875-9.981-2.03-3.881-5.167-5.914-8.673-8.132l-.738-.555c-1.476-.924-1.845-2.773-.923-4.066.923-1.479 2.768-1.849 4.244-.925l.739.555c3.875 2.403 8.119 5.175 10.887 10.536 2.583 5.175 4.244 10.905 4.244 11.09.369 1.663-.554 3.327-2.214 3.696h-.738zM129.764 270.292c-1.291 0-2.399-.739-2.768-1.848-.553-1.479.185-3.327 1.661-3.882 2.399-.924 3.691-2.587 5.167-4.621 2.03-2.587 4.429-5.729 9.78-7.208 1.661-.37 3.322.554 3.691 2.033.369 1.664-.554 3.327-2.03 3.697-3.322.924-4.798 2.772-6.643 4.99-1.846 2.218-3.691 4.806-7.566 6.47-.554.369-.923.369-1.292.369zM138.255 300.237h-.739c-3.321-.925-8.303-3.697-10.333-6.839-.923-1.479-.554-3.327.922-4.252 1.292-.924 3.322-.554 4.245.925 1.107 1.478 4.428 3.696 6.827 4.251 1.661.37 2.584 2.033 2.215 3.697-.554 1.293-1.846 2.218-3.137 2.218zM127.551 224.084l-5.352-2.773c2.584-4.806 6.828-12.754 18.084-11.275 1.661.185 2.768 1.664 2.584 3.327-.185 1.664-1.846 2.773-3.322 2.588-6.643-.924-9.042 2.588-11.994 8.133zM116.48 211.7c-.739 0-1.292 0-2.03-.185-10.703-1.109-16.424-9.797-16.977-11.46-.554-1.479.184-3.327 1.66-3.882 1.477-.554 3.322.185 3.876 1.664.553 1.109 4.798 6.839 12.179 7.763 7.566.924 14.393-5.73 14.393-5.73 1.107-1.109 3.137-1.109 4.244 0 1.108 1.109 1.108 3.142 0 4.251-.369.37-7.934 7.579-17.345 7.579zM146.929 293.582c-.738 0-1.476-.369-2.03-.924-1.476-1.478-6.089-6.284-4.059-10.535 1.845-4.067 7.75-4.067 11.994-3.697 1.661.185 2.953 1.663 2.768 3.327-.184 1.663-1.661 2.957-3.321 2.772-4.983-.369-6.09.37-6.09.37.185.185 1.476 2.218 2.953 3.512 1.291 1.109 1.291 3.142.184 4.251-.922.555-1.661.924-2.399.924zM186.787 165.675c-.554 0-1.107 0-1.661-.184-1.661-.37-2.768-1.849-2.399-3.512.369-1.664 1.846-2.773 3.506-2.403 2.768.554 6.644-4.251 7.382-5.36.738-1.479 2.583-2.034 4.059-1.294 1.477.739 2.03 2.587 1.292 4.066-.923 1.664-5.72 8.687-12.179 8.687zM115.187 168.263c-.922 0-1.845-.555-2.583-1.294-.923-1.479-.554-3.327.923-4.251 3.321-2.218 1.291-6.655-4.245-16.451l-2.214-4.066c-7.012-12.939 3.321-24.029 9.78-28.28 1.292-.924 3.322-.555 4.06.924.922 1.479.553 3.327-.923 4.251-.553.37-13.84 9.057-7.75 20.147l2.214 4.067c5.167 9.242 10.518 18.853 2.399 24.398-.554.37-1.107.555-1.661.555z"/><path d="M132.715 147.561c-.738 0-1.66 0-2.583-.185-9.411-1.294-11.441-14.787-11.072-17.559.185-1.664 1.845-2.773 3.322-2.588 1.66.185 2.768 1.664 2.583 3.327-.184 1.664 1.476 10.166 5.905 10.721 5.167.739 7.381-1.849 7.75-3.327.369-1.664 1.846-2.773 3.506-2.403 1.661.369 2.768 1.848 2.399 3.512-.738 3.511-4.428 8.502-11.81 8.502zM145.266 188.964c-.553 0-1.292-.185-1.661-.554-4.613-3.327-6.274-9.057-7.75-19.223-1.107-7.209-4.244-9.427-6.274-10.906-.738-.554-1.292-.924-1.661-1.293-1.107-1.109-1.107-2.958 0-4.252 1.107-1.109 3.137-1.293 4.244 0 .185.185.37.37.739.555 2.398 1.663 7.381 5.175 8.857 14.972 1.476 9.611 2.768 13.308 5.351 15.156 1.292.924 1.661 2.773.739 4.251-.739.925-1.661 1.294-2.584 1.294zM177.559 173.254c-.553 0-1.107-.185-1.476-.37-3.321-2.033-5.536-2.403-10.518-3.142-1.476-.185-3.322-.555-5.352-.74-5.166-.924-9.78-4.436-12.548-9.981-.738-1.663-2.583-5.73-1.476-8.133.738-1.478 2.583-2.033 4.06-1.293 1.291.739 1.845 2.033 1.66 3.512.185 1.663 2.953 9.056 9.412 10.165 2.029.37 3.69.555 5.166.74 5.352.739 8.304 1.294 12.733 3.881 1.476.925 1.845 2.773 1.107 4.067-.922.924-1.845 1.294-2.768 1.294zM166.116 154.215c-1.107 0-2.399-.739-2.768-1.848-.553-1.479 0-3.327 1.661-3.882 7.197-2.957 10.703-5.545 10.149-11.09-.184-1.479-1.292-15.526 4.06-20.702 1.476-1.478 3.321-2.033 5.167-1.848 1.661.185 2.952 1.663 2.768 3.327-.185 1.663-1.661 2.772-3.322 2.772-2.214 2.034-3.321 9.242-2.583 16.081.922 10.905-8.673 14.972-13.84 17.19-.554-.185-.923 0-1.292 0zM167.411 198.945c-1.292 0-2.584-.924-2.953-2.218 0 0-1.476-5.36-3.875-9.981-2.03-3.881-5.167-5.915-8.673-8.133l-.738-.554c-1.476-.924-1.846-2.773-.923-4.067.923-1.478 2.768-1.848 4.244-.924l.738.555c3.876 2.403 8.12 5.175 10.888 10.535 2.583 5.176 4.244 10.906 4.244 11.091.369 1.663-.554 3.327-2.214 3.696h-.738zM175.159 161.609c-1.292 0-2.399-.74-2.768-1.849-.554-1.478.184-3.327 1.661-3.881 2.399-.924 3.69-2.588 5.166-4.621 2.03-2.588 4.429-5.73 9.781-7.209 1.66-.369 3.321.555 3.69 2.033.369 1.664-.553 3.328-2.03 3.697-3.321.924-4.797 2.773-6.643 4.991-1.845 2.218-3.69 4.806-7.565 6.469-.554.185-.923.37-1.292.37zM108.545 189.519h-.738c-1.661-.37-2.584-2.034-2.215-3.697.739-2.957 3.876-4.066 8.12-5.545 2.03-.739 4.429-1.479 6.274-2.588 4.429-2.218 2.768-8.502 2.768-8.687-.369-1.664.553-3.327 2.03-3.697 1.661-.37 3.321.555 3.69 2.033 1.108 3.697 1.108 12.015-5.72 15.527-2.399 1.293-4.798 2.033-7.197 2.957-1.476.554-3.69 1.294-4.429 1.663-.369 1.294-1.291 2.034-2.583 2.034zM183.463 191.552h-.738c-3.321-.924-8.304-3.697-10.334-6.839-.922-1.479-.553-3.327.739-4.251 1.476-.925 3.321-.555 4.244.739 1.107 1.479 4.429 3.697 6.827 4.251 1.661.37 2.584 2.033 2.215 3.697-.369 1.479-1.476 2.403-2.953 2.403z"/><path d="M145.819 201.903c-2.768 0-5.721-.739-8.304-2.772-7.012-5.361-8.304-9.057-8.304-13.863 0-1.664 1.292-2.957 2.952-2.957 1.661 0 2.953 1.293 2.953 2.957 0 2.218 0 4.436 5.905 9.057 4.798 3.697 12.179-.555 12.179-.739 1.476-.925 3.322-.37 4.06.924.922 1.478.369 3.327-.923 4.066-.185.555-4.982 3.327-10.518 3.327zM192.136 184.713c-.738 0-1.476-.185-2.029-.924-1.477-1.294-6.09-6.284-4.06-10.536 1.845-4.066 7.75-4.066 11.994-3.696 1.661.185 2.953 1.663 2.768 3.327-.184 1.663-1.66 2.957-3.321 2.772-4.983-.369-6.09.37-6.09.37.185.185 1.476 2.218 2.953 3.512 1.291 1.109 1.291 3.142.184 4.251-.738.555-1.476.924-2.399.924zM101.722 184.713c-.738 0-1.476-.369-2.03-.924-1.476-1.479-6.09-6.284-4.06-10.536 1.846-4.066 7.751-4.066 11.995-3.696 1.661.185 2.953 1.663 2.768 3.327-.184 1.663-1.661 2.957-3.321 2.772-4.983-.369-6.09.37-6.09.37.185.185 1.476 2.218 2.953 3.512 1.291 1.109 1.291 3.142.184 4.251-.922.555-1.661.924-2.399.924z"/></g><path d="M29.383 66.788L132.35 40.727l74.182 76.152-102.969 26.062-74.181-76.153z" fill="#000"/><path d="M103.381 143.125L74.594 245.524l102.968-26.061 28.787-102.4-102.968 26.062z" fill="#FFF200"/><path d="M.781 169.187L29.753 66.788l73.997 76.337L74.778 245.34.781 169.187z" fill="#fff"/></svg>